<svg width="25" height="24" viewBox="0 0 25 24" fill="none" xmlns="http://www.w3.org/2000/svg">
    <g clip-path="url(#er9f2sj5aa)">
        <path d="M24.022 12.267c0-.987-.08-1.707-.254-2.454H12.501v4.454h6.613c-.133 1.107-.853 2.773-2.453 3.893l-.023.15 3.563 2.76.247.025c2.266-2.095 3.574-5.175 3.574-8.828z" fill="#4285F4"/>
        <path d="M12.5 24c3.24 0 5.961-1.066 7.947-2.906L16.66 18.16c-1.013.707-2.373 1.2-4.16 1.2-3.173 0-5.866-2.093-6.827-4.986l-.14.011-3.705 2.867-.048.135C3.753 21.307 7.807 24 12.5 24z" fill="#34A853"/>
        <path d="M5.673 14.374a7.388 7.388 0 0 1-.4-2.374c0-.826.147-1.627.387-2.374l-.007-.158-3.75-2.913-.123.06A11.996 11.996 0 0 0 .5 12c0 1.933.466 3.76 1.28 5.387l3.893-3.013z" fill="#FBBC05"/>
        <path d="M12.5 4.64c2.254 0 3.774.973 4.641 1.787l3.387-3.307C18.448 1.187 15.74 0 12.501 0 7.807 0 3.753 2.693 1.78 6.613l3.88 3.013C6.634 6.734 9.327 4.64 12.5 4.64z" fill="#EB4335"/>
    </g>
    <defs>
        <clipPath id="er9f2sj5aa">
            <path fill="#fff" transform="translate(.5)" d="M0 0h24v24H0z"/>
        </clipPath>
    </defs>
</svg>
