<svg width="28" height="28" viewBox="0 0 28 28" fill="none" xmlns="http://www.w3.org/2000/svg">
    <circle cx="14" cy="14" r="14" fill="#F2F2F2"/>
    <path d="M20 9.167v8.666a.5.5 0 0 1-.64.48l-11-3.208a.5.5 0 0 1-.36-.48v-2.25a.5.5 0 0 1 .36-.48l11-3.208a.5.5 0 0 1 .64.48v0z" stroke="#121619" stroke-width="1.5" stroke-linecap="round" stroke-linejoin="round"/>
    <path d="M10.5 15.73V18a.5.5 0 0 0 .5.5h2a.5.5 0 0 0 .5-.5v-7.604" stroke="#121619" stroke-width="1.5" stroke-linecap="round" stroke-linejoin="round"/>
</svg>
