<svg width="233" height="224" viewBox="0 0 233 224" fill="none" xmlns="http://www.w3.org/2000/svg">
    <path d="M210.919 126.847a1.847 1.847 0 0 0-.097-.58.197.197 0 0 0-.032-.129c0-.064-.033-.129-.033-.193a2.161 2.161 0 0 1-.064-.226l-.064-.161-.194-.515a.654.654 0 0 1-.129-.258h-.032c-.064-.065-.161-.032-.193.064-.032.097.032-.193.064-.322-1.579-2.674-5.284-4.35-9.408-3.899-4.124.451-7.894 3.255-8.506 6.541a1.8 1.8 0 0 0 .257.419c-.032-.032-.064-.064-.064-.097 0-.032-.258-.064-.258.065a.914.914 0 0 0-.032.29v.064a1.18 1.18 0 0 0-.032.355c0 .193.032.386.032.612.038.292.092.583.161.87.967 3.544 5.22 5.896 10.021 5.381 4.801-.516 8.474-3.738 8.635-7.411a8.151 8.151 0 0 0-.032-.87z" fill="#A7F0BA"/>
    <path d="M68.633 43.428a.71.71 0 0 1-.613-.387.645.645 0 0 1 .323-.838c.16-.096 16.98-8.152 23.392-13.822a.677.677 0 0 1 .934.032.708.708 0 0 1-.064.934c-6.541 5.8-23.006 13.662-23.715 14.016l-.257.065zM90.542 85.862s2.385 6.767-1.482 7.797c-3.866 1.032-19.944 2.45-18.108-3.512 1.837-5.96 12.212-.225 11.728-4.027-.483-3.802 7.862-.258 7.862-.258zM138.874 86.507s4.575 5.542 1.289 7.83c-3.287 2.287-17.851 9.215-18.205 3.028-.354-6.186 11.406-4.478 9.634-7.862-1.772-3.383 7.282-2.996 7.282-2.996zM197.548 134.58a.609.609 0 0 1-.612-.516l-.709-2.835a.675.675 0 0 1 .483-.773.63.63 0 0 1 .487.081.639.639 0 0 1 .286.402l.677 2.835a.617.617 0 0 1-.057.485.604.604 0 0 1-.394.289l-.161.032zM202.735 133.871a.677.677 0 0 1-.644-.516l-.419-1.836a.639.639 0 0 1 .175-.782.634.634 0 0 1 .542-.128.642.642 0 0 1 .507.62l.451 1.837a.642.642 0 0 1-.483.773l-.129.032zM208.31 132.453a.614.614 0 0 1-.58-.354l-1.128-2.513a.643.643 0 0 1 .323-.838.632.632 0 0 1 .503-.024.64.64 0 0 1 .367.346l1.095 2.481a.636.636 0 0 1 .024.504.636.636 0 0 1-.346.366l-.258.032zM195.517 126.331a.614.614 0 0 1-.644-.548 3.25 3.25 0 0 1 .934-2.416c1.192-1.289 3.383-1.869 6.509-1.74 3.125.129 5.123.805 5.703 2.062a2.103 2.103 0 0 1-.322 2.127.654.654 0 0 1-.676.237.66.66 0 0 1-.227-.108.646.646 0 0 1-.096-.903.935.935 0 0 0 .129-.837c-.161-.323-.935-1.128-4.576-1.289-3.641-.161-4.865.644-5.509 1.353a1.833 1.833 0 0 0-.58 1.353.637.637 0 0 1-.338.636.647.647 0 0 1-.242.073h-.065z" fill="#343A3F"/>
    <path d="m19.303 122.078-.806-.515a6.846 6.846 0 0 1-1.707-2.03c-1.58-2.965-1.031-7.314 1.675-10.826 2.707-3.512 7.379-5.446 10.794-4.189.584.193 1.13.487 1.611.87.251.198.488.413.709.644 2.739 2.868 2.513 8.088-.645 12.212-3.157 4.124-8.184 5.703-11.631 3.834z" fill="#fff"/>
    <path d="M22.525 123.496a7.508 7.508 0 0 1-3.544-.87l-.87-.548a7.184 7.184 0 0 1-1.901-2.255l-.774-1.482 1.58.58c3.157 1.192 7.41-.484 10.052-3.963 2.642-3.48 3.126-7.315 1.611-10.15l-.805-1.514 1.61.612a6.708 6.708 0 0 1 1.773.967l.805.708c2.965 3.126 2.707 8.732-.612 13.082-2.384 3.093-5.8 4.833-8.925 4.833zm-4.189-2.964c.167.188.35.36.548.515l.709.451c3.254 1.773 7.894.194 10.826-3.641 2.932-3.834 3.254-8.731.709-11.373a5.72 5.72 0 0 0-.644-.58c.805 3.061-.065 6.798-2.385 9.827s-6.38 5.187-9.763 4.801z" fill="#343A3F"/>
    <path d="M19.239 120.596a8.17 8.17 0 0 1-2.675-.451l-.225-.097-.097-.225c-1.772-3.254-1.095-7.894 1.708-11.535s7.765-5.768 11.535-4.382l.226.064.096.226c1.772 3.254 1.096 7.894-1.707 11.535-2.353 3.093-5.736 4.865-8.861 4.865zm-1.998-1.579c3.158.999 7.25-.676 9.828-4.059 2.448-3.158 3.093-7.121 1.74-9.924-3.19-1.031-7.218.612-9.86 4.059-2.642 3.448-3.061 7.089-1.708 9.924z" fill="#343A3F"/>
    <path d="M31.837 113.153a.74.74 0 0 1-.484-.225l-1.9-2.159a.616.616 0 0 1-.122-.703.677.677 0 0 1 1.088-.167l1.9 2.159a.605.605 0 0 1 .183.458.606.606 0 0 1-.214.444.644.644 0 0 1-.451.193zM29.743 116.407a.644.644 0 0 1-.451-.193l-1.45-1.418a.607.607 0 0 1-.147-.697.607.607 0 0 1 .147-.205.646.646 0 0 1 .902-.032l1.45 1.45a.612.612 0 0 1 0 .902.581.581 0 0 1-.451.193zM25.619 120.95a.711.711 0 0 1-.484-.193l-1.643-1.74a.645.645 0 0 1 .032-.902.606.606 0 0 1 .451-.198.613.613 0 0 1 .451.198l1.644 1.74a.612.612 0 0 1 0 .902.644.644 0 0 1-.451.193zM19.367 118.244a1.603 1.603 0 0 1-1.256-.548c-.806-.966-.355-2.932 1.45-6.154 1.804-3.222 3.512-4.994 5.252-5.349a2.477 2.477 0 0 1 1.933.323.65.65 0 0 1 .113.918.657.657 0 0 1-.919.113 1.153 1.153 0 0 0-.934-.097c-.741.193-2.288 1.031-4.318 4.704s-1.61 4.672-1.578 4.705c.032.032.354.096.515.032a.674.674 0 0 1 .806.451.676.676 0 0 1-.42.805c-.21.056-.426.088-.644.097zM114.483 185.65c-28.515 0-55.355-2.191-75.525-6.155-14.467-2.835-31.737-7.797-31.737-15.401s17.27-12.598 31.737-15.434c20.17-3.963 47.01-6.122 75.525-6.122 28.516 0 55.323 2.159 75.493 6.122 14.499 2.836 31.77 7.83 31.77 15.434 0 7.604-17.271 12.566-31.77 15.401-20.17 3.964-46.977 6.155-75.493 6.155zm0-41.823c-28.45 0-55.162 2.159-75.267 6.09-19.526 3.834-30.706 8.989-30.706 14.177 0 5.187 11.18 10.311 30.706 14.145 20.105 3.931 46.816 6.122 75.267 6.122 28.451 0 55.162-2.191 75.268-6.122 19.493-3.834 30.706-8.99 30.706-14.145 0-5.155-11.213-10.343-30.706-14.177-20.106-3.931-46.849-6.09-75.268-6.09z" fill="#343A3F"/>
    <path d="M116.352 189.58c-30.803 0-59.77-2.674-81.583-7.539C12.956 177.175.551 170.474.551 163.256c0-7.217 12.147-13.855 34.218-18.784 22.071-4.93 50.78-7.54 81.583-7.54 30.803 0 59.769 2.674 81.582 7.54 21.814 4.865 34.251 11.599 34.251 18.784 0 7.185-12.179 13.887-34.251 18.785-22.071 4.897-50.779 7.539-81.582 7.539zm0-51.359c-30.707 0-59.576 2.674-81.293 7.507-21.137 4.704-33.22 11.116-33.22 17.528 0 6.412 12.083 12.824 33.22 17.528 21.717 4.865 50.587 7.508 81.293 7.508 30.706 0 59.576-2.643 81.292-7.508 21.137-4.704 33.252-11.084 33.252-17.528 0-6.444-12.115-12.824-33.252-17.528-21.716-4.833-50.586-7.507-81.292-7.507z" fill="#343A3F"/>
    <path d="M111.228 196.443c-24.648 0-47.267-1.997-67.373-5.993-22.265-4.414-33.413-9.666-36.28-11.18-10.472-5.446-7.057-16.111-6.992-16.207a.612.612 0 0 1 .805-.419.707.707 0 0 1 .419.838c-.161.386-3.125 9.73 6.347 14.66 13.5 7.024 52.971 18.495 115.415 16.851 57.868-1.514 93.987-8.957 104.395-21.491 2.513-3.061 3.512-6.476 2.932-10.149a.646.646 0 0 1 .515-.741.673.673 0 0 1 .741.547c.645 4.028-.418 7.798-3.222 11.149-5.477 6.605-17.689 11.857-36.312 15.562-17.593 3.512-40.792 5.671-69.017 6.412-4.156.097-8.313.161-12.373.161z" fill="#343A3F"/>
    <path d="M7.865 197.442a.647.647 0 0 1-.644-.644v-18.076a.645.645 0 0 1 1.289 0v18.076a.645.645 0 0 1-.645.644zM13.535 193.672a.643.643 0 0 1-.644-.644v-11.761a.645.645 0 0 1 1.289 0v11.761a.645.645 0 0 1-.645.644z" fill="#343A3F"/>
    <path d="M12.117 202.888H8.508a3.382 3.382 0 0 1-3.053-3.367 3.382 3.382 0 0 1 3.053-3.367h3.61a3.38 3.38 0 0 1 3.053 3.367 3.381 3.381 0 0 1-3.054 3.367zm-3.609-5.446a2.096 2.096 0 0 0 0 4.157h3.61a2.092 2.092 0 0 0 1.834-2.078 2.096 2.096 0 0 0-1.835-2.079H8.508zM221.585 193.93a.645.645 0 0 1-.645-.644v-13.758a.645.645 0 0 1 .645-.645.618.618 0 0 1 .605.393c.03.08.044.166.039.252v13.758a.617.617 0 0 1-.178.466.618.618 0 0 1-.466.178zM226.321 189.58a.6.6 0 0 1-.466-.178.618.618 0 0 1-.178-.466V176.37a.644.644 0 1 1 1.289 0v12.566a.618.618 0 0 1-.393.605.6.6 0 0 1-.252.039z" fill="#343A3F"/>
    <path d="M225.837 199.666h-3.608a3.383 3.383 0 1 1 0-6.735h3.608a3.385 3.385 0 0 1 0 6.735zm-3.608-5.446a2.103 2.103 0 0 0-1.646.509 2.086 2.086 0 0 0-.708 1.569 2.1 2.1 0 0 0 .708 1.57 2.095 2.095 0 0 0 1.646.509h3.608a2.095 2.095 0 0 0 0-4.157h-3.608zM61.48 214.552a.644.644 0 0 1-.644-.645v-21.201a.645.645 0 0 1 1.289 0v21.201a.645.645 0 0 1-.645.645zM67.15 214.552a.644.644 0 0 1-.644-.645v-20.073a.645.645 0 0 1 1.289 0v20.073a.645.645 0 0 1-.645.645z" fill="#343A3F"/>
    <path d="M66.732 219.965h-4.608a3.35 3.35 0 0 1-3.35-3.351 3.353 3.353 0 0 1 3.35-3.351h4.608a3.352 3.352 0 0 1 0 6.702zm-4.608-5.413a2.061 2.061 0 1 0 0 4.124h4.608a2.06 2.06 0 1 0 0-4.124h-4.608zM126.662 217.258a.645.645 0 0 1-.644-.644v-20.815a.64.64 0 0 1 .644-.644.645.645 0 0 1 .644.644v20.815a.64.64 0 0 1-.644.644zM132.333 217.645a.645.645 0 0 1-.645-.645v-21.201a.645.645 0 0 1 1.289 0V217a.645.645 0 0 1-.644.645z" fill="#343A3F"/>
    <path d="M131.914 223.058h-4.608a3.355 3.355 0 0 1-3.096-2.069 3.359 3.359 0 0 1 0-2.565 3.353 3.353 0 0 1 3.096-2.068h4.608a3.352 3.352 0 0 1 0 6.702zm-4.608-5.413a2.061 2.061 0 1 0 0 4.124h4.608a2.063 2.063 0 0 0 0-4.124h-4.608zM192.617 210.653a.645.645 0 0 1-.644-.645v-20.17a.644.644 0 1 1 1.288 0v20.17a.644.644 0 0 1-.644.645zM198.289 206.593a.645.645 0 0 1-.644-.644v-17.496a.644.644 0 1 1 1.288 0v17.496a.632.632 0 0 1-.188.455.64.64 0 0 1-.456.189z" fill="#343A3F"/>
    <path d="M197.87 216.742h-4.608a3.35 3.35 0 1 1 0-6.701h4.608a3.352 3.352 0 0 1 0 6.701zm-4.608-5.413a2.065 2.065 0 0 0-2.062 2.062 2.063 2.063 0 0 0 2.062 2.063h4.608a2.065 2.065 0 0 0 2.062-2.063 2.065 2.065 0 0 0-2.062-2.062h-4.608zM221.1 164.738a.674.674 0 0 1-.58-.354.632.632 0 0 1-.037-.496.649.649 0 0 1 .327-.374c.741-.387 4.543-2.255 6.122-1.514a.636.636 0 0 1 .385.62.637.637 0 0 1-.689.608.669.669 0 0 1-.244-.068c-.676-.323-3.125.515-4.994 1.482a.513.513 0 0 1-.29.096zM218.363 169.475a.648.648 0 0 1-.725-.564.647.647 0 0 1 .564-.725c1.031-.258 4.543-1.064 5.767-.258a1.066 1.066 0 0 1 .548.773.646.646 0 0 1-1.257.29c-.451-.29-2.674-.064-4.768.451l-.129.033zM219.49 161.097a.665.665 0 0 1-.516-.258.634.634 0 0 1-.015-.72.649.649 0 0 1 .176-.182c4.415-3.061 4.576-2.996 4.898-2.9a.617.617 0 0 1 .528.558.609.609 0 0 1-.431.635l-.129.064c-.484.226-2.417 1.514-4.125 2.707a.878.878 0 0 1-.386.096zm3.802-3.19c0 .033 0 .033.032.033s-.032 0-.032-.033z" fill="#343A3F"/>
    <path d="M131.623.735S106.395-4.742 95.44 14.203c-10.955 18.946-9.828 45.174 11.309 54.292 21.137 9.119 49.555-.709 54.292-29.514 4.736-28.805-26.904-37.86-29.418-38.246z" fill="#FF3B38"/>
    <path d="M120.185 56.574c-7.41 0-15.111-2.352-19.429-8.281-3.93-5.381-5.413-11.567-4.253-17.883 1.353-7.604 6.412-14.95 13.533-19.654 11.47-7.572 23.843-1.353 23.972-1.289 11.535 5.96 14.95 15.305 11.438 31.286-1.611 7.411-8.441 13.05-18.204 15.112a35.896 35.896 0 0 1-7.057.709zm2.578-48.3a21.23 21.23 0 0 0-12.018 3.577c-6.831 4.511-11.696 11.535-12.985 18.785-1.064 5.96.322 11.793 4.06 16.916 5.38 7.378 16.529 8.86 25.164 7.056 8.635-1.804 15.724-7.346 17.206-14.112 3.351-15.305.129-24.263-10.762-29.901a26.229 26.229 0 0 0-10.665-2.32z" fill="#343A3F"/>
    <path d="M101.272 48.55a.647.647 0 0 1-.644-.547c-1.45-13.114 1.192-22.812 7.894-28.87 11.341-10.214 30.029-6.283 30.803-6.122a.648.648 0 0 1 .483.774.607.607 0 0 1-.267.4.617.617 0 0 1-.474.083c-.193-.032-18.849-3.963-29.708 5.832-6.347 5.735-8.86 15.08-7.442 27.742a.616.616 0 0 1-.31.636.61.61 0 0 1-.238.073h-.097zM117.801 66.53a40.181 40.181 0 0 1-10.44-1.386c-7.797-2.126-13.017-6.09-13.887-7.41a.58.58 0 0 1 .161-.87.644.644 0 0 1 .903.16c.58.87 5.316 4.737 13.146 6.896 6.798 1.837 17.463 2.706 29.739-3.673 18.366-9.538 19.236-26.808 18.785-33.767a36.68 36.68 0 0 0-2.384-10.375.64.64 0 0 1 .354-.838.645.645 0 0 1 .838.354 38.041 38.041 0 0 1 2.481 10.762c.483 7.217-.451 25.132-19.494 34.991-7.475 3.9-14.37 5.156-20.202 5.156z" fill="#343A3F"/>
    <path d="M126.63 71.46a.611.611 0 0 1-.612-.516l-1.096-5.606a.647.647 0 0 1 .516-.742.58.58 0 0 1 .741.484l1.095 5.606a.676.676 0 0 1-.515.773h-.129zM135.297 69.849a.646.646 0 0 1-.644-.516l-1.354-6.476a.615.615 0 0 1 .256-.649.612.612 0 0 1 .228-.092.643.643 0 0 1 .773.483l1.353 6.476a.615.615 0 0 1-.256.649.614.614 0 0 1-.227.093l-.129.032zM143.417 65.466a.676.676 0 0 1-.612-.45l-1.836-5.865a.642.642 0 0 1 .901-.724.646.646 0 0 1 .323.338l1.837 5.864c.029.08.042.165.037.25a.632.632 0 0 1-.068.245.62.62 0 0 1-.388.31l-.194.032zM149.345 60.795a.676.676 0 0 1-.612-.387l-2.191-5.188a.677.677 0 0 1 .354-.837.644.644 0 0 1 .838.354l2.191 5.155a.68.68 0 0 1-.322.87l-.258.033zM107.297 21.936a.677.677 0 0 1-.58-.354L104.3 16.91a.65.65 0 0 1 .29-.87.645.645 0 0 1 .87.258l2.417 4.672a.65.65 0 0 1-.089.715.648.648 0 0 1-.201.155.517.517 0 0 1-.29.096zM111.519 18.263a.675.675 0 0 1-.58-.386l-2.256-5.252a.677.677 0 0 1 .355-.87.644.644 0 0 1 .837.354l2.256 5.252a.647.647 0 0 1-.355.838l-.257.064zM118.252 70.944a.647.647 0 0 1-.644-.548l-.613-4.027a.653.653 0 0 1 1.032-.621.649.649 0 0 1 .257.427l.613 4.028a.676.676 0 0 1-.548.741h-.097zM87.16 86.99a.677.677 0 0 1-.645-.483c-1.901-7.475-1.225-13.404 2.062-17.657 4.962-6.412 14.048-6.509 14.435-6.509a.641.641 0 0 1 .644.645.644.644 0 0 1-.644.644c-.097 0-8.861.097-13.436 6.025-3.029 3.9-3.609 9.473-1.805 16.53a.677.677 0 0 1-.45.805h-.162zM190.234 58.507a.712.712 0 0 1-.419-.129c-.193-.16-19.171-16.078-30.931-19.815a.647.647 0 0 1-.419-.806.707.707 0 0 1 .837-.419c11.987 3.834 30.578 19.397 31.351 20.041a.643.643 0 0 1 .097.903.646.646 0 0 1-.516.225z" fill="#343A3F"/>
    <path d="M136.297 88.536a.582.582 0 0 1-.548-.354c-6.702-12.244-1.933-21.781-1.708-22.168a.64.64 0 0 1 .375-.327.642.642 0 0 1 .495.037.68.68 0 0 1 .297.385.682.682 0 0 1-.039.485c-.064.129-4.64 9.344 1.708 20.976a.648.648 0 0 1-.258.87.548.548 0 0 1-.322.096zM65.185 40.044a.677.677 0 0 1-.516-.257c-.032-.065-3.06-4.318-6.895-4.866-1.675-.225-3.254.258-4.736 1.483a.644.644 0 0 1-.902-.097.612.612 0 0 1 .096-.902c1.772-1.45 3.706-2.03 5.703-1.74 4.415.612 7.669 5.187 7.798 5.38a.677.677 0 0 1-.161.903.87.87 0 0 1-.387.096z" fill="#343A3F"/>
    <path d="M47.56 39.658a.645.645 0 0 1-.645-.58c-.225-1.611.387-2.449.967-2.9 2.48-1.965 8.7.387 9.408.677a.611.611 0 0 1 .355.805.644.644 0 0 1-.838.387c-2.385-.934-6.702-1.998-8.152-.87-.129.129-.644.515-.451 1.74a.645.645 0 0 1-.58.709c0 .032-.032.032-.065.032z" fill="#343A3F"/>
    <path d="M46.24 42.139a.71.71 0 0 1-.58-.323c-.58-1.095-.322-1.836-.032-2.287 1.514-2.191 8.442-1.353 9.795-1.16a.646.646 0 0 1 .382 1.187.645.645 0 0 1-.543.07c-3.093-.42-7.797-.484-8.57.644-.065.064-.226.29.128.934a.645.645 0 0 1-.29.87l-.29.065zM61.35 58.217a3.158 3.158 0 0 1-2.544-1.45 2.255 2.255 0 0 1 .064-2.481c1.289-1.837 1.095-4.479 1.095-4.511v-.226a.869.869 0 0 0-.29-.612c-.58-.676-2.577-1.772-9.021-1.514-2.642.097-3.577-1.16-3.706-1.418-.709-1.03-.837-1.9-.354-2.578 1.385-1.997 7.797-.708 9.73-.257a.644.644 0 0 1 .484.773.612.612 0 0 1-.773.483c-3.577-.837-7.798-1.127-8.378-.257-.129.193 0 .612.355 1.127v.065s.58.838 2.545.773c5.477-.226 8.86.451 10.15 2.062.363.442.537 1.01.483 1.579.032.516.096 3.19-1.321 5.252a.934.934 0 0 0-.032 1.063 1.804 1.804 0 0 0 1.61.838 1.127 1.127 0 0 0 .903-.902c.902-3.093 1.482-4.157 3.415-4.93.226-.064.806-.29.483-1.45a1.256 1.256 0 0 1 .645-1.45l1.804-1.353a.644.644 0 1 1 .773 1.031l-1.965 1.482c.355 1.386-.097 2.481-1.257 2.932-1.16.451-1.836 1.225-2.674 4.092-.322 1.031-1.03 1.708-1.965 1.837h-.258zM209.824 57.379a.613.613 0 0 1-.58-.354c-1.611-3.448-10.858-1.225-14.306-.065a.614.614 0 0 1-.806-.386.656.656 0 0 1 .017-.5.638.638 0 0 1 .37-.338c1.386-.451 13.501-4.35 15.885.74a.619.619 0 0 1 .021.49.609.609 0 0 1-.343.349.388.388 0 0 1-.258.064z" fill="#343A3F"/>
    <path d="M213.207 60.118h-.097a.648.648 0 0 1-.515-.741 1.094 1.094 0 0 0-.29-1.064c-1.257-1.16-5.864-.612-8.474.033a.611.611 0 0 1-.773-.451.679.679 0 0 1 .451-.806c.773-.161 7.507-1.74 9.698.29a2.42 2.42 0 0 1 .644 2.223.61.61 0 0 1-.644.516z" fill="#343A3F"/>
    <path d="M212.239 63.63h-.257a.708.708 0 0 1-.355-.87c.29-.612.097-.838.033-.934-.999-1.257-6.284-1.096-9.763-.58a.646.646 0 0 1-.622-1.022.617.617 0 0 1 .428-.235c1.515-.258 9.183-1.289 10.955 1.031a2.125 2.125 0 0 1 .161 2.255.607.607 0 0 1-.58.355zM203.701 69.172a14.566 14.566 0 0 1-4.511-.644.647.647 0 0 1-.518-.852.65.65 0 0 1 .388-.392.645.645 0 0 1 .549.051c2.385.838 7.411.742 9.119-.515a.845.845 0 0 0 .451-.741.715.715 0 0 0-.322-.548c-.999-.87-4.06-.87-5.768-.676a.645.645 0 0 1-.709-.58.616.616 0 0 1 .309-.636.617.617 0 0 1 .239-.073c.516-.065 5.026-.516 6.766.966a2.13 2.13 0 0 1 .774 1.515 2.164 2.164 0 0 1-.999 1.836c-1.225.902-3.544 1.289-5.768 1.289zM193.133 75.81a1.87 1.87 0 0 1-1.579-.742c-.612-.773-.612-2.062.033-3.19.289-.483.193-.773-.226-1.675-.592-1.2-.953-2.5-1.063-3.834-.29-3.19-2.32-4.157-2.417-4.189a.655.655 0 0 1 .046-1.211.657.657 0 0 1 .502.019c.097.064 2.803 1.289 3.158 5.252a9.725 9.725 0 0 0 .966 3.415c.419.967.773 1.772.161 2.868-.612 1.095-.386 1.45-.161 1.772.226.322.709.226 1.063.129 2.385-.645 1.966-5.059 1.966-5.123a.673.673 0 0 1 .58-.709.608.608 0 0 1 .615.34.59.59 0 0 1 .061.24c.033.225.58 5.574-2.867 6.508a4.1 4.1 0 0 1-.838.13zM45.95 64.468h-.065c-4.736-.548-8.377-2.514-10.761-5.897-5.414-7.572-2.836-19.397-2.74-19.88a.644.644 0 0 1 .774-.483.612.612 0 0 1 .483.773c-.032.097-2.545 11.76 2.514 18.85 2.19 3.06 5.51 4.864 9.859 5.348a.643.643 0 0 1 .58.709.644.644 0 0 1-.644.58zM34.897 75.938a8.893 8.893 0 0 1-5.606-1.836c-4.8-3.738-4.736-11.89-4.736-12.212a.612.612 0 0 1 .644-.645.644.644 0 0 1 .644.645c0 .097-.064 7.862 4.254 11.213 2.062 1.61 4.865 1.965 8.313 1.03a.611.611 0 0 1 .773.452.644.644 0 0 1-.451.805 15.27 15.27 0 0 1-3.835.548zM65.442 158.584a.644.644 0 0 1-.644-.644V68.012a.644.644 0 1 1 1.289 0v89.928a.643.643 0 0 1-.645.644zM59.385 131.068a.644.644 0 0 1-.645-.645V65.918a.644.644 0 0 1 1.29 0v64.505a.645.645 0 0 1-.645.645zM168.71 164.48a.64.64 0 0 1-.605-.42.64.64 0 0 1-.04-.256l.838-93.537a.644.644 0 0 1 1.289 0l-.838 93.569a.645.645 0 0 1-.644.644zM161.524 154.009a.645.645 0 0 1-.644-.645v-50.006a.645.645 0 0 1 1.289 0v50.006a.645.645 0 0 1-.645.645zM161.524 95.206a.641.641 0 0 1-.644-.644V80.965a.644.644 0 0 1 1.289 0v13.597a.644.644 0 0 1-.645.644zM203.025 92.435a.611.611 0 0 1-.644-.612.64.64 0 0 1 .612-.677c7.604-.322 17.721-14.563 17.818-14.725a.646.646 0 0 1 .902-.16.65.65 0 0 1 .161.902c-.451.612-10.6 14.918-18.817 15.272h-.032zM202.864 100.941a14.24 14.24 0 0 1-3.641-.451.6.6 0 0 1-.394-.288.621.621 0 0 1-.057-.485.675.675 0 0 1 .773-.483c6.477 1.643 12.405-1.998 14.661-3.641 2.255-1.644 3.48-3.287 3.512-3.673a.643.643 0 0 1 1.256-.258c.194.934-.966 2.287-1.997 3.254-2.578 2.481-8.056 6.025-14.113 6.025zM199.771 131.841a9.047 9.047 0 0 1-7.636-3.963.706.706 0 0 1 .225-.902.677.677 0 0 1 .902.258c.097.193 2.868 4.8 9.634 2.867 6.767-1.933 6.219-4.897 6.219-4.93a.64.64 0 0 1 .511-.699.649.649 0 0 1 .746.442c.032.193.773 4.156-7.121 6.412a11.828 11.828 0 0 1-3.48.515zM114.836 172.826c-6.379 0-12.405-.387-16.948-1.063-6.734-1.064-7.507-2.353-7.507-3.255 0-.902.773-2.159 7.507-3.222 4.543-.676 10.569-1.063 16.948-1.063 6.38 0 12.437.387 16.981 1.063 6.734 1.063 7.507 2.352 7.507 3.222 0 .87-.773 2.191-7.507 3.255-4.544.676-10.569 1.063-16.981 1.063zm0-7.314c-6.122 0-11.954.354-16.4.999-5.316.773-6.702 1.739-6.799 2.029-.096.29 1.483 1.225 6.799 1.998 4.446.645 10.278.999 16.4.999 6.122 0 11.986-.354 16.401-.999 5.252-.773 6.669-1.708 6.798-2.03.129-.322-1.546-1.224-6.798-1.997-4.415-.645-10.247-.999-16.401-.999z" fill="#343A3F"/>
    <path d="M92.122 168.057h-.097l-1.868-.129c-34.573-1.965-58.545-6.605-69.404-13.404a.644.644 0 0 1-.193-.87.611.611 0 0 1 .87-.225c7.443 4.672 25.422 10.761 68.791 13.21l1.998.129a.681.681 0 0 1 .548.741.646.646 0 0 1-.645.548zM39.988 171.763c-14.145 0-26.517-.645-30.03-2.675a.677.677 0 0 1-.257-.902.706.706 0 0 1 .902-.225c8.796 5.123 80.262.805 80.97.741a.625.625 0 0 1 .255.026.616.616 0 0 1 .422.586.607.607 0 0 1-.144.463.61.61 0 0 1-.436.213c-1.836.129-28.998 1.773-51.682 1.773zM135.297 167.284a.645.645 0 0 1-.644-.548.644.644 0 0 1 .515-.741c.387-.064 37.602-6.863 52.616-17.56a.66.66 0 0 1 .485-.107.64.64 0 0 1 .235.093.636.636 0 0 1 .284.406.653.653 0 0 1-.262.671c-15.241 10.858-51.586 17.496-53.132 17.786h-.097zM192.296 173.76c-24.52 0-53.325-4.543-53.712-4.607a.639.639 0 0 1-.429-.256.62.62 0 0 1-.108-.231.622.622 0 0 1-.01-.254.644.644 0 0 1 .741-.516c.547.065 52.68 8.281 76.105 2.546a.645.645 0 0 1 .773.451.679.679 0 0 1-.483.805c-6.154 1.482-14.242 2.062-22.877 2.062z" fill="#343A3F"/>
</svg>
