<svg width="274" height="325" viewBox="0 0 274 325" fill="none" xmlns="http://www.w3.org/2000/svg">
    <path d="M31.609 257.362a.847.847 0 0 1-.845-.845v-14.199a.843.843 0 0 1 .845-.845.843.843 0 0 1 .845.845v14.199a.847.847 0 0 1-.845.845zM68.71 136.082c-19.607 6.973-23.748-30.257-5.62-24.214 18.13 6.043 10.438-26.495 10.438-26.495C52.906 14.929 116.251 1.49 116.251 1.49s6.719-4.142 16.016 8.705c0 0 19.734-8.494 33.468 16.86 13.734 25.355-2.071 64.74 5.113 76.276 7.776 12.382 15.213-1.056 19.819 10.227 3.888 9.508-15.086 20.283-19.819 20.41l-102.137 2.113z" fill="#343A3F"/>
    <path d="M63.936 137.815c-4.944 0-8.029-2.958-9.635-5.071-4.226-5.621-4.902-14.368-1.479-19.101 2.282-3.169 6-4.099 10.522-2.578 3.381 1.099 6.001.888 7.776-.76 5.916-5.409 1.732-24.003 1.563-24.721-6.55-22.523-5.324-41.624 3.72-56.752C89.29 7.28 113.968 1.152 115.954.688c1.057-.55 7.776-3.38 16.608 8.494a24.507 24.507 0 0 1 11.409-.888c6.297.972 15.256 4.944 22.524 18.34 8.113 15.002 6.043 34.863 4.395 50.794-1.184 11.199-2.155 20.876.676 25.439 3.718 5.959 7.226 5.536 10.564 5.114 3.339-.423 6.846-.803 9.339 5.282 1.099 2.704.634 5.662-1.394 8.79-4.437 6.803-15.424 12.677-19.185 12.761l-102.01 2.113a14.944 14.944 0 0 1-4.945.888zm-4.564-25.778a5.958 5.958 0 0 0-5.155 2.578c-2.958 4.141-2.282 12.128 1.436 17.115 1.818 2.366 5.874 6.042 12.805 3.549h.253l102.137-2.113c2.958-.084 13.481-5.324 17.791-11.959 1.733-2.662 2.155-5.071 1.268-7.268-1.986-4.86-4.353-4.606-7.564-4.226-3.212.381-7.945.93-12.213-5.916-3.169-5.028-2.113-14.96-.93-26.495 1.648-15.72 3.677-35.286-4.183-49.823-5.494-10.1-12.847-16.142-21.298-17.494-6.339-.972-11.072 1.014-11.114 1.056l-.634.254-.38-.55c-8.748-12.085-14.833-8.536-14.875-8.494l-.127.085h-.126c-.254.085-25.651 5.705-38.624 27.425-8.79 14.706-9.973 33.384-3.507 55.443.21.803 4.69 20.199-2.071 26.369-2.24 2.07-5.451 2.408-9.466 1.098a10.525 10.525 0 0 0-3.423-.634z" fill="#343A3F"/>
    <path d="M156.778 49.665h-.254C133.409 43.072 116.76 23.21 116.591 23a.853.853 0 0 1 .729-1.4c.226.019.435.128.58.301.17.212 16.481 19.692 39.089 26.116a.844.844 0 0 1 .592 1.056.805.805 0 0 1-.803.592z" fill="#343A3F"/>
    <path d="M147.227 75.78h-.212a.841.841 0 0 1-.574-.306.84.84 0 0 1-.186-.623.801.801 0 0 1 .887-.761c.296 0 7.353.423 8.621-11.114.718-6.338-1.057-8.24-2.747-10.057-1.69-1.817-3.296-3.508-2.831-8.283a.849.849 0 1 1 1.69.17c-.38 4.014.887 5.366 2.366 6.972 1.479 1.606 3.973 4.268 3.212 11.41-1.352 12-8.832 12.592-10.226 12.592zM137.085 50.721h-.127l-9.593-.845a1.1 1.1 0 0 1-.972-1.183 1.022 1.022 0 0 1 .734-.9 1.01 1.01 0 0 1 .407-.03l9.635.845a1.055 1.055 0 0 1 .972 1.141 1.142 1.142 0 0 1-1.056.972z" fill="#343A3F"/>
    <path d="M174.948 256.517c-2.493-4.352-3.888-6.127-3.339-11.114.803-7.648 2.029-19.861 2.62-31.355 5.79 11.494 19.65 31.06 43.019 18.805 4.775-2.493-.549-78.853-64.866-104.124l-7.057 10.015a27.62 27.62 0 0 1-3.972 4.902c-26.792 25.355-48.174-14.917-48.174-14.917-65.627 19.65-59.795 74.29-65.796 104.124-3.127 15.593 16.48 9.127 35.37 7.775 8.156-.549 9.635-13.353 9.762-23.411a.55.55 0 0 1 1.099-.042l2.24 22.566a35.793 35.793 0 0 1-3.466 19.185" fill="#0F62FE"/>
    <path d="M93.179 128.729s12.339 6.001 18.255-29.496l18.551-1.225s1.141 34.271 22.397 30.721c0 0-26.792 53.921-59.203 0zM167.002 47.636a.844.844 0 0 1-.845-.76c-2.62-25.313-23.749-31.778-23.96-31.82a.846.846 0 0 1-.549-1.057.798.798 0 0 1 .688-.62.806.806 0 0 1 .326.029c.253.084 5.705 1.732 11.578 6.634 5.874 4.902 12.171 12.846 13.608 26.665a.858.858 0 0 1-.187.623.855.855 0 0 1-.574.306h-.085zM167.341 66.06a.843.843 0 0 1-.845-.844V53.595a.844.844 0 0 1 .845-.845.847.847 0 0 1 .845.845v11.62a.847.847 0 0 1-.845.846zM77.923 42.988h-.211a.887.887 0 0 1-.592-1.056C81.261 27.69 91.784 19.958 92.206 19.62a.846.846 0 0 1 1.183.21.846.846 0 0 1-.168 1.184c-.127.042-10.523 7.733-14.495 21.383a.76.76 0 0 1-.803.591zM75.98 56.975a.887.887 0 0 1-.845-.676 15.678 15.678 0 0 1 0-7.141.844.844 0 0 1 1.014-.634.802.802 0 0 1 .634 1.014 14.79 14.79 0 0 0 0 6.381.804.804 0 0 1-.634 1.014l-.17.042zM241.292 177.241c11.917 82.192-20.621 87.685-40.947 71.923-9.931-7.691-16.777-19.438-18.552-23.707a1.397 1.397 0 0 1 .846-1.901c4.141-1.395 16.184-5.874 20.706-12.17" fill="#fff"/>
    <path d="M218.516 257.066c-6.043 0-12.55-2.451-18.72-7.226-10.522-8.198-17.284-20.41-18.805-24.044a2.457 2.457 0 0 1 .042-1.818 2.332 2.332 0 0 1 1.31-1.225c3.677-1.226 15.889-5.705 20.284-11.875a.849.849 0 0 1 1.183-.169.865.865 0 0 1 .232.239.86.86 0 0 1 .114.641.855.855 0 0 1-.134.304c-4.564 6.381-16.312 10.86-21.129 12.466a.84.84 0 0 0-.338.338.706.706 0 0 0 0 .422c1.859 4.437 8.789 16.016 18.297 23.369 9.508 7.353 19.397 8.832 27.045 4.395 7.649-4.437 20.495-20.833 12.551-75.557a.801.801 0 0 1 .718-.93.854.854 0 0 1 .637.155.846.846 0 0 1 .335.563c3.212 22.228 3.423 40.314.55 53.71-2.494 11.663-7.184 19.566-13.946 23.538a20.735 20.735 0 0 1-10.226 2.704z" fill="#343A3F"/>
    <path d="M274 256.221H0v1.691h274v-1.691z" fill="#343A3F"/>
    <path d="M239.772 179.904s13.649-29.116 0-30.046c0 0 4.521-13.86-7.776-12.086 0 0-.127-19.607-19.438-14.747 0 0-1.944 10.733-11.621 4.521 0 0-8.621-13.1-10.607-.634-.38 2.282 10.649 11.283 12.593 14.875 5.155 9.593 8.747 27.932 7.522 47.075-.507 8.198-1.184 18.594-1.015 27.299l30.342-36.257z" fill="#fff"/>
    <path d="M215.304 121.926c6.888-3.001 3.423 13.776-3.803 19.227a3.179 3.179 0 0 1-2.663.549c-1.732-.465-4.606-3.761-2.789-8.832" fill="#fff"/>
    <path d="M209.599 142.632a3.55 3.55 0 0 1-.972-.127c-1.141-.295-2.366-1.394-3.127-2.831-.761-1.437-1.183-4.521-.254-7.057a.853.853 0 0 1 .398-.604.847.847 0 0 1 1.034.121.852.852 0 0 1 .247.68.841.841 0 0 1-.115.352c-.93 2.663-.423 4.607.169 5.748s1.479 1.817 2.071 1.943a2.33 2.33 0 0 0 1.943-.38c5.409-4.099 8.452-14.579 6.719-17.495-.169-.253-.549-.929-2.07-.295a.846.846 0 0 1-.676-1.522c2.62-1.141 3.845.296 4.225.972 2.24 3.846-1.31 15.255-7.183 19.692a3.93 3.93 0 0 1-2.409.803z" fill="#343A3F"/>
    <path d="M225.192 129.912c10.142-3.676 1.521 19.566-7.86 22.101 0 0-4.733.507-4.606-4.986" fill="#fff"/>
    <path d="M217.037 152.859a5.199 5.199 0 0 1-3.55-1.268c-1.099-1.014-1.648-2.578-1.606-4.564a.846.846 0 0 1 .845-.845h.043a.886.886 0 0 1 .802.887c-.042 1.479.339 2.578 1.057 3.254a3.63 3.63 0 0 0 2.535.845c4.902-1.394 9.889-9.127 11.368-15.297.591-2.493.465-4.437-.338-5.156-.803-.718-1.86-.338-2.747 0a.85.85 0 0 1-1.037-1.176.846.846 0 0 1 .488-.429c1.901-.677 3.38-.55 4.437.338 1.056.887 1.605 3.549.845 6.803-1.395 5.916-6.55 14.917-12.635 16.565h-.507v.043z" fill="#343A3F"/>
    <path d="M234.616 139.843c9.592-1.859 2.958 20.918-11.368 21.974 0 0-6.338.212-5.62-5.578" fill="#fff"/>
    <path d="M223.206 162.662c-.634 0-3.508-.127-5.198-1.986-1.056-1.141-1.437-2.662-1.225-4.522a.839.839 0 0 1 .599-.729.837.837 0 0 1 .33-.031.929.929 0 0 1 .761.972c-.169 1.352.085 2.408.761 3.169 1.352 1.479 3.972 1.437 3.972 1.437 6.803-.507 11.621-6.254 13.691-11.029 1.564-3.635 1.818-7.058.634-8.579-.591-.718-1.521-.929-2.789-.676a.847.847 0 0 1-.972-.676.89.89 0 0 1 .676-1.014c2.367-.465 3.719.465 4.395 1.31 1.648 2.028 1.479 6-.38 10.311-2.366 5.451-7.606 11.494-15.171 12.043h-.084z" fill="#343A3F"/>
    <path d="m211.332 126.49-21.467-28.482-8.663 8.958 24.256 25.355a1.652 1.652 0 0 0 1.564.423c1.141-.338 3.127-1.353 4.521-4.691a1.598 1.598 0 0 0-.211-1.563z" fill="#fff"/>
    <path d="M206.598 133.631a2.323 2.323 0 0 1-1.732-.76l-24.805-25.904 9.888-10.269 22.058 29.285a2.4 2.4 0 0 1 .339 2.366c-1.564 3.761-3.888 4.86-5.114 5.198a1.642 1.642 0 0 1-.634.084zm-24.213-26.664 23.706 24.763a.793.793 0 0 0 .676.211c.972-.253 2.705-1.141 4.015-4.226a.72.72 0 0 0-.127-.718L189.78 99.276l-7.395 7.691z" fill="#343A3F"/>
    <path d="M87.306 55.412c-4.522 2.916-5.959 4.648-5.367 10.015.38 3.127 2.831 8.579 5.367 10.438 2.535 1.86 4.394 1.817 5.409 2.789 2.408 2.324 2.535 4.817 2.83 7.353.761 6.338 6.635 10.31 12.129 13.607 8.747 5.24 20.96 3.803 28.27-3.296 4.142-4.015 7.734-8.917 9.255-14.495 1.859-6.888 8.789-12.17 8.958-12.423 1.86-3.254 2.705-5.832 2.282-9.593-.549-4.902-7.479-9.128-11.451-12.044-9.213-6.845-16.27-14.03-24.89-22.523a3.087 3.087 0 0 0-4.649.423c-6.127 8.409-6.719 15.255-22.734 24.551" fill="#fff"/>
    <path d="M119.209 103.417h-.253c-13.523-.127-20.157-8.325-23.369-15.17a42.342 42.342 0 0 1-3.719-14.918.805.805 0 0 1 .803-.845h.042a.803.803 0 0 1 .846.803A41.54 41.54 0 0 0 97.15 87.57c4.353 9.297 11.706 14.072 21.806 14.156h.295c10.734 0 18.552-5.578 23.2-16.607 3.507-8.367 3.761-16.86 3.803-16.945a.85.85 0 0 1 .182-.71.856.856 0 0 1 .669-.3.849.849 0 0 1 .652.334.85.85 0 0 1 .145.718 53.61 53.61 0 0 1-3.888 17.58c-4.859 11.536-13.438 17.621-24.805 17.621z" fill="#343A3F"/>
    <path d="M92.164 78.654a10.268 10.268 0 0 1-6.254-2.155c-2.62-2.113-4.226-5.494-4.733-10.058-.803-7.226 1.31-8.832 3.212-10.268 1.901-1.437 2.535-1.944 2.155-5.874a.887.887 0 0 1 .76-.93.846.846 0 0 1 .93.76c.465 4.86-1.31 6.213-2.831 7.396-1.522 1.183-3.212 2.45-2.536 8.705 1.268 11.536 9.424 10.776 9.762 10.733a.803.803 0 0 1 .93.719.846.846 0 0 1-.761.93l-.634.042zM104.462 65.723c1.027 0 1.859-1.268 1.859-2.831 0-1.564-.832-2.832-1.859-2.832-1.027 0-1.859 1.268-1.859 2.831 0 1.564.832 2.832 1.859 2.832zM99.77 57.187a1.1 1.1 0 0 1-1.014-.803 1.057 1.057 0 0 1 .76-1.31l9.34-2.451a1.014 1.014 0 0 1 1.267.718 1.053 1.053 0 0 1-.718 1.31l-9.339 2.494-.296.042zM115.026 78.654h-.042c-1.859-.17-3.042-.803-3.465-1.944-.93-2.409 2.24-5.832 2.916-6.466a.843.843 0 0 1 1.183-.042.885.885 0 0 1 0 1.226c-1.225 1.267-2.916 3.676-2.493 4.69.422 1.014 1.31.803 1.944.845a.805.805 0 0 1 .803.888.889.889 0 0 1-.846.803z" fill="#343A3F"/>
    <path d="M165.525 111.53c24.249 0 43.906-19.657 43.906-43.906 0-24.248-19.657-43.906-43.906-43.906s-43.906 19.658-43.906 43.906c0 24.249 19.657 43.906 43.906 43.906z" fill="#fff"/>
    <path d="M165.525 112.418c-24.679 0-44.752-20.115-44.752-44.794a44.75 44.75 0 0 1 44.752-44.75 44.75 44.75 0 0 1 44.751 44.75c0 24.679-20.073 44.794-44.751 44.794zm0-87.854a43.105 43.105 0 0 0-43.061 43.06c0 23.75 19.312 43.103 43.061 43.103 23.748 0 43.06-19.354 43.06-43.103a43.102 43.102 0 0 0-43.06-43.06z" fill="#343A3F"/>
    <path d="M165.523 103.966c19.628 0 35.539-15.911 35.539-35.539 0-19.627-15.911-35.539-35.539-35.539-19.627 0-35.539 15.912-35.539 35.54 0 19.627 15.912 35.538 35.539 35.538z" fill="#fff"/>
    <path d="M165.525 104.811a36.38 36.38 0 0 1-33.615-22.46 36.381 36.381 0 0 1 7.887-39.651 36.389 36.389 0 0 1 39.651-7.887 36.381 36.381 0 0 1 22.461 33.614 36.43 36.43 0 0 1-36.384 36.384zm0-71.077a34.693 34.693 0 1 0 34.693 34.693 34.735 34.735 0 0 0-34.693-34.693z" fill="#343A3F"/>
    <path d="M138.226 65.808c2.077 0 3.761-2.574 3.761-5.748 0-3.174-1.684-5.747-3.761-5.747s-3.761 2.573-3.761 5.747 1.684 5.748 3.761 5.748z" fill="#343A3F"/>
    <path d="M149.213 100.036s24.509-28.313 8.325-66.26z" fill="#fff"/>
    <path d="M149.213 100.881a.846.846 0 0 1-.634-1.394c.043-.085 6.085-7.142 10.1-18.72 3.676-10.607 6.339-27.341-1.902-46.653a.846.846 0 0 1 .423-1.099.842.842 0 0 1 .947.147.86.86 0 0 1 .194.276c8.451 19.86 5.705 37.06 1.901 47.962-4.099 11.833-10.141 18.89-10.395 19.185a.888.888 0 0 1-.634.296z" fill="#343A3F"/>
    <path d="M62.753 240.628s.634 12.889 0 16.438z" fill="#fff"/>
    <path d="M62.752 257.912h-.126a.887.887 0 0 1-.676-1.015c.591-3.422 0-16.1-.043-16.227a.802.802 0 0 1 .803-.845.8.8 0 0 1 .888.803c.042.507.633 12.973 0 16.565a.843.843 0 0 1-.846.719zM112.026 94.374c-1.648 0-3.001-1.648-3.001-3.634 0-1.987 1.353-3.677 3.001-3.677s3 1.648 3 3.677c0 2.028-1.352 3.634-3 3.634zm0-5.62c-.719 0-1.31.93-1.31 1.986s.591 1.943 1.31 1.943c.718 0 1.31-.887 1.31-1.944 0-1.056-.592-1.986-1.31-1.986zM228.32 171.79a16.393 16.393 0 0 1-2.028-.169c-3.677-.549-6.001-1.564-6.93-3a2.2 2.2 0 0 1-.339-1.817l1.606.464a.752.752 0 0 0 .212.55c.422.591 1.69 1.606 5.662 2.155l1.775.127c7.48 0 13.311-6.804 14.748-10.649a5.154 5.154 0 0 0-1.226-5.494.819.819 0 0 1-.202-.261.816.816 0 0 1-.023-.647.823.823 0 0 1 .183-.275.846.846 0 0 1 1.183-.085c.127.127 3.297 3.043 1.648 7.353-1.648 4.311-7.902 11.748-16.269 11.748z" fill="#343A3F"/>
    <path d="M240.362 178.213a1.95 1.95 0 0 1-.972-.211.841.841 0 0 1-.47-.821.857.857 0 0 1 .09-.32.8.8 0 0 1 1.141-.338c.42.04.843-.033 1.225-.211 1.902-.803 4.099-2.789 4.31-3.423a.722.722 0 0 0-.126-.719l-5.071-7.395a.812.812 0 0 1-.018-.914.812.812 0 0 1 .229-.227.84.84 0 0 1 .636-.141.835.835 0 0 1 .547.353l5.071 7.352a2.624 2.624 0 0 1 .338 2.24c-.465 1.31-3.169 3.592-5.282 4.437a4.265 4.265 0 0 1-1.648.338z" fill="#343A3F"/>
    <path d="M239.771 178.086a.892.892 0 0 1-.677-.338l-5.197-7.564a.853.853 0 0 1 .211-1.183.853.853 0 0 1 1.183.211l5.198 7.564c.062.094.105.2.127.31a.858.858 0 0 1-.138.642.836.836 0 0 1-.707.358z" fill="#343A3F"/>
    <path d="M165.778 277.646c10.175 0 18.424-8.154 18.424-18.213 0-10.059-8.249-18.213-18.424-18.213-10.176 0-18.424 8.154-18.424 18.213 0 10.059 8.248 18.213 18.424 18.213z" fill="#fff"/>
    <path d="M165.989 278.491h-1.352l-7.776-.93 6.254-.76v-.211l.719.084a17.28 17.28 0 0 0 15.128-17.241c0-9.043-5.916-16.1-14.367-17.115l-6.931-.802 6.931-.846.338-.126c.324-.12.668-.177 1.014-.169a19.062 19.062 0 0 1 14.26 6.366 19.05 19.05 0 0 1 4.714 14.889 19.143 19.143 0 0 1-18.932 16.861zm6.127-35.285c5.24 3.254 8.536 9.17 8.536 16.227a19.142 19.142 0 0 1-9.634 16.649 17.824 17.824 0 0 0 5.789-3.084 17.123 17.123 0 0 0 6.423-11.579 17.235 17.235 0 0 0-4.31-13.565 17.797 17.797 0 0 0-6.804-4.648z" fill="#343A3F"/>
    <path d="M164.89 278.407h-1.014c-9.593 0-17.368-8.536-17.368-18.974s7.648-19.058 17.072-19.058c.692 0 1.384.042 2.071.126 8.536 1.184 15.001 9.297 15.001 18.932 0 9.635-6.465 17.79-15.001 18.931l-.761.043zm-1.31-36.342c-8.494 0-15.382 7.818-15.382 17.368 0 9.55 7.057 17.283 15.678 17.283h.634c.296.027.595.013.887-.042 7.733-1.014 13.565-8.451 13.565-17.241s-5.832-16.185-13.565-17.241a12.994 12.994 0 0 0-1.817-.127z" fill="#343A3F"/>
    <path d="M163.58 273.42c-6.93 0-12.551-6.254-12.551-13.987 0-7.733 5.621-13.945 12.551-13.945l1.521.084c6.254.845 10.987 6.804 10.987 13.861s-4.733 13.015-10.987 13.86a9.228 9.228 0 0 1-1.521.127zm0-26.242c-6.001 0-10.86 5.494-10.86 12.255 0 6.761 4.859 12.297 10.86 12.297l1.268-.085c5.451-.76 9.55-6 9.55-12.212s-4.099-11.452-9.55-12.17a6.339 6.339 0 0 0-1.268-.085zM181.244 250.854h-3.803a.849.849 0 0 1-.598-.247.849.849 0 0 1 0-1.195.846.846 0 0 1 .598-.248h3.803a.846.846 0 0 1 0 1.69zM182.723 255.165h-3.592a.841.841 0 0 1-.597-.248.841.841 0 0 1 0-1.195.846.846 0 0 1 .597-.248h3.592a.847.847 0 0 1 0 1.691zM184.16 260.996h-4.353a.849.849 0 0 1-.598-.247.849.849 0 0 1 0-1.195.846.846 0 0 1 .598-.248h4.353c.224 0 .439.089.597.248a.841.841 0 0 1 0 1.195.845.845 0 0 1-.597.247zM182.47 267.082h-3.846a.841.841 0 0 1-.597-.248.841.841 0 0 1 0-1.195.841.841 0 0 1 .597-.248h3.846a.846.846 0 0 1 0 1.691zM178.624 273.336h-3.718a.846.846 0 0 1 0-1.691h3.718a.844.844 0 0 1 .598 1.443.844.844 0 0 1-.598.248z" fill="#343A3F"/>
    <path d="M164.932 268.011a6.09 6.09 0 0 1-3.592-1.098c-2.028-1.522-3.042-4.564-3.042-9.001.042-3.804.93-6.001 2.704-6.762 2.747-1.183 6.255 1.987 6.635 2.325a.846.846 0 0 1 .042 1.183.805.805 0 0 1-.908.225.808.808 0 0 1-.275-.183c-.803-.718-3.338-2.62-4.818-1.986-1.479.634-1.648 2.282-1.69 5.198 0 3.887.761 6.465 2.367 7.606 1.605 1.141 4.099.718 5.747.211a.8.8 0 0 1 .65.041.793.793 0 0 1 .406.509.801.801 0 0 1-.549 1.056 11.88 11.88 0 0 1-3.677.676z" fill="#343A3F"/>
    <path d="M97.532 229.683S58.4 235.557 59.669 242.53c1.267 6.972 4.014 11.536.295 19.227-1.859 3.845-5.916 8.79-7.014 14.41-1.1 5.62 1.31 12.255 6.719 16.734 10.86 9.001 10.564 16.016 60.978 0 0 0 17.917-4.564 10.226-19.439-7.691-14.874-11.156-7.986-4.226-28.017 0 0 3.17-8.282-6.803-6.93 0 0-7.945.338-10.311-3.423-2.367-3.761-4.057-9.465-12.001-5.409z" fill="#fff"/>
    <path d="M72.769 268.18s6.592-15.931 11.536-17.325c4.944-1.395 35.497-10.185 37.441-7.987 1.943 2.197-.846 16.776-4.945 17.621-4.099.845-32.2 9.635-30.256 11.833 1.944 2.197 31.059-5.494 33.806-3.846 2.747 1.648 10.057 10.734 2.028 20.326-8.029 9.593-45.47 16.396-48.765 13.649-3.296-2.746-17.072-18.044-15.974-22.692 1.099-4.648-1.394-9.846 3.592-7.564 4.987 2.282 8.579 2.366 11.537-4.015z" fill="#343A3F"/>
    <path d="M78.81 303.761c-5.155 0-10.014-.803-12.677-3.338-10.1-9.55-18.044-17.072-12.55-28.566 5.155-10.818 7.987-15.847 8.029-15.932a.802.802 0 0 1 1.14-.295.845.845 0 0 1 .339 1.141c-.042.042-2.831 5.07-7.987 15.804-5.155 10.733 2.24 17.199 12.213 26.622 3.38 3.212 12.55 3.761 25.1 1.437 17.369-3.169 36.089-10.818 38.456-15.762 3.211-6.55-1.395-12.635-5.114-17.495a42.477 42.477 0 0 1-2.831-4.014c-1.648-2.832-.084-7.945 1.437-12.931 1.352-4.31 2.873-9.255 1.183-10.438-3.296-2.366-23.411 2.113-33.088 4.268l-4.944 1.057c-8.578 1.817-16.396 16.522-16.48 16.649a.844.844 0 1 1-1.48-.76c.338-.634 8.24-15.551 17.622-17.537l4.902-1.057c15.466-3.465 30.848-6.592 34.44-4.014 2.662 1.901 1.099 6.972-.549 12.339-1.353 4.395-2.874 9.381-1.564 11.579a36.817 36.817 0 0 0 2.705 3.845c3.761 4.944 8.916 11.748 5.282 19.227-2.958 6.128-23.284 13.734-39.68 16.734-3.761.677-8.959 1.437-13.903 1.437z" fill="#343A3F"/>
    <path d="M64.95 263.532a.936.936 0 0 1-.803-.507c-.802-2.029-7.902-19.735-2.281-23.58 5.62-3.846 34.06-9.931 35.961-9.17a.85.85 0 0 1 .563.768.85.85 0 0 1-.056.331.968.968 0 0 1-1.056.507c-1.944-.211-29.412 5.451-34.44 8.958-3.381 2.325-.043 14.41 2.873 21.51a.8.8 0 0 1-.422 1.098l-.339.085zM89.249 228.88c-2.959 0-6.001-.718-7.818-3.084a.847.847 0 0 1 .169-1.184.809.809 0 0 1 .943-.064.81.81 0 0 1 .24.233c3.634 4.733 14.368 1.015 14.452.972a.846.846 0 0 1 1.099.507.89.89 0 0 1-.507 1.099c-.296.085-4.353 1.521-8.578 1.521z" fill="#343A3F"/>
    <path d="M83.882 243.375a.846.846 0 0 1-.296-1.648c4.268-1.564 14.495-5.113 16.65-3.972h.127c.676-.296 1.521-2.494 1.944-4.395a.841.841 0 0 1 .971-.634.888.888 0 0 1 .677 1.014c-.169.761-1.099 4.733-2.874 5.536a1.731 1.731 0 0 1-1.648-.042c-1.141-.507-8.832 1.732-15.297 4.099l-.254.042zM66.05 271.476a4.394 4.394 0 1 0 0-8.788 4.394 4.394 0 0 0 0 8.788zM80.543 226.641a4.395 4.395 0 1 0 0-8.79 4.395 4.395 0 0 0 0 8.79z" fill="#343A3F"/>
    <path d="M103.109 234.078a4.395 4.395 0 1 0 0-8.79 4.395 4.395 0 0 0 0 8.79z" fill="#343A3F"/>
    <path d="m95.376 310.48-.887-1.014a9.46 9.46 0 0 1-1.479-3.423c-.972-4.69 1.479-10.353 6.592-14.029 5.113-3.677 12.213-4.437 16.312-1.395a8.848 8.848 0 0 1 1.859 1.902c.274.349.502.732.676 1.141 2.578 4.944.169 11.959-5.747 16.311-5.916 4.353-13.396 4.437-17.326.507z" fill="#fff"/>
    <path d="M102.941 314.157c-3.17 0-6.085-1.014-8.156-3.085-.346-.346-.67-.713-.972-1.099a10.686 10.686 0 0 1-1.521-3.211 1.014 1.014 0 0 1 .422-1.099 1.018 1.018 0 0 1 1.184-.042c3.93 2.578 10.057 1.944 14.917-1.606 4.859-3.55 7.226-8.747 6.254-13.227l-.465-2.155 1.817 1.31a9.419 9.419 0 0 1 2.028 2.071c.285.403.539.827.761 1.268 2.789 5.366.169 12.846-6.043 17.368a17.667 17.667 0 0 1-10.226 3.507zm-8.41-6.254c.212.338.423.718.677 1.056.23.328.484.639.76.93 3.719 3.676 10.691 3.423 16.227-.592 5.536-4.056 7.902-10.606 5.536-15.255-.211-.338-.38-.676-.634-1.056l-.127-.127c-.042 4.479-2.704 9.297-7.141 12.508-4.437 3.212-10.86 4.437-15.297 2.536z" fill="#343A3F"/>
    <path d="M99.56 308.917a11.579 11.579 0 0 1-7.057-2.198l-.254-.211-.084-.296c-1.056-5.113 1.732-11.113 6.93-14.917 5.198-3.803 12.804-4.69 17.326-1.352l.253.211v.296c1.099 5.113-1.69 11.114-6.888 14.917-3.169 2.324-6.845 3.55-10.226 3.55zm-5.79-3.381c3.93 2.705 10.058 2.113 15.045-1.521 4.606-3.338 7.099-8.494 6.338-12.889-3.93-2.704-10.057-2.07-15.086 1.564s-7.057 8.451-6.296 12.846z" fill="#343A3F"/>
    <path d="M116.252 303.381a.848.848 0 0 1-.761-.507l-1.775-3.719a.863.863 0 0 1 .423-1.141.863.863 0 0 1 1.141.423l1.732 3.719a.883.883 0 0 1-.422 1.14l-.338.085zM112.068 306.973a.852.852 0 0 1-.719-.465l-1.394-2.493a.846.846 0 0 1 .338-1.183.89.89 0 0 1 .636-.051c.21.063.39.201.505.389l1.394 2.535a.84.84 0 0 1-.338 1.141.714.714 0 0 1-.422.127zM104.674 311.452a.81.81 0 0 1-.761-.465l-1.563-3a.85.85 0 1 1 1.521-.761l1.521 3.001a.844.844 0 0 1-.338 1.141l-.38.084zM97.87 305.367c-.677 0-1.86-.296-2.283-1.31-.422-1.014.719-4.057 4.395-7.691 3.677-3.634 6.761-5.367 9.212-5.155a3.424 3.424 0 0 1 2.451 1.183.887.887 0 0 1-.211 1.183.845.845 0 0 1-1.141-.169 1.859 1.859 0 0 0-1.31-.507c-1.099-.084-3.55.465-7.818 4.648-4.268 4.184-4.099 5.705-4.014 5.832.084.127.592.296.718.296h.043a.884.884 0 0 1 .845.803.928.928 0 0 1-.846.887h-.042z" fill="#343A3F"/>
    <path d="M232.164 307.734a14.215 14.215 0 0 0-.085-1.902 11.662 11.662 0 0 0-1.69-5.029c-3.423-5.831-11.452-9.423-20.326-8.451-9.592 1.014-17.072 7.057-18.467 14.156a12.421 12.421 0 0 0-.126 3.761c.047.63.16 1.253.338 1.86 2.07 7.648 11.283 12.761 21.678 11.62 10.395-1.14 18.298-8.071 18.678-16.015z" fill="#fff"/>
    <path d="M210.613 324.763c-9.466 0-17.622-5.028-19.608-12.423a13.833 13.833 0 0 1-.38-1.986 12.79 12.79 0 0 1 .085-3.592.971.971 0 0 1 .802-.803.977.977 0 0 1 1.015.422c3.465 5.536 11.198 8.663 19.354 7.776 8.916-.972 16.184-6.423 17.663-13.269a.935.935 0 0 1 .761-.761 1.011 1.011 0 0 1 .972.465 13.183 13.183 0 0 1 1.648 5.155c.07.674.098 1.352.085 2.029-.423 8.451-8.748 15.635-19.439 16.818-.972.085-1.986.169-2.958.169zm-18.382-15.888c0 .422 0 .845.042 1.267.042.423.211 1.226.338 1.775 1.986 7.353 10.903 12.086 20.791 10.987 9.846-1.056 17.537-7.606 17.917-15.213a13.14 13.14 0 0 0-.084-1.774 10.362 10.362 0 0 0-.634-2.747c-2.451 6.634-9.762 11.705-18.551 12.635-7.945.887-15.678-1.86-19.819-6.93z" fill="#343A3F"/>
    <path d="M209.134 315.974c-7.86 0-14.959-3.423-18.255-9.043l-.169-.254.084-.338c1.48-7.649 9.382-13.776 19.186-14.832 8.958-.972 17.452 2.577 21.171 8.874l.127.253v.338c-1.48 7.691-9.382 13.776-19.186 14.833a22.49 22.49 0 0 1-2.958.169zm-16.607-9.593c3.423 5.536 11.156 8.663 19.354 7.776 8.917-.972 16.143-6.381 17.622-13.185-3.423-5.578-11.156-8.662-19.354-7.775-8.917.972-16.143 6.339-17.622 13.184z" fill="#343A3F"/>
    <path d="M201.781 322.397a.846.846 0 0 1-.845-.718l-.845-7.818a.801.801 0 0 1 .718-.93.856.856 0 0 1 .624.187.838.838 0 0 1 .306.574l.887 7.775a.842.842 0 0 1-.443.834.84.84 0 0 1-.317.096h-.085zM210.444 323.918a.847.847 0 0 1-.845-.761l-.972-7.902a.93.93 0 0 1 .76-.972.86.86 0 0 1 .624.187.838.838 0 0 1 .306.574l.972 7.944a.84.84 0 0 1-.443.834.822.822 0 0 1-.318.096h-.084zM222.953 321.636a.843.843 0 0 1-.845-.676l-1.648-8.663a.89.89 0 0 1 .676-1.014.843.843 0 0 1 .972.676l1.69 8.705a.847.847 0 0 1-.676.972h-.169zM198.992 304.987a.842.842 0 0 1-.845-.761c-.042-.169-.169-1.69 1.31-3.254 2.324-2.493 7.142-3.634 14.368-3.296 7.226.338 10.86 1.479 11.621 3.634.507 1.353-.465 2.663-1.099 3.212a.846.846 0 0 1-1.099-1.268s.846-.76.592-1.394c-.254-.634-1.395-2.155-10.1-2.493-8.705-.339-11.621 1.267-12.973 2.704-1.352 1.437-.93 1.944-.93 1.986a.885.885 0 0 1-.76.93h-.085z" fill="#343A3F"/>
    <path d="M124.576 164.015c-3.676 0-5.704-2.451-6.634-4.142-1.014 1.184-3.085 2.62-7.015 2.198-5.493-.634-6.677-5.536-6.888-7.987-1.563.634-4.69 1.69-7.31-.422-1.987-1.606-2.705-4.057-1.987-6.804-2.197.254-6.085-.254-8.451-2.831-2.367-2.578-2.493-5.029-1.606-8.79-2.113.423-4.522.465-5.536-.887-1.014-1.353-.507-2.494.676-4.395l1.437.887c-1.099 1.775-.845 2.367-.76 2.494.084.126 1.901.718 4.563.084a1.271 1.271 0 0 1 1.141.338 1.353 1.353 0 0 1 .296 1.183c-.972 3.508-.591 6.17 1.014 7.945 1.606 1.775 5.832 2.535 7.31 2.282a1.352 1.352 0 0 1 1.352.422 1.483 1.483 0 0 1 .297 1.395c-.465 1.563-.634 3.761 1.31 5.367 1.944 1.605 4.437.718 6.127-.085l.169-.084a1.059 1.059 0 0 1 1.057.084 1.23 1.23 0 0 1 .549.93c.042 1.521.55 6.634 5.409 7.184 3.803.422 5.367-1.141 5.959-2.113a1.098 1.098 0 0 1 1.056-.55c.2.002.395.064.561.176.165.113.294.273.369.458.591 1.268 2.282 4.184 5.916 3.972 3.634-.211 4.395-2.282 4.733-3.549a1.051 1.051 0 0 1 .803-.803 1.269 1.269 0 0 1 1.141.338c1.225 1.394 4.521 4.395 8.493 2.071 3.973-2.325 3.043-4.311 2.198-5.959a1.224 1.224 0 0 1 .169-1.31 1.188 1.188 0 0 1 1.268-.253c1.943.76 6.423 1.479 7.648.042 1.226-1.437-.422-5.156-1.056-6.17a1.35 1.35 0 0 1-.085-1.141 1.272 1.272 0 0 1 .888-.718c1.225-.254 5.24-1.31 6.634-4.141.761-1.606.592-3.592-.507-5.874a1.345 1.345 0 0 1 .127-1.437 1.394 1.394 0 0 1 1.394-.507c1.606.296 5.452.803 5.874-1.395l1.648.338c-.507 2.494-3.127 3.508-7.268 2.79 1.099 2.577 1.183 4.859.253 6.803-1.521 3.085-5.197 4.437-7.183 4.944 1.014 1.86 2.535 5.367.591 7.607-1.944 2.239-6.169 1.436-8.451.803.549 1.774.633 4.775-3.297 7.057-3.929 2.282-8.24-.085-9.972-1.733-.634 1.521-2.198 3.676-5.959 3.888h-.465zM68.12 119.39a12.891 12.891 0 0 1-5.705-1.479l-.17-.084a.894.894 0 0 1-.59-.845.844.844 0 0 1 .844-.846c.258.021.506.108.719.254 5.493 2.831 10.564 1.014 14.663-5.282a.844.844 0 0 1 1.412-.027.803.803 0 0 1-.017.914c-3.127 4.902-6.973 7.395-11.156 7.395z" fill="#fff"/>
    <path d="M206.81 221.063h-.127a.89.89 0 0 1-.719-.972c.127-.592 8.917-61.781-4.352-78.642-.085-.085-6.761-8.621-10.227-11.114-2.45-1.775-2.366-5.24-.929-7.437 1.437-2.198 3.592-2.705 5.747-1.437a.797.797 0 0 1 .397.506.806.806 0 0 1-.101.635.848.848 0 0 1-1.141.296c-1.902-1.099-3.085.253-3.508.887-1.014 1.606-1.056 4.057.507 5.156 3.677 2.662 10.311 11.113 10.565 11.451 13.734 17.453 5.113 77.417 4.733 79.952a.848.848 0 0 1-.845.719z" fill="#343A3F"/>
</svg>
