<svg width="416" height="335" viewBox="0 0 416 335" fill="none" xmlns="http://www.w3.org/2000/svg">
    <path d="M164.842 164.931h-.223c-4.523-.089-6.718-3.224-7.658-5.284-1.209 1.209-3.672 2.732-8.15 1.881-6.225-1.119-7.031-6.986-7.076-9.673-1.478.314-4.12.358-6.807-2.149-4.075-3.852-2.508-7.972-2.463-8.151a.9.9 0 0 1 1.145-.443.897.897 0 0 1 .512 1.115c-.045.134-1.119 3.18 2.06 6.18 2.508 2.329 4.836 1.836 5.732 1.523a1.255 1.255 0 0 1 1.12.134 1.292 1.292 0 0 1 .492 1.075c-.089 1.746.09 7.613 5.598 8.643 4.344.806 6.225-.851 6.986-1.926a1.207 1.207 0 0 1 1.164-.493 1.257 1.257 0 0 1 .986.762c.537 1.477 2.239 4.97 6.403 5.015 4.165.045 5.24-2.239 5.688-3.627a1.119 1.119 0 0 1 .94-.806 1.247 1.247 0 0 1 1.209.448c1.254 1.701 4.792 5.373 9.494 3.045 3.986-1.926 3.851-4.658 3.045-6.628a1.259 1.259 0 0 1 .314-1.388 1.158 1.158 0 0 1 1.343-.179c2.15 1.03 7.21 2.239 8.777.671 1.568-1.567-.089-6.179-.985-7.657a.912.912 0 0 1 1.005-1.357.91.91 0 0 1 .562.416c.135.269 3.852 6.673.672 9.897-2.239 2.239-7.165.985-9.628.09.448 2.015.403 5.508-4.299 7.747s-9.359-.851-11.106-2.821c-.806 1.657-2.687 3.94-6.852 3.94zM264.975 38.602a.847.847 0 0 1-.717-.403l-4.881-7.524a.9.9 0 0 1-.01-.597.9.9 0 0 1 .951-.605.898.898 0 0 1 .537.262l4.881 7.479a.893.893 0 0 1-.761 1.388zM256.108 48.14a.944.944 0 0 1-.806-.492.941.941 0 0 1 .447-1.21l6.762-3.313a.907.907 0 0 1 .994.125.911.911 0 0 1 .216.278.91.91 0 0 1-.126.993.894.894 0 0 1-.278.216l-6.806 3.314-.403.09zM272.408 52.932a.897.897 0 0 1-.806-.537l-3.448-7.076a.875.875 0 0 1 .132-.959.87.87 0 0 1 1.435.198l3.493 7.075a.894.894 0 0 1-.403 1.21l-.403.089zM269.945 39.811a.807.807 0 0 1-.761-.492.842.842 0 0 1-.089-.684.854.854 0 0 1 .447-.526l6.001-3.269a.895.895 0 0 1 .851 1.568l-6.001 3.269a.851.851 0 0 1-.448.134zM400.888 60.903a.852.852 0 0 1-.851-.716l-2.015-10.121a.892.892 0 0 1 .716-1.03.805.805 0 0 1 1.03.672l2.015 10.12a.939.939 0 0 1-.716 1.075h-.179zM387.319 67.307a.896.896 0 0 1-.698-1.467.899.899 0 0 1 .608-.324l8.733-.627a.896.896 0 1 1 .089 1.791l-8.687.627h-.045zM402.724 79.443a.85.85 0 0 1-.895-.851l-.717-9.09a.943.943 0 0 1 .851-.941.854.854 0 0 1 .855.472c.051.104.08.218.085.334l.717 9.09a.985.985 0 0 1-.851.986h-.045zM405.68 64.351a.94.94 0 0 1-.896-.806.901.901 0 0 1 .469-.884.9.9 0 0 1 .337-.101l7.882-.94a.939.939 0 0 1 .985.76.983.983 0 0 1-.806 1.03l-7.837.896-.134.045z" fill="#fff"/>
    <path d="M189.159 119.523c-5.553 0-12.091-2.598-19.525-7.837a.937.937 0 0 1-.224-1.254.9.9 0 0 1 .932-.366.887.887 0 0 1 .322.142c10.479 7.389 18.898 9.36 25.033 5.867 15.226-8.599 12.494-47.559 12.494-47.917a.901.901 0 0 1 .47-.884.894.894 0 0 1 .336-.101.94.94 0 0 1 .986.85c.089 1.613 2.776 40.439-13.39 49.619a14.923 14.923 0 0 1-7.434 1.881z" fill="#121619"/>
    <path d="M198.77 81.586c.143-1.378-.48-2.571-1.39-2.665-.91-.094-1.764.946-1.906 2.324-.143 1.378.48 2.57 1.39 2.665.91.094 1.764-.947 1.906-2.324zM180.508 80.33c.143-1.378-.48-2.57-1.39-2.665-.91-.094-1.764.947-1.906 2.324-.142 1.378.48 2.571 1.39 2.665.91.094 1.764-.946 1.906-2.324zM203.355 78.86l-.403-.089-8.061-3.045a1.21 1.21 0 0 1-.672-1.478 1.166 1.166 0 0 1 1.478-.627l8.061 3.045a1.13 1.13 0 0 1 .625.607 1.123 1.123 0 0 1 .002.871 1.074 1.074 0 0 1-1.03.717zM175.769 72.77a1.077 1.077 0 0 1-1.075-.85 1.123 1.123 0 0 1 .806-1.344l6.583-1.657a1.13 1.13 0 0 1 .538 2.195l-6.583 1.656h-.269zM188.935 94.848h-.224a.938.938 0 0 1-.896-.94.908.908 0 0 1 .294-.621.892.892 0 0 1 .647-.23c.895.044 1.522-.135 1.701-.448.179-.314-.806-3-1.791-4.3a.847.847 0 0 1-.175-.305.848.848 0 0 1 .309-.948.898.898 0 0 1 1.254.134c.538.672 3.09 4.075 2.015 6.18-.492.985-1.567 1.478-3.134 1.478zM187.547 106.267c-3.314-.045-9.808-1.702-10.569-7.613a.843.843 0 0 1 .166-.658.85.85 0 0 1 .595-.327.852.852 0 0 1 .986.761c.806 5.867 8.732 6.046 8.822 6.046a.895.895 0 1 1 0 1.791zM242.987 217.64a.898.898 0 0 1-.896-.806c-4.702-40.035-36.228-64.755-54.096-73.084a8.64 8.64 0 0 1-4.926-6.583 56.258 56.258 0 0 1 .313-18.719.842.842 0 0 1 .372-.556.852.852 0 0 1 .658-.116.94.94 0 0 1 .717 1.075 54.238 54.238 0 0 0-.314 18.047 6.902 6.902 0 0 0 3.941 5.239c2.642 1.254 16.48 8.061 29.825 21.988 14.464 15.137 22.973 32.825 25.302 52.529a.944.944 0 0 1-.806.986h-.09z" fill="#121619"/>
    <path d="M157.498 92.475s-5.777-8.016-4.075-10.882c.761-1.165 2.955-3.225 6.493-.583 7.792 5.822 13.658-11.598 17.51-17.106 2.373-3.449 6.135-.493 7.21.313 6.448 4.97 18.047 2.956 24.809 3.851a3.18 3.18 0 0 0 3.582-3.134c-.044-5.867-3.358-16.122-9.046-22.302-8.598-9.314-33.183-19.48-51.947 5.464-14.151 18.898-8.284 32.825-4.612 38.467a9.362 9.362 0 0 0 4.657 3.762l5.419 2.15z" fill="#121619"/>
    <path d="M130.45 142.137a.892.892 0 0 1-.896-.806.987.987 0 0 1 .851-.985c5.284-.403 19.57-2.687 22.301-8.15l5.912-38.557c-1.523-.94-5.822-3.986-6.718-7.792a6.135 6.135 0 0 1 .985-5.016c1.299-1.926 2.777-2.866 4.389-2.732 3.224.269 5.419 4.792 5.643 5.284a.895.895 0 1 1-1.613.762c-.537-1.12-2.328-4.12-4.164-4.254-.941-.09-1.836.582-2.777 1.925a4.354 4.354 0 0 0-.716 3.583c.895 3.851 6.314 6.986 6.404 7.03l.537.27-6.135 40.034v.135c-3.583 7.612-23.063 9.225-23.869 9.269h-.134z" fill="#121619"/>
    <path d="M169.813 157.229c-17.868 0-33.362-15.495-33.989-16.166a.848.848 0 0 1-.204-.97.834.834 0 0 1 .204-.284.894.894 0 0 1 1.253 0c.18.179 16.167 16.121 33.632 15.629 7.926-.269 15.046-3.896 21.137-10.838a.895.895 0 0 1 1.343 1.165c-6.404 7.344-13.972 11.195-22.436 11.464h-.94zM131.346 271.916c-15.137 0-27.407-6.449-37.304-19.525-10.658-14.017-11.15-29.601-10.12-44.335 1.343-19.838 8.195-36.049 22.838-54.186 9.091-11.285 22.973-13.434 23.556-13.524a.908.908 0 0 1 1.013 1.114.898.898 0 0 1-.412.558.9.9 0 0 1-.333.119c-.134 0-13.793 2.15-22.436 12.853-14.598 18.092-21.092 33.452-22.435 53.201-1.03 14.375-.538 29.601 9.762 43.125 10.3 13.524 22.839 18.853 35.871 18.853 17.151 0 35.512-8.598 52.573-16.569 15.182-7.076 29.512-13.793 40.259-12.584 7.703.851 9.494.179 9.852-.045-.627-1.254-7.209-4.568-15.449-6.314-6.673-1.388-11.509-1.03-13.032.94a.895.895 0 0 1-1.254.179.988.988 0 0 1-.179-1.253c3.941-5.24 20.242-1.03 27.496 2.642 3.225 1.612 4.568 3 4.165 4.344-.403 1.343-2.06 2.373-11.822 1.298-9.763-1.075-24.362 5.464-39.274 12.45-14.913 6.986-31.168 14.554-46.887 16.3a63.715 63.715 0 0 1-6.448.359z" fill="#121619"/>
    <path d="M227.537 236.806a10.579 10.579 0 0 1-3.269-.626.894.894 0 0 1-.538-1.12.9.9 0 0 1 1.12-.582c1.388.492 2.956.672 3.359.448.403-.224-.09-1.12-2.598-3.807-6.627-7.299-23.51-3.135-24.898-2.239a.898.898 0 0 1-1.165.134.904.904 0 0 1-.374-.58.907.907 0 0 1 .15-.673c.717-1.075 6.091-2.24 10.434-2.553 5.509-.403 12.987.045 17.197 4.702 2.731 3 3.582 4.792 2.776 6.001-.806 1.209-1.298.895-2.194.895zM147.646 241.688c-11.688 0-24.764-3.448-25.615-13.39a.894.894 0 1 1 1.746-.134c.762 8.643 13.48 12.091 25.705 11.733 12.226-.359 25.526-4.882 25.66-11.733.358-15.36 19.839-16.883 20.062-16.883a.862.862 0 0 1 .645.2.865.865 0 0 1 .296.606.943.943 0 0 1-.851.985c-.716.045-18.047 1.388-18.361 15.137-.179 8.284-13.927 13.031-27.406 13.479h-1.881z" fill="#121619"/>
    <path d="M122.882 229.104a.85.85 0 0 1-.851-.761c-1.344-10.479 1.478-30.497 1.612-31.348a.865.865 0 0 1 .327-.595.846.846 0 0 1 .658-.166.845.845 0 0 1 .595.327.856.856 0 0 1 .167.658c0 .224-2.911 20.645-1.613 30.9a.858.858 0 0 1-.166.658.853.853 0 0 1-.595.327h-.134zM201.429 220.775c-.851 0-1.388-.986-1.702-1.613a3.823 3.823 0 0 0-.582-.895l-.09-.09-11.24-16.077a2.953 2.953 0 0 1 .627-4.075l2.194-1.657a2.817 2.817 0 0 1 2.24-.537 2.873 2.873 0 0 1 1.97 1.209l15.495 21.451a.9.9 0 0 1 .019 1 .905.905 0 0 1-.565.394.888.888 0 0 1-.679-.121.888.888 0 0 1-.253-.243l-15.45-21.451a1.212 1.212 0 0 0-1.702-.269l-2.149 1.657a1.164 1.164 0 0 0-.269 1.612l11.195 15.988c.32.382.591.804.807 1.254.102.218.222.427.358.626a.81.81 0 0 1 .761.493.908.908 0 0 1 .033.7.898.898 0 0 1-.481.509 1.21 1.21 0 0 1-.537.135z" fill="#121619"/>
    <path d="m195.921 199.458-6.314 3.986a1.306 1.306 0 0 1-1.005.192 1.301 1.301 0 0 1-.831-.595l-1.209-1.97a3.765 3.765 0 0 1 1.074-5.106l1.926-1.343a3.85 3.85 0 0 1 5.195.851l1.477 2.015a1.394 1.394 0 0 1 .261 1.052c-.029.183-.095.36-.194.517a1.371 1.371 0 0 1-.38.401z" fill="#fff"/>
    <path d="M232.463 256.107a4.826 4.826 0 0 1-2.687-.806l-10.882-7.434a.94.94 0 0 1-.224-1.253.881.881 0 0 1 .253-.245.882.882 0 0 1 .679-.122.889.889 0 0 1 .322.143l10.837 7.433a3.048 3.048 0 0 0 2.239.404l55.575-9.853a.306.306 0 0 0 .179-.089.306.306 0 0 0 .089-.179c0-.09.045-.269-.134-.358l-34.572-20.779a3.623 3.623 0 0 0-2.552-.448l-21.182 4.344a.9.9 0 0 1-1.03-.717.794.794 0 0 1-.025-.346.81.81 0 0 1 .697-.684l21.181-4.344a5.377 5.377 0 0 1 3.807.627l34.572 20.779a2.153 2.153 0 0 1 .985 2.239 2.059 2.059 0 0 1-1.702 1.702l-55.574 9.897-.851.089z" fill="#121619"/>
    <path d="M263.362 245.002a2.417 2.417 0 0 1-1.522-.538l-4.568-3.672a2.279 2.279 0 0 1-.851-2.194 2.422 2.422 0 0 1 1.523-1.881l7.165-2.687a2.414 2.414 0 0 1 2.194.269l6.897 4.791a2.333 2.333 0 0 1 .94 2.463 2.28 2.28 0 0 1-1.926 1.837l-9.493 1.567-.359.045zm2.553-9.315h-.179l-7.165 2.732a.582.582 0 0 0-.135.985l4.568 3.672a.405.405 0 0 0 .448.134l9.494-1.567a.62.62 0 0 0 .448-.448.582.582 0 0 0-.224-.627l-6.897-4.791a.486.486 0 0 0-.358-.09zM234.433 232.463a.944.944 0 0 1-.895-.717.939.939 0 0 1 .716-1.075l19.346-4.03a.892.892 0 0 1 .931.353.912.912 0 0 1 .144.319.94.94 0 0 1-.717 1.074l-19.346 4.031-.179.045zM241.285 240.568a.89.89 0 0 1-.577-.196.89.89 0 0 1-.318-.52.893.893 0 0 1 .716-1.03l8.822-1.881a.848.848 0 0 1 .688.096.854.854 0 0 1 .387.576.937.937 0 0 1-.672 1.074l-8.867 1.881h-.179z" fill="#121619"/>
    <path d="M263.631 248.539a.89.89 0 0 1-.895-.85l-.807-11.062 15.54 6.539a.89.89 0 0 1 .679.853.9.9 0 0 1-.648.876.895.895 0 0 1-.748-.117l-12.807-5.374.582 8.15a.944.944 0 0 1-.851.985h-.045z" fill="#fff"/>
    <path d="M78.861 238.016H26.735a.896.896 0 0 1 0-1.792H78.86a.896.896 0 0 1 0 1.792zM310.742 233.448H272.14a.896.896 0 1 1 0-1.791h38.602a.895.895 0 1 1 0 1.791z" fill="#121619"/>
    <path d="M411.188 289.828a8.91 8.91 0 0 0 4.523-10.165c-2.374-9.27-6.673-26.825-10.524-46.215-4.747-23.824-11.688-51.678-21.048-53.962-14.822-3.628-28.705 4.433-45.722 9.583-24.406 7.389-44.379 11.464-43.931 21.988l14.644 55.798s-73.622 29.243-76.398 34.751c-2.777 5.508-4.075 10.031 1.836 10.972 5.911.94 85.085 24.674 91.041 21.943 4.926-2.284 65.651-34.214 85.579-44.693z" fill="#fff"/>
    <path d="M329.819 320.459a.851.851 0 0 1-.851-.672l-29.287-101.028a126.303 126.303 0 0 1-1.075-3.851 16.343 16.343 0 0 1 1.523-11.598l.582-1.075a.893.893 0 0 1 1.209-.358.837.837 0 0 1 .447.525.85.85 0 0 1-.089.684l-.582 1.075a14.502 14.502 0 0 0-1.343 10.299c.358 1.389.716 2.732 1.03 3.807l.089.224 29.198 100.804a.894.894 0 0 1-.582 1.119l-.269.045zM339.179 320.594l-1.03-.135a3.989 3.989 0 0 1-2.419-1.836 3.95 3.95 0 0 1-.403-3 3.978 3.978 0 0 1 1.881-2.463l10.076-5.822a4.03 4.03 0 0 1 3.045-.403 4.073 4.073 0 0 1 2.418 1.881 4.03 4.03 0 0 1-1.477 5.419l-10.076 5.866a4.484 4.484 0 0 1-2.015.493zm10.075-12.002a2.461 2.461 0 0 0-1.074.314l-10.076 5.821a2.063 2.063 0 0 0-1.03 1.344 1.97 1.97 0 0 0 .224 1.657c.288.493.752.861 1.298 1.03a2.516 2.516 0 0 0 1.702-.224l10.076-5.822a2.374 2.374 0 0 0 1.03-1.343 2.33 2.33 0 0 0-.224-1.657 2.37 2.37 0 0 0-1.343-1.03l-.583-.09zM396.455 292.157a4.032 4.032 0 0 1-3.449-2.015 3.989 3.989 0 0 1 1.478-5.419l10.076-5.821a3.988 3.988 0 0 1 4.438.268 3.988 3.988 0 0 1 1.429 4.21 4.08 4.08 0 0 1-1.881 2.418l-10.076 5.822a4.119 4.119 0 0 1-2.015.537zm10.12-12.002a2.433 2.433 0 0 0-1.119.269l-10.076 5.822a2.199 2.199 0 0 0-.806 3 2.199 2.199 0 0 0 3 .806l10.076-5.821a2.238 2.238 0 0 0 1.03-1.344 2.161 2.161 0 0 0-.224-1.657 2.105 2.105 0 0 0-1.881-1.075zM358.166 308.189a.894.894 0 0 1-.822-1.28.898.898 0 0 1 .419-.422l29.735-14.644a.903.903 0 0 1 1.258 1.092.904.904 0 0 1-.452.521l-29.735 14.643-.403.09zM265.691 310.159a.937.937 0 0 1-.806-.492.895.895 0 0 1 .403-1.209l47.648-24.675a.897.897 0 0 1 1.209.358.94.94 0 0 1-.358 1.209l-47.693 24.72-.403.089z" fill="#121619"/>
    <path d="M323.057 324.624h-.582l-85.534-21.182a.94.94 0 0 1-.483-1.435.851.851 0 0 1 .931-.311l85.489 21.181a.758.758 0 0 0 .716-.224.666.666 0 0 0 .134-.671L308.1 268.019a.895.895 0 0 1 .627-1.119.896.896 0 0 1 1.119.582l15.629 53.962a2.508 2.508 0 0 1-.627 2.419 2.416 2.416 0 0 1-1.791.761z" fill="#121619"/>
    <path d="M321.803 313.786h-.179l-44.11-9.449a.94.94 0 0 1-.717-1.074.941.941 0 0 1 1.075-.672l44.11 9.449a.851.851 0 0 1 .672 1.075.9.9 0 0 1-.851.671z" fill="#121619"/>
    <path d="M280.335 313.787a.9.9 0 0 1-.858-1.214.893.893 0 0 1 .365-.443l33.99-21.048-7.568-1.88a.904.904 0 0 1-.235-1.65.906.906 0 0 1 .683-.097l8.419 2.105c.276.061.527.205.719.414.193.208.316.47.355.75a1.338 1.338 0 0 1-.671 1.388l-34.751 21.54a.85.85 0 0 1-.448.135z" fill="#121619"/>
    <path d="M293.456 317.369a.804.804 0 0 1-.761-.492.893.893 0 0 1 .313-1.209l22.615-12.539-25.615-5.329a.943.943 0 0 1-.672-1.075.851.851 0 0 1 1.075-.672l27.451 5.687a1.168 1.168 0 0 1 .851.896 1.123 1.123 0 0 1-.537 1.12l-24.272 13.479a.848.848 0 0 1-.448.134zM311.1 321.4a.81.81 0 0 1-.717-.403.912.912 0 0 1-.15-.674.904.904 0 0 1 .374-.58l10.121-6.762a.898.898 0 0 1 1.254.224.899.899 0 0 1-.224 1.253l-10.166 6.807a.891.891 0 0 1-.492.135zM258.302 314.414h-.224l-4.791-1.299a.852.852 0 0 1-.627-1.075.937.937 0 0 1 1.075-.672l4.791 1.254a.94.94 0 0 1 .627 1.12.894.894 0 0 1-.851.672zM303.398 325.923h-.224l-38.737-9.628a.907.907 0 0 1-.558-.399.891.891 0 0 1-.113-.676.938.938 0 0 1 1.119-.672l38.737 9.628a.902.902 0 0 1 .682.725.878.878 0 0 1-.011.35.935.935 0 0 1-.895.672z" fill="#121619"/>
    <path d="M364.425 256.746c6.649-2.754 10.274-9.247 8.098-14.502-2.177-5.256-9.332-7.284-15.982-4.529-6.649 2.754-10.274 9.247-8.098 14.502 2.177 5.256 9.332 7.284 15.982 4.529z" fill="#0F62FE"/>
    <path d="M165.066 40.93s-16.48-6.896-11.643-28.167C158.259-8.51 186.696-.27 192.159 16.21c3.269 9.762-3.761 21.943-8.553 24.72-4.792 2.776-18.54 0-18.54 0z" fill="#121619"/>
    <path d="M168.559 41.11c-4.97 0-7.254-1.389-7.433-1.523a.847.847 0 0 1-.224-1.209.845.845 0 0 1 .891-.4.85.85 0 0 1 .318.131c.089.045 7.881 4.658 27.272-4.523a.899.899 0 0 1 .994.124c.09.078.163.173.215.28a.939.939 0 0 1-.448 1.209c-9.897 4.702-16.927 5.91-21.585 5.91z" fill="#fff"/>
    <path d="M167.305 40.169s6.046-7.165 9.091-6.046c3.045 1.12-1.164 11.33-2.642 11.689-1.478.358-6.449-5.643-6.449-5.643zM167.126 40.08s-4.12-8.464-7.299-8.106c-3.18.358-1.702 11.24-.314 12.001 1.389.762 7.613-3.895 7.613-3.895z" fill="#fff"/>
    <path d="M159.334 26.466a.896.896 0 0 1-.896-.896v-4.12a.896.896 0 0 1 1.792 0v4.12a.896.896 0 0 1-.896.896z" fill="#0F62FE"/>
    <path d="M285.933 111.103c-9.27 0-17.241-3.269-21.361-8.911-4.12-5.643-4.076-11.643-1.03-18.585 2.463-5.732 6.493-9.941 11.956-12.494 8.643-4.03 18.898-2.776 26.78 3.314 6.896 5.284 9.583 12.629 7.479 20.152-2.463 8.643-10.479 15.36-19.525 16.301-1.478.134-2.911.223-4.299.223zm.134-40.527a22.834 22.834 0 0 0-9.807 2.194c-5.061 2.329-8.778 6.225-11.106 11.554-2.777 6.448-2.508 12.225.851 16.838 4.388 6.001 13.613 9.046 24.047 7.926 8.196-.851 15.764-7.165 17.958-14.957 1.164-4.03 1.747-11.688-6.807-18.316a25.031 25.031 0 0 0-15.136-5.24zM313.712 171.321c-9.27 0-17.241-3.269-21.361-8.911-4.12-5.643-4.075-11.644-1.03-18.585 2.463-5.732 6.494-9.941 11.957-12.494 8.643-4.03 18.898-2.777 26.78 3.314 6.896 5.284 9.583 12.628 7.478 20.152-2.463 8.643-10.479 15.36-19.525 16.3-1.477.135-2.91.224-4.299.224zm.135-40.527a22.832 22.832 0 0 0-9.808 2.194c-5.06 2.329-8.777 6.225-11.105 11.554-2.777 6.448-2.508 12.225.85 16.838 4.389 6 13.614 9.046 24.048 7.926 8.195-.851 15.764-7.165 17.958-14.957 1.164-4.03 1.746-11.688-6.807-18.316a25.028 25.028 0 0 0-15.136-5.239z" fill="#121619"/>
    <path d="M286.828 117.463a33.774 33.774 0 0 1-5.06-.448c-7.703-1.209-13.345-4.344-16.794-9.27-5.105-7.255-3.537-15.763-3.493-16.122a.899.899 0 0 1 1.01-.604.894.894 0 0 1 .737.918c0 .09-1.478 8.15 3.224 14.823 3.18 4.478 8.419 7.344 15.584 8.508 7.165 1.165 13.48-.313 18.047-4.344 7.389-6.493 8.733-17.644 8.598-21.405a.896.896 0 0 1 .896-.896.846.846 0 0 1 .827.515c.046.106.069.22.069.336.179 5.732-2.105 16.569-9.181 22.794-3.896 3.448-8.732 5.195-14.464 5.195zM314.608 177.68a33.656 33.656 0 0 1-5.061-.448c-7.702-1.209-13.345-4.344-16.793-9.27-5.105-7.254-3.538-15.763-3.493-16.121a.893.893 0 0 1 1.01-.604.894.894 0 0 1 .737.917c0 .09-1.478 8.151 3.224 14.823 3.179 4.478 8.419 7.344 15.584 8.509 7.165 1.164 13.479-.314 18.047-4.344 7.389-6.493 8.733-17.644 8.598-21.406a.896.896 0 0 1 .896-.895.858.858 0 0 1 .827.514.863.863 0 0 1 .069.336c.179 5.732-2.105 16.57-9.181 22.794-3.896 3.449-8.732 5.195-14.464 5.195z" fill="#121619"/>
    <path d="M273.214 112.133a.938.938 0 0 1-.895-.85l-.18-3.538a.86.86 0 0 1 .216-.661.848.848 0 0 1 .635-.28.909.909 0 0 1 .647.231.905.905 0 0 1 .294.62l.179 3.538a.895.895 0 0 1-.851.94h-.045zM300.994 172.351a.939.939 0 0 1-.896-.851l-.179-3.537a.867.867 0 0 1 .037-.354.877.877 0 0 1 .178-.307.87.87 0 0 1 .288-.208.868.868 0 0 1 .348-.072.885.885 0 0 1 .346.051.885.885 0 0 1 .51.46c.05.107.079.222.085.34l.179 3.538a.907.907 0 0 1-.231.647.887.887 0 0 1-.62.293h-.045zM280.648 115.537a.895.895 0 0 1-.896-.895l.135-4.658a.846.846 0 0 1 .265-.618.854.854 0 0 1 .63-.232.896.896 0 0 1 .896.895l-.134 4.657a.868.868 0 0 1-.265.619.858.858 0 0 1-.631.232zM308.428 175.755a.898.898 0 0 1-.896-.896l.135-4.657a.841.841 0 0 1 .264-.618.86.86 0 0 1 .631-.233.896.896 0 0 1 .896.896l-.134 4.657a.86.86 0 0 1-.265.618.843.843 0 0 1-.631.233zM289.784 114.238a.936.936 0 0 1-.896-.85l-.134-2.687a.843.843 0 0 1 .215-.661.865.865 0 0 1 .288-.208.864.864 0 0 1 .348-.072.943.943 0 0 1 .94.851l.134 2.642a.937.937 0 0 1-.85.985h-.045zM317.564 174.456a.941.941 0 0 1-.896-.851l-.134-2.687a.845.845 0 0 1 .215-.66.838.838 0 0 1 .635-.28.944.944 0 0 1 .941.851l.134 2.642a.943.943 0 0 1-.851.985h-.044zM296.636 112.089a.898.898 0 0 1-.896-.806l-.224-2.463a.9.9 0 1 1 1.791-.179l.224 2.507a.846.846 0 0 1-.472.855.86.86 0 0 1-.334.086h-.089zM324.416 172.307a.896.896 0 0 1-.896-.806l-.224-2.463a.9.9 0 0 1 1.791-.18l.224 2.508a.849.849 0 0 1-.472.855.86.86 0 0 1-.334.086h-.089zM288.396 105.327a31.799 31.799 0 0 1-12.092-2.373 13.17 13.17 0 0 1-8.195-10.345c-.806-4.926 1.03-10.076 4.613-13.121 2.06-1.791 4.792-3.135 8.105-4.03a18.496 18.496 0 0 1 16.704 3.672 17.682 17.682 0 0 1 6.449 15.27c-.045.224-.045.448-.09.672a10.35 10.35 0 0 1-5.284 7.926c-2.821 1.657-6.449 2.329-10.21 2.329zm-2.732-28.705a16.214 16.214 0 0 0-4.389.582 18.727 18.727 0 0 0-7.389 3.627c-3.134 2.687-4.702 7.21-4.03 11.464a11.507 11.507 0 0 0 7.12 9.046c6.091 2.508 15.137 3.359 20.734.09 2.598-1.523 4.075-3.717 4.389-6.538.045-.224.045-.448.089-.627a16.032 16.032 0 0 0-5.776-13.793 17.02 17.02 0 0 0-10.748-3.851zM316.175 165.545a31.814 31.814 0 0 1-12.091-2.374 13.175 13.175 0 0 1-8.195-10.345c-.806-4.926 1.03-10.075 4.613-13.121 2.06-1.791 4.791-3.134 8.105-4.03a18.496 18.496 0 0 1 16.704 3.672 17.692 17.692 0 0 1 6.449 15.271c-.045.224-.045.448-.09.671a10.349 10.349 0 0 1-5.284 7.927c-2.822 1.657-6.449 2.329-10.211 2.329zm-2.731-28.706a16.264 16.264 0 0 0-4.389.582 18.708 18.708 0 0 0-7.389 3.628c-3.135 2.687-4.702 7.21-4.03 11.464a11.507 11.507 0 0 0 7.12 9.046c6.09 2.508 15.136 3.359 20.734.089 2.597-1.522 4.075-3.716 4.389-6.538.044-.224.044-.447.089-.627a16.02 16.02 0 0 0-1.182-7.611 16.015 16.015 0 0 0-4.595-6.181 17.012 17.012 0 0 0-10.747-3.852z" fill="#121619"/>
    <path d="m287.41 98.878-.358-.09-.582-.268c-3.896-1.747-7.255-3.224-6.583-11.15.134-2.106.941-3.494 2.329-4.166 3.358-1.612 8.777 1.836 9.359 2.24a.905.905 0 0 1 .269 1.253.907.907 0 0 1-1.254.27c-1.388-.941-5.508-3.136-7.568-2.15-.806.403-1.254 1.253-1.388 2.687-.538 6.672 1.746 7.702 5.553 9.404l.582.268a.854.854 0 0 1 .448 1.165.804.804 0 0 1-.807.537zM315.19 159.096l-.358-.09-.582-.268c-3.896-1.747-7.255-3.225-6.583-11.151.134-2.105.94-3.493 2.329-4.165 3.358-1.612 8.777 1.836 9.359 2.239a.905.905 0 0 1 .269 1.254.905.905 0 0 1-1.254.269c-1.388-.941-5.508-3.135-7.568-2.15-.806.403-1.254 1.254-1.389 2.687-.537 6.673 1.747 7.703 5.553 9.404l.583.269a.856.856 0 0 1 .447 1.164.81.81 0 0 1-.806.538zM364.972 121.583h-.985c-10.389-.493-18.629-8.061-22.122-20.242-2.418-8.553-1.791-15.36 1.836-20.197 5.419-7.299 15.45-7.523 15.898-7.523h.089c10.748.985 18.137 4.613 22.033 10.793 5.598 9.046 2.194 21.271-.314 27.764-2.149 5.509-8.956 9.405-16.435 9.405zm-5.418-46.215c-.672.044-9.718.447-14.42 6.806-3.269 4.39-3.806 10.658-1.523 18.63 4.658 16.479 15.853 18.719 20.466 18.942 7.075.359 13.703-3.134 15.673-8.284 2.374-6.18 5.643-17.779.448-26.108-3.537-5.687-10.479-9.046-20.644-9.986z" fill="#121619"/>
    <path d="m369.137 107.252-.313-.089c-6.628-2.598-9.987-5.598-10.076-9.001-.134-5.464 8.643-9.45 9.046-9.584a.895.895 0 0 1 .716 1.612c-2.239.986-8.06 4.39-7.971 7.927.045 2.552 3.135 5.105 8.957 7.389a.893.893 0 0 1 .492 1.164.936.936 0 0 1-.851.582z" fill="#121619"/>
    <path d="M357.091 100.087a.899.899 0 1 1-.179-1.791l8.509-1.433a.893.893 0 0 1 1.014.342.899.899 0 0 1 .131.73.89.89 0 0 1-.465.58.89.89 0 0 1-.367.094l-8.509 1.478h-.134z" fill="#121619"/>
    <path d="M359.509 122.792c-9.046 0-14.554-4.389-17.823-8.778-7.344-9.941-7.165-25.033-4.254-29.153 7.926-11.195 19.256-11.106 19.749-11.106a.849.849 0 0 1 .85.896.895.895 0 0 1-.895.896c-.358 0-10.972.09-18.226 10.344-2.598 3.672-2.553 17.913 4.209 27.049 5.911 7.971 15.495 10.031 27.72 6a.898.898 0 0 1 1.12.583.896.896 0 0 1-.583 1.119 37.281 37.281 0 0 1-11.867 2.15z" fill="#121619"/>
    <path d="M378.99 95.788a.943.943 0 0 1-.896-.85c-.403-7.121-7.523-14.6-19.839-14.6h-.313c-3.09.045-5.508 1.03-7.21 2.911-3.582 4.075-2.776 11.106-2.776 11.196a.843.843 0 0 1-.167.658.848.848 0 0 1-.595.327.897.897 0 0 1-.985-.806c-.045-.314-.896-7.837 3.18-12.54 2.06-2.328 4.926-3.492 8.553-3.537h.313c13.435 0 21.182 8.33 21.63 16.256a.941.941 0 0 1-.851.985h-.044zM337.118 93.818a.893.893 0 0 1-.85-.627.9.9 0 0 1 .077-.692.893.893 0 0 1 .55-.427l3.627-1.12a.85.85 0 0 1 1.119.582.848.848 0 0 1-.582 1.12l-3.672 1.12-.269.044zM339.671 100.804a.94.94 0 0 1-.851-.538.894.894 0 0 1 .448-1.164l2.553-1.164a.893.893 0 0 1 1.164.448.906.906 0 0 1 .033.7.894.894 0 0 1-.481.509l-2.508 1.119-.358.09zM340.477 108.596a.993.993 0 0 1-.851-.538.943.943 0 0 1 .448-1.209l3.448-1.567a.85.85 0 0 1 1.165.403.895.895 0 0 1-.403 1.209l-3.449 1.612-.358.09zM343.298 114.283a.934.934 0 0 1-.806-.492.938.938 0 0 1 .448-1.209l3.448-1.612a.896.896 0 0 1 1.164.447.894.894 0 0 1-.447 1.209l-3.404 1.568a.667.667 0 0 1-.403.089zM223.462 229.104c-.896 0-2.015-.582-2.911-1.164a.901.901 0 0 1-.488-.949.898.898 0 0 1 1.473-.529c.449.292.93.532 1.433.717a23.344 23.344 0 0 0-1.701-2.866c-3.493-5.106-17.824-4.031-23.018-3.18a.897.897 0 0 1-1.03-.761.893.893 0 0 1 .716-1.03c.806-.135 19.928-3.135 24.809 3.941 2.105 3.089 2.598 4.567 1.747 5.418a1.245 1.245 0 0 1-1.03.403zM222.119 217.326a.896.896 0 0 1-.896-.761c-1.298-12.36-8.867-24.137-8.956-24.227a.913.913 0 0 1-.126-.683.902.902 0 0 1 .395-.571.899.899 0 0 1 .682-.125.897.897 0 0 1 .571.394c.314.492 7.837 12.225 9.225 24.988a.88.88 0 0 1-.197.661.889.889 0 0 1-.609.324h-.089zM107.835 213.117a34.597 34.597 0 0 1-11.598-2.105 37.848 37.848 0 0 1-11.644-6.672.905.905 0 0 1 .557-1.575.908.908 0 0 1 .652.231 37.644 37.644 0 0 0 11.106 6.359c8.912 3.224 17.644 2.553 25.929-2.015a.854.854 0 0 1 1.209.313.943.943 0 0 1-.358 1.254 32.59 32.59 0 0 1-15.853 4.21z" fill="#121619"/>
    <path d="M218.849 202.325a.891.891 0 0 1-.806-.538.943.943 0 0 1 .448-1.209c6.09-2.553 11.912-18.047 11.957-18.226a.983.983 0 0 1 1.164-.538c.22.091.398.261.498.477.1.216.114.462.039.688-.268.672-6.135 16.39-12.942 19.256l-.358.09z" fill="#121619"/>
    <path d="M37.706 223.596v-6.27s-17.106 5.688-20.51-14.106c-3.403-19.794-2.015-31.392 5.105-25.347 6.27 5.374 5.509 21.988 12.181 22.66a2.644 2.644 0 0 0 2.821-3.045c-1.388-8.509-5.24-37.303 4.971-39.587 11.957-2.732 12.942 13.972 14.106 24.943 1.165 10.972-2.552 15.405 1.97 13.256 4.524-2.15-1.253-24.675 6.718-22.391 7.971 2.284 8.822 15.584 8.688 26.108-.135 10.523-16.973 12.135-16.973 12.135l-.582 12.092-18.495-.448z" fill="#A7F0BA"/>
    <path d="m31.572 260.631-7.479-28.123a4.793 4.793 0 0 1 3.359-5.867c7.613-2.194 23.824-5.508 39.184-.179a4.748 4.748 0 0 1 3.045 5.732l-7.255 27.989a4.79 4.79 0 0 1-2.955 3.314c-4.12 1.522-13.256 3.896-24.675.492a4.875 4.875 0 0 1-3.224-3.358z" fill="#0F62FE"/>
    <path d="M46.618 266.631a42.45 42.45 0 0 1-12.046-1.791 5.736 5.736 0 0 1-3.852-3.986l-7.478-28.123a5.732 5.732 0 0 1 3.94-6.941c8.24-2.373 24.317-5.553 39.767-.179a5.734 5.734 0 0 1 3.583 6.807l-7.21 27.989a5.774 5.774 0 0 1-3.538 3.94 38.105 38.105 0 0 1-13.166 2.284zm-14.151-6.224a3.888 3.888 0 0 0 2.597 2.731c11.017 3.269 19.839 1.12 24.093-.492a3.952 3.952 0 0 0 2.418-2.687l7.255-27.989a3.942 3.942 0 0 0-2.463-4.657c-14.957-5.195-30.676-2.105-38.692.179a3.983 3.983 0 0 0-2.687 4.792l7.479 28.123z" fill="#121619"/>
    <path d="M49.887 245.942a172.168 172.168 0 0 1-18.002-1.075.86.86 0 0 1-.595-.327.843.843 0 0 1-.166-.658.9.9 0 0 1 .635-.773.901.901 0 0 1 .35-.033c.224.045 20.734 2.373 29.018.045a.9.9 0 0 1 .692.077.884.884 0 0 1 .428.55.896.896 0 0 1-.627 1.074c-2.956.851-7.3 1.12-11.733 1.12zM17.197 193.861H13.12a.896.896 0 0 1 0-1.792h4.076a.896.896 0 0 1 0 1.792zM17.196 189.562a.907.907 0 0 1-.672-.269l-4.075-4.254a.985.985 0 0 1 .045-1.299.899.899 0 0 1 1.254.045l4.075 4.299a.851.851 0 0 1-.045 1.254.95.95 0 0 1-.582.224zM27.004 214.505h-.314a.984.984 0 0 1-.537-1.164l1.075-2.956a.986.986 0 0 1 1.164-.537.94.94 0 0 1 .537 1.164l-1.074 2.956a.938.938 0 0 1-.851.537zM15.405 209.042a.945.945 0 0 1-.896-.717.94.94 0 0 1 .717-1.075l4.568-.94a.893.893 0 0 1 1.04 1.021.897.897 0 0 1-.682.725l-4.568.941-.179.045zM19.973 213.027a.753.753 0 0 1-.448-.134.896.896 0 0 1-.358-1.209l.85-1.478a.893.893 0 0 1 1.255-.313.895.895 0 0 1 .313 1.209l-.85 1.478a.94.94 0 0 1-.762.447zM27.003 192.607a.95.95 0 0 1-.582-.224.897.897 0 0 1-.09-1.254l3.852-4.254a.943.943 0 0 1 1.299-.045.894.894 0 0 1 .044 1.254l-3.851 4.254a.892.892 0 0 1-.672.269zM38.557 166.678a.982.982 0 0 1-.671-.269l-3.807-4.075a.842.842 0 0 1-.275-.627.85.85 0 0 1 .275-.627.988.988 0 0 1 1.299.045l3.851 4.075a.896.896 0 0 1-.045 1.254.853.853 0 0 1-.627.224zM49.663 162.648l-.403-.09a.938.938 0 0 1-.447-1.209l3.045-6.404a.944.944 0 0 1 1.21-.448.912.912 0 0 1 .453.521.892.892 0 0 1-.051.688l-3 6.404a.981.981 0 0 1-.807.538zM47.737 178.769a.798.798 0 0 1-.716-.403.848.848 0 0 1 .224-1.209l3.403-2.284a.94.94 0 0 1 1.254.269.897.897 0 0 1-.269 1.254l-3.403 2.239a.892.892 0 0 1-.493.134zM39.632 195.563h-.179l-4.881-.851a.941.941 0 0 1-.761-1.075.94.94 0 0 1 1.03-.717l4.926.851a.987.987 0 0 1 .761 1.03.939.939 0 0 1-.896.762zM67.218 196.861a.848.848 0 0 1-.582-.224.893.893 0 0 1-.09-1.299l2.598-2.955a.904.904 0 0 1 .989-.276c.114.04.22.104.31.186a.856.856 0 0 1 .298.617.85.85 0 0 1-.254.637l-2.597 3.001a1.033 1.033 0 0 1-.672.313zM63.59 175.455a.895.895 0 0 1-.896-.895v-4.479a.896.896 0 0 1 1.792 0v4.479a.896.896 0 0 1-.896.895zM67.218 176.53a.983.983 0 0 1-.851-.537.896.896 0 0 1 .492-1.165l2.642-1.119a.88.88 0 0 1 .353-.087.89.89 0 0 1 .864.558.899.899 0 0 1-.545 1.186l-2.642 1.075a.446.446 0 0 1-.313.089zM65.919 212.266a.804.804 0 0 1-.717-.358l-2.373-3.269a.85.85 0 0 1 .224-1.209.897.897 0 0 1 1.254.179l2.328 3.269a.896.896 0 0 1-.179 1.254c-.166.086-.35.131-.537.134zM24.988 238.016H.896a.896.896 0 0 1 0-1.792h24.092a.896.896 0 0 1 0 1.792z" fill="#121619"/>
    <path d="m26.152 240.075 5.688-6.493a1.085 1.085 0 0 1 .839-.368 1.076 1.076 0 0 1 .818.413l5.24 6.224a1.111 1.111 0 0 0 .808.413 1.12 1.12 0 0 0 .848-.323l6.225-6.404a1.074 1.074 0 0 1 1.657.09l4.836 6.135a1.108 1.108 0 0 0 .84.414 1.106 1.106 0 0 0 .862-.369l4.702-5.24a1.085 1.085 0 0 1 .839-.368 1.069 1.069 0 0 1 .818.413l6.046 7.12" fill="#0F62FE"/>
    <path d="M67.218 242.628a.89.89 0 0 1-.717-.313l-6-7.12c-.09-.09-.135-.09-.18-.09-.044 0-.09 0-.134.09l-4.702 5.239a1.97 1.97 0 0 1-3.045-.09l-4.881-6.179-.135-.09-.179.09-6.225 6.403a1.923 1.923 0 0 1-1.523.583 1.887 1.887 0 0 1-1.432-.717l-5.24-6.225a.18.18 0 0 0-.179-.089c-.045 0-.09 0-.134.089l-5.688 6.494a.939.939 0 0 1-1.298.044.849.849 0 0 1-.045-1.253L31.168 233a2.024 2.024 0 0 1 1.478-.672h.045a1.885 1.885 0 0 1 1.478.717l5.284 6.269h.269l6.224-6.403a2.018 2.018 0 0 1 1.568-.583 1.886 1.886 0 0 1 1.433.717l4.881 6.18.18.089.133-.089 4.703-5.24a1.928 1.928 0 0 1 1.522-.671 1.884 1.884 0 0 1 1.478.716l6.045 7.121a.984.984 0 0 1-.09 1.298.978.978 0 0 1-.581.179z" fill="#121619"/>
    <path d="M159.334 16.435h-.09a.894.894 0 0 1-.806-.985c.493-5.106 4.658-9.539 4.837-9.718a.894.894 0 0 1 1.456.6.89.89 0 0 1-.158.609c-.044.045-3.896 4.21-4.343 8.688a.897.897 0 0 1-.896.806zM151.945 65.381h-.134a.85.85 0 0 1-.762-.985c1.03-7.165 7.658-15.091 7.927-15.405a.89.89 0 0 1 .618-.467.896.896 0 0 1 .725 1.587c-.045.09-6.538 7.881-7.478 14.51a.897.897 0 0 1-.896.76zM203.041 62.023c-7.434 0-11.688-2.33-13.658-3.404l-.762-.403a.857.857 0 0 1-.505-.473.861.861 0 0 1 .013-.691.937.937 0 0 1 1.209-.493l.895.493c2.105 1.164 7.031 3.851 16.167 3.045a.854.854 0 0 1 .855.472c.051.105.08.218.085.334a.9.9 0 0 1-.197.66.901.901 0 0 1-.609.325l-3.493.135z" fill="#0F62FE"/>
</svg>
