<svg width="379" height="286" viewBox="0 0 379 286" fill="none" xmlns="http://www.w3.org/2000/svg">
    <path d="M161.464 71.04a7.091 7.091 0 0 0 2.364-.394c8.431-2.916 10.52-21.276 10.598-22.024a.802.802 0 0 0-.028-.308.79.79 0 0 0-.681-.559.753.753 0 0 0-.777.378.75.75 0 0 0-.09.292c0 .197-2.048 18.123-9.574 20.724-2.954 1.063-6.54-.552-10.637-4.728a.748.748 0 0 0-1.103 0 .79.79 0 0 0-.04 1.103c3.625 3.664 6.934 5.516 9.968 5.516z" fill="#fff"/>
    <path d="M166.716 55.027c-.417-.122-.608-.729-.425-1.356.183-.626.67-1.036 1.087-.914.418.122.609.729.426 1.356-.183.626-.67 1.035-1.088.914zM158.439 52.913c-.417-.122-.608-.728-.425-1.355s.669-1.036 1.087-.914c.418.122.608.728.426 1.355-.183.627-.67 1.036-1.088.914zM170.171 53.468a.983.983 0 0 0 .866-.473.985.985 0 0 0-.354-1.34l-3.428-2.088a.99.99 0 0 0-1.186-.074.979.979 0 0 0-.433.7.98.98 0 0 0 .595 1.028l3.427 2.09c.152.1.33.155.513.157zM157.129 48.386h.04l4.058-.237a1.024 1.024 0 0 0 .816-1.432.95.95 0 0 0-.934-.538l-4.058.237a.984.984 0 0 0-.946 1.024.984.984 0 0 0 1.024.946zM162.606 59.575a1.658 1.658 0 0 0 1.34-.591c.787-1.064-.079-2.916-.355-3.428a.789.789 0 1 0-1.379.749c.315.59.552 1.418.473 1.694h-.434a.786.786 0 0 0-.945.59.753.753 0 0 0 .591.946l.709.04zM160.558 64.657a.788.788 0 0 0 .788-.63.79.79 0 0 0-.631-.906c-.157-.04-3.388-.749-3.27-3.152a.744.744 0 0 0-.189-.581.75.75 0 0 0-.559-.247.788.788 0 0 0-.828.749c-.118 3.034 2.916 4.452 4.531 4.767h.158zM156.223 81.047h.04a.753.753 0 0 0 .716-.517c.032-.1.043-.206.032-.31a26.494 26.494 0 0 1 1.458-9.85.762.762 0 0 0 .027-.598.754.754 0 0 0-.421-.426.79.79 0 0 0-1.024.433 26.119 26.119 0 0 0-1.616 10.52.827.827 0 0 0 .788.748zM134.475 76.516c3.034 0 7.25-.394 8.786-2.56l.079-.08 6.304-18.241-.433-.315c-.591-.513-2.128-2.128-2.207-3.507a1.741 1.741 0 0 1 .513-1.34c.275-.236.709-.67 1.103-.551.394.118 1.103 1.3 1.3 2.049a.78.78 0 0 0 .327.586.786.786 0 0 0 1.247-.645.793.793 0 0 0-.077-.335c-.039-.276-.749-2.719-2.403-3.192-.867-.236-1.734.119-2.601.985a3.28 3.28 0 0 0-.985 2.522c.079 1.812 1.616 3.506 2.364 4.255l-5.87 16.98c-1.497 1.853-7.289 2.01-10.598 1.695a.711.711 0 0 0-.867.67.746.746 0 0 0 .378.777c.09.05.189.08.292.09.354.039 1.694.157 3.348.157zM117.888 254.599l.473-.63c1.379-1.891 34.592-46.885 35.065-56.025.394-7.801-3.743-23.364-36.089-40.108-29.55-15.327-42.118-25.964-42.236-26.043l-.67-.552-.472.67a28.645 28.645 0 0 0-4.334 11.702c-.867 6.422.04 16.035 9.613 25.569 11.86 11.86 29.392 18.518 39.872 22.497 4.215 1.616 8.549 3.27 9.022 4.098.473.827-1.615 3.9-3.388 7.446-5.004 10.126-13.475 27.106-15.76 44.757l-.079.473 8.983 6.146zM74.786 133.566c3.034 2.403 15.996 12.292 41.842 25.649 31.519 16.35 35.616 31.243 35.222 38.65-.394 7.407-22.339 38.335-34.316 54.567l-6.934-4.728c2.364-17.217 10.637-33.804 15.562-43.772 2.443-4.885 3.546-7.092 3.546-8.195 0-1.103-2.6-2.679-10.047-5.516-10.362-3.939-27.697-10.519-39.32-22.142-7.288-7.289-10.362-15.444-9.14-24.23a28.285 28.285 0 0 1 3.585-10.283z" fill="#fff"/>
    <path d="m20.14 254.52.512-.354c.118-.079 10.795-7.604 24.349-21 12.528-12.41 30.14-32.464 42.944-57.837a.794.794 0 0 0-.96-1.107.788.788 0 0 0-.458.398c-12.686 25.175-30.18 45.111-42.59 57.364-12.41 12.253-21.394 18.872-23.679 20.527l-6.028-5.437c15.405-12.411 54.922-92.627 56.616-96.094a.792.792 0 1 0-1.418-.709c-.433.867-42.433 86.205-56.892 96.094l-.827.551 8.43 7.604zM217.489 54.098h.197c3.664-1.064 4.61-10.913 5.122-21.393 0-.749.039-1.34.079-1.734.039-.394.236-1.143.275-1.221.04-.08.237-.119.867 0 .631.118 2.285 3.388 2.64 5.437a.8.8 0 1 0 1.576-.276c-.197-1.024-1.222-6.225-3.94-6.698-.63-.118-1.458-.197-2.088.315-.631.513-.867 1.498-.906 2.364-.04.867-.079.985-.079 1.734-.158 2.876-.394 7.683-1.025 11.977-.984 6.737-2.403 7.84-2.954 7.998a.748.748 0 0 0-.513.985.79.79 0 0 0 .749.512zM221.586 62.648a.632.632 0 0 0 .355-.118c.236-.119 5.476-2.877 6.422-7.407a.83.83 0 0 0-.631-.946.79.79 0 0 0-.906.63c-.788 3.783-5.555 6.304-5.594 6.344a.778.778 0 0 0-.4.457.782.782 0 0 0 .341.919.83.83 0 0 0 .413.12zM210.515 106.262c7.171 0 14.144-21.354 14.184-21.59.039-.237.551-1.025.748-1.025.197 0 .315.158.473.434.473.867.827 2.955.906 3.703a.8.8 0 0 0 .595.658.786.786 0 0 0 .311.012.747.747 0 0 0 .67-.867c-.039-.315-.394-2.994-1.103-4.255-.709-1.26-1.221-1.34-2.049-1.26-.827.078-1.694.906-2.048 2.166-1.695 5.713-8.038 20.448-12.687 20.448h-.157a.788.788 0 0 0-.828.749.757.757 0 0 0 .416.752.726.726 0 0 0 .293.075h.276zM215.795 114.812h.275c.158-.079 4.019-1.497 5.989-4.452a.72.72 0 0 0 .148-.578.708.708 0 0 0-.345-.486.79.79 0 0 0-1.103.197c-1.694 2.522-5.201 3.822-5.24 3.822a.785.785 0 0 0-.249 1.363.78.78 0 0 0 .525.173v-.039zM134.87 230.093a.71.71 0 0 0 .67-.433.79.79 0 0 0-.315-1.064l-17.139-9.023a.787.787 0 1 0-.749 1.379l17.139 9.062.394.079z" fill="#fff"/>
    <path d="M48.507 229.266a.795.795 0 0 0 .63-.276.754.754 0 0 0 .06-.88.741.741 0 0 0-.217-.223l-14.263-10.756a.778.778 0 0 0-.584-.15.79.79 0 0 0-.566 1.182.783.783 0 0 0 .205.228l14.262 10.717a.749.749 0 0 0 .473.158zM131.205 235.412a.71.71 0 0 0 .67-.434.777.777 0 0 0 .045-.606.785.785 0 0 0-.4-.457l-15.956-7.92a.87.87 0 0 0-1.064.355.827.827 0 0 0 .355 1.064l15.996 7.919c.107.063.231.09.354.079zM44.213 233.639a.836.836 0 0 0 .63-.315.793.793 0 0 0 .019-.881.78.78 0 0 0-.215-.222l-13.2-9.732a.864.864 0 0 0-1.102.158.783.783 0 0 0-.019.881c.057.087.13.163.216.222l13.198 9.731a.63.63 0 0 0 .473.158z" fill="#fff"/>
    <path d="M127.58 233.639a.829.829 0 0 0 .67-.394l2.876-4.846a.802.802 0 0 0-.884-1.194.81.81 0 0 0-.495.366l-2.836 4.886a.739.739 0 0 0-.095.592.754.754 0 0 0 .37.472.676.676 0 0 0 .394.118zM123.207 231.196a.866.866 0 0 0 .709-.394l2.995-5.634a.795.795 0 0 0-.109-.875.798.798 0 0 0-.246-.189.76.76 0 0 0-.602-.078.744.744 0 0 0-.462.393l-2.994 5.635a.777.777 0 0 0-.045.605.776.776 0 0 0 .4.458l.354.079zM117.731 228.399a.782.782 0 0 0 .709-.473l2.797-5.831a.83.83 0 0 0-.354-1.064.79.79 0 0 0-1.064.394l-2.797 5.831a.781.781 0 0 0-.045.606.776.776 0 0 0 .399.458l.355.079zM41.376 231.196a.705.705 0 0 0 .591-.276l3.743-4.452a.745.745 0 0 0 .119-.866.754.754 0 0 0-.198-.237.788.788 0 0 0-1.103.079l-3.743 4.452a.79.79 0 0 0 .079 1.143c.147.11.328.166.512.157zM37.87 228.99a.748.748 0 0 0 .63-.355l3.506-5.043a.783.783 0 0 0 .019-.881.794.794 0 0 0-.216-.222.83.83 0 0 0-1.103.197l-3.506 5.043a.79.79 0 0 0-.019.881.78.78 0 0 0 .216.222c.143.088.305.142.473.158zM34.245 225.483a.788.788 0 0 0 .67-.433l2.758-4.807a.826.826 0 0 0-.276-1.103.79.79 0 0 0-1.064.315l-2.797 4.847a.786.786 0 0 0 .315 1.063c.116.08.254.121.394.118z" fill="#fff"/>
    <path d="M231.436 74.9c2.443 2.089 37.666 31.165 97.04 15.485a2.207 2.207 0 0 1 2.718 2.6c-4.531 21.236-27.618 131.356-24.112 168.548a2.203 2.203 0 0 1-1.93 2.404c-10.244 1.221-54.174 4.806-76.08-22.024a2.166 2.166 0 0 1-.472-1.379v-4.255c0-1.773-2.246-6.344 3.467-1.852 7.052 5.555 24.86 16.39 32.701 16.941a2.16 2.16 0 0 0 1.736-.694 2.165 2.165 0 0 0 .549-1.788c-.788-6.264-.394-24.427 32.858-18.675a2.165 2.165 0 0 0 2.561-1.93c1.34-12.884 7.88-74.267 12.096-90.539a2.163 2.163 0 0 0-.476-2.029 2.167 2.167 0 0 0-1.967-.689c-8.904 1.26-31.007 2.048-29.313-22.182a2.197 2.197 0 0 0-.574-1.649 2.214 2.214 0 0 0-1.593-.715c-8.707-.039-38.413-1.812-52.242-24.506-.2-.32-.308-.687-.316-1.064l-.236-8.234c-.079-1.773-.709-4.807.788-3.9" fill="#A7F0BA"/>
    <path d="M271.268 148.34c8.432.552 14.46 13.317 13.475 28.525-.985 15.208-8.629 27.067-17.06 26.516-8.431-.552-14.459-13.317-13.474-28.525.985-15.208 8.628-27.067 17.059-26.516zm-2.994 46.215c4.413.276 8.55-7.564 9.18-17.532.63-9.968-2.403-18.281-6.855-18.596-4.453-.316-8.55 7.564-9.18 17.532-.631 9.968 2.403 18.281 6.855 18.596z" fill="#A7F0BA"/>
    <path d="M300.688 45.307c-12.664-.887-22.598-6.35-22.189-12.204.41-5.853 11.008-9.88 23.672-8.993 12.664.887 22.598 6.35 22.189 12.203-.41 5.854-11.008 9.88-23.672 8.994z" fill="#fff"/>
    <path d="M303.536 51.577c1.812 0 3.664-.04 5.516-.158 6.58-.354 18.714-1.694 26.318-6.619 3.625-2.403 5.319-5.043 5.043-7.92-.591-5.751-9.377-10.322-11.071-10.991a.786.786 0 0 0-1.024.433.79.79 0 0 0 .205.864c.078.07.169.125.268.16 1.458.591 9.534 4.807 10.046 9.692.237 2.246-1.221 4.413-4.333 6.423-12.056 7.88-39.833 7.761-48.382 4.373a.788.788 0 0 0-1.025.433.789.789 0 0 0 .473 1.024c3.664 1.458 10.48 2.286 17.966 2.286z" fill="#fff"/>
    <path d="m333.243 51.892.355-.079c11.032-5.319 16.429-10.677 16.075-15.917-.552-7.88-13.829-12.292-14.42-12.49a.83.83 0 0 0-.985.513.747.747 0 0 0 .512.985c.118.04 12.844 4.255 13.317 11.11.315 4.452-4.925 9.417-15.169 14.38a.79.79 0 0 0-.394 1.025.867.867 0 0 0 .709.473z" fill="#fff"/>
    <path d="M306.491 61.505a93.5 93.5 0 0 0 13.238-.945c18.557-2.719 30.691-10.283 30.81-10.362a.757.757 0 0 0 .347-.48.737.737 0 0 0-.111-.584.788.788 0 0 0-1.064-.236c-.118.079-12.016 7.446-30.297 10.086-16.824 2.443-42.63 1.182-70.13-18.518a.797.797 0 0 0-.593-.131.78.78 0 0 0-.511.328.749.749 0 0 0 .197 1.064c12.332 8.865 25.373 14.814 38.769 17.69a91.439 91.439 0 0 0 19.345 2.088z" fill="#fff"/>
    <path d="M350.184 58.235a.747.747 0 0 0 .394-.118c.828-.473 20.37-11.505 18.203-24.427-1.892-11.268-19.7-20.015-52.992-25.925a.748.748 0 0 0-.906.63.785.785 0 0 0 .63.907c17.69 3.152 31.086 7.131 39.793 11.78 7.131 3.861 11.15 8.156 11.938 12.844 1.97 11.86-17.257 22.733-17.454 22.812a.789.789 0 0 0-.275 1.064.704.704 0 0 0 .669.433zM298.335 67.14c2.167 0 4.334-.08 6.58-.237a.784.784 0 0 0 .84-.497.793.793 0 0 0-.052-.677.79.79 0 0 0-.907-.363c-24.742 1.576-44.875-6.422-54.685-11.346a28.132 28.132 0 0 1-13.199-13.75c-2.443-5.674-2.285-10.52.512-14.46 11.978-16.981 67.569-13.474 68.121-13.435a.751.751 0 0 0 .752-.416.732.732 0 0 0 .075-.293.79.79 0 0 0-.748-.867 230.441 230.441 0 0 0-29.864.315c-21 1.655-34.356 6.304-39.636 13.79-3.112 4.412-3.349 9.81-.67 15.956a29.512 29.512 0 0 0 13.948 14.578c9.061 4.53 26.87 11.701 48.933 11.701z" fill="#fff"/>
    <path d="M272.135 40.151a.788.788 0 0 0 .709-.473.737.737 0 0 0 .043-.588.766.766 0 0 0-.397-.436c-8.629-3.94-10.165-6.856-9.968-8.629.512-4.255 11.071-7.249 15.129-8.037a.753.753 0 0 0 .507-.34.751.751 0 0 0 .084-.605.788.788 0 0 0-.906-.63c-1.616.314-15.642 3.27-16.39 9.415-.394 3.389 3.152 6.738 10.874 10.244l.315.079zM317.326 280.366h.039l8.51-.63a3.554 3.554 0 0 0 2.601-1.301 3.824 3.824 0 0 0 .827-2.797c-9.81-79.94 25.255-185.253 36.247-215.63l1.576-4.255a1.264 1.264 0 0 0-.433-1.458 1.304 1.304 0 0 0-1.537.04l-.079.078-3.467 3.704a20.763 20.763 0 0 1-5.634 4.294l-6.067 3.231a.832.832 0 0 0-.316 1.064.756.756 0 0 0 .772.418.749.749 0 0 0 .292-.103l6.068-3.23a22.947 22.947 0 0 0 6.028-4.61l2.324-2.482c-.276.788-.63 1.733-.985 2.797A758.301 758.301 0 0 0 338.601 147c-11.465 50.864-15.129 94.202-10.874 128.834a1.93 1.93 0 0 1-.473 1.576 2.163 2.163 0 0 1-1.497.788l-8.51.591a.752.752 0 0 0-.68.526c-.03.097-.04.2-.029.301a.786.786 0 0 0 .788.749z" fill="#fff"/>
    <path d="M328.436 275.914h.158l4.058-.906a3.945 3.945 0 0 0 3.073-4.176c-6.54-75.528 36.286-202.629 41.172-216.852a.988.988 0 0 0-.315-1.142 1.066 1.066 0 0 0-1.182-.119l-10.993 6.344a.87.87 0 0 0-.275 1.103.824.824 0 0 0 1.063.276l9.771-5.634c-2.679 7.84-13.947 41.802-23.954 82.501-13.947 56.695-19.621 101.649-16.863 133.68a2.365 2.365 0 0 1-1.852 2.482l-4.018.906a.831.831 0 0 0-.631.946.833.833 0 0 0 .788.591z" fill="#fff"/>
    <path d="M288.762 286c8.478.002 16.932-.909 25.215-2.719a5.673 5.673 0 0 0 4.452-6.264c-8.116-67.963 25.767-186.199 32.622-209.208a2.953 2.953 0 0 0-3.467-3.703c-26.909 6.185-49.997 8.273-68.515 6.225-14.735-1.616-26.673-5.832-35.419-12.53-14.538-11.15-15.405-25.53-15.405-25.924 0-.394 0-5.673 4.373-11.701 4.373-6.028 13.199-13.396 32.78-16.942a102.52 102.52 0 0 1 21.591-1.615c9.061.276 88.608 3.467 89.79 37.586.128 4.28-1.01 8.5-3.27 12.135l-2.443 4.019a.827.827 0 0 0 .276 1.064.74.74 0 0 0 .592.094.743.743 0 0 0 .471-.37l2.443-3.98a23.208 23.208 0 0 0 3.507-13.001c-.473-14.026-13.16-24.664-37.666-31.558C318.626 1.383 294.041.24 287.028.043a108.072 108.072 0 0 0-21.906 1.615c-20.172 3.704-29.549 11.662-33.883 17.69-4.334 6.028-4.57 12.293-4.57 12.569l1.261 228.553a6.455 6.455 0 0 0 2.167 4.846c12.844 11.543 29.076 18.359 48.184 20.172 3.625.354 7.132.512 10.481.512zm59.492-220.397c.372.01.726.165.985.433a1.453 1.453 0 0 1 .315 1.3c-6.895 23.088-40.857 141.6-32.662 209.839a4.173 4.173 0 0 1-3.23 4.57c-11.859 2.6-52.874 9.062-82.541-17.611a4.962 4.962 0 0 1-1.615-3.704l-1.222-220.91c1.852 5.438 5.831 12.963 14.381 19.503 8.549 6.54 21.157 11.229 36.168 12.883 18.754 2.05 41.999-.039 69.106-6.264l.315-.04z" fill="#fff"/>
    <path d="m100.592 246.207-6.58 12.214a7.051 7.051 0 0 0 2.207 9.14l25.491 15.09c5.279 3.664 10.756-.749 7.683-6.343a7.65 7.65 0 0 0-1.734-2.049c-5.358-4.294-6.58-8.549-2.561-16.469a3.11 3.11 0 0 0-1.3-4.176l-16.981-9.259a4.573 4.573 0 0 0-6.225 1.852z" fill="#0F62FE"/>
    <path d="M119.307 271.738a.948.948 0 0 0 .551-.197 5.046 5.046 0 0 1 5.95-.788.79.79 0 0 0 1.291-.527.787.787 0 0 0-.503-.813 6.62 6.62 0 0 0-7.841.946.826.826 0 0 0 0 1.142.708.708 0 0 0 .552.237zM122.026 275.953a.785.785 0 0 0 .551-.236c2.64-2.679 6.383-.827 6.54-.749a.738.738 0 0 0 .588.043.75.75 0 0 0 .437-.397.743.743 0 0 0 .078-.602.757.757 0 0 0-.394-.462c-1.694-.867-5.594-1.773-8.352 1.064a.746.746 0 0 0 0 1.103.785.785 0 0 0 .552.236z" fill="#fff"/>
    <path d="M110.206 274.023h.118a.748.748 0 0 0 .67-.867l-1.537-12.135a.788.788 0 1 0-1.536.197l1.497 12.135a.789.789 0 0 0 .788.67zM104.454 270.753h.078a.867.867 0 0 0 .71-.906l-1.537-12.135a.794.794 0 1 0-1.576.197l1.537 12.135a.785.785 0 0 0 .788.709z" fill="#121619"/>
    <path d="m96.22 267.561 25.491 15.09c1.891 1.34 3.782 1.616 5.318 1.143a.316.316 0 0 0 .079-.552c-3.743-1.852-23.442-11.977-27.737-19.817a29.638 29.638 0 0 1-2.876-7.841.474.474 0 0 0-.867-.157l-1.615 2.994a7.053 7.053 0 0 0 2.206 9.14z" fill="#fff"/>
    <path d="m12.969 236.515-10.52 9.062a7.051 7.051 0 0 0-1.181 9.337l18.399 23.206c3.664 5.28 10.362 3.152 9.456-3.23a6.935 6.935 0 0 0-.867-2.483c-3.467-5.949-3.113-10.362 3.467-16.311a3.15 3.15 0 0 0 .315-4.373L19.43 236.988a4.563 4.563 0 0 0-3.132-1.579 4.567 4.567 0 0 0-3.329 1.106z" fill="#0F62FE"/>
    <path d="M28.374 268.743a.791.791 0 0 0 .512-.157.789.789 0 0 0 .119-1.103 6.58 6.58 0 0 0-7.683-1.892.79.79 0 0 0-.434 1.025.827.827 0 0 0 1.064.433c3.507-1.458 5.792 1.379 5.831 1.419a.67.67 0 0 0 .591.275zM29.95 273.826a.748.748 0 0 0 .512-.237.786.786 0 0 0 .08-1.103c-1.262-1.379-4.61-3.624-8.196-2.009a.804.804 0 0 0 .056 1.481c.2.074.42.065.614-.023 3.428-1.576 6.225 1.497 6.343 1.615a.832.832 0 0 0 .591.276z" fill="#fff"/>
    <path d="M12.3 265.985a.783.783 0 0 0 .788-.591l2.915-11.859a.788.788 0 0 0-.59-.945.743.743 0 0 0-.82.274.75.75 0 0 0-.126.277L11.55 265.04a.784.784 0 0 0 .31.819c.085.06.18.103.281.126h.158zM8.123 260.864a.753.753 0 0 0 .749-.591l2.915-11.86a.783.783 0 0 0-.31-.819.786.786 0 0 0-.28-.126.743.743 0 0 0-.82.274.749.749 0 0 0-.126.277l-2.916 11.899a.79.79 0 0 0 .591.946h.197z" fill="#121619"/>
    <path d="m1.268 254.914 18.399 23.167c1.3 1.891 2.994 2.837 4.61 2.955a.32.32 0 0 0 .164-.052.314.314 0 0 0 .072-.46c-2.837-3.073-17.611-19.542-18.833-28.368-.36-2.788-.32-5.614.119-8.391a.472.472 0 0 0-.788-.434l-2.561 2.206a7.056 7.056 0 0 0-1.182 9.377zM155.436 43.933c3.94 1.97 20.093 9.417 22.694 3.074a.714.714 0 0 0-.158-.788c-.749-.71-2.521-2.68-2.6-5.122a40.05 40.05 0 0 0-.512-5.477 8.398 8.398 0 0 0-7.762-6.816 12.448 12.448 0 0 0-3.585.355 1.654 1.654 0 0 1-1.97-.906c-.985-2.285-8.156-2.916-13.475 1.3-7.21 5.791-1.93 27.579-13.75 25.136-3.743-.748-.906 5.437 3.231 8.195 2.521 1.694 5.555 2.088 6.776 2.167a.712.712 0 0 0 .749-.473l2.916-8.313a.87.87 0 0 0-.079-.63c-.709-1.143-3.073-5.319.079-6.698a.747.747 0 0 1 .945.394l1.182 2.64c.091.156.229.28.394.354.709.276 2.522.08 3.901-7.84a.736.736 0 0 1 .38-.52.748.748 0 0 1 .644-.032z" fill="#fff"/>
    <path d="M125.65 70.252s16.863-.946 22.497 1.615c4.925 2.167 50.273-9.731 65.678-20.133a2.363 2.363 0 0 1 3.664 1.576 16.072 16.072 0 0 0 3.113 7.29l.985 1.26a2.36 2.36 0 0 1 .113 2.78c-.184.276-.424.51-.704.687-7.683 4.964-45.624 25.885-67.176 26.319a5.2 5.2 0 0 0-4.255 2.364c-5.949 9.179-26.554 41.92-30.179 59.807-4.216 20.96-49.328-13.711-44.994-22.733 4.334-9.023 35.381-61.029 51.258-60.832z" fill="#0F62FE"/>
    <path d="M212.919 63.672a.79.79 0 0 0 .552-.236.746.746 0 0 0 .209-.847.741.741 0 0 0-.17-.256c-2.364-2.522-2.482-7.604-2.482-7.644a.829.829 0 0 0-.788-.788h-.04a.751.751 0 0 0-.716.517.76.76 0 0 0-.032.31c0 .198.118 5.713 2.915 8.668a.675.675 0 0 0 .552.276zM107.684 153.896a5.993 5.993 0 0 0 3.309-.985c4.531-2.916 6.619-11.583 7.289-15.169a2.006 2.006 0 0 0-1.418-2.364l-10.52-3.191a2.048 2.048 0 0 0-2.482 1.143c-1.221 2.876-4.137 12.174-1.576 17.256a5.802 5.802 0 0 0 3.94 3.152c.478.109.967.162 1.458.158zm-1.931-20.251h.158l10.48 3.23a.475.475 0 0 1 .288.205c.067.103.09.227.067.347-.513 2.64-2.483 11.465-6.619 14.144a4.345 4.345 0 0 1-3.546.631 4.214 4.214 0 0 1-2.916-2.325c-2.088-4.216.197-12.529 1.655-15.917a.47.47 0 0 1 .433-.315z" fill="#121619"/>
    <path d="M109.851 139.633a1.457 1.457 0 1 1-.001-2.915 1.457 1.457 0 0 1 .001 2.915zM171.707 39.206a.591.591 0 0 0 .591-.592c.158-6.58-4.925-7.564-4.964-7.564a.593.593 0 0 0-.67.473.588.588 0 0 0 .473.709c.157.04 4.097.827 3.979 6.383a.59.59 0 0 0 .591.59zM173.402 46.73h.197a.632.632 0 0 0 .355-.787l-.946-2.68a.59.59 0 0 0-.749-.354.59.59 0 0 0-.354.749l.945 2.679a.553.553 0 0 0 .552.394zM156.185 41.057a.593.593 0 0 0 .551-.433c.473-1.616 2.049-6.146 3.585-7.486a.592.592 0 0 0 .205-.411.591.591 0 0 0-.146-.436.586.586 0 0 0-.411-.205.599.599 0 0 0-.436.146c-2.088 1.852-3.861 7.8-3.939 8.077a.59.59 0 0 0 .433.709l.158.04z" fill="#121619"/>
    <path d="M324.181 177.338c1.537 0 2.955 0 4.295-.079 6.934-.236 12.135-.67 15.405-1.3 3.27-.63 4.491-1.379 4.649-2.561.158-1.182-2.758-2.876-4.058-3.309a.828.828 0 0 0-.985.551.83.83 0 0 0 .512.985c1.379.434 2.797 1.182 2.955 1.576.158.394-2.167 1.931-18.557 2.522-13.08.433-38.138-1.458-60.91-4.571-27.777-3.861-40.7-7.958-41.212-10.322-.079-.355.434-.985 2.167-1.655a.83.83 0 0 0 .434-1.064.751.751 0 0 0-1.025-.394c-.867.355-3.546 1.419-3.112 3.467.276 1.34 2.009 3.468 13.514 6.304 7.249 1.773 17.256 3.586 28.997 5.201 20.606 2.837 43.024 4.649 56.931 4.649z" fill="#fff"/>
    <path d="M235.651 180.293c15.957 0 43.654-3.231 53.662-4.492 26.554-3.27 56.537-8.076 60.753-10.44a1.415 1.415 0 0 0 .827-.985c.236-1.458-.276-2.285-.748-2.719-1.379-1.261-3.94-.63-4.216-.551a.791.791 0 0 0-.423.911.789.789 0 0 0 .817.586c.512-.118 2.127-.355 2.758.197a1.305 1.305 0 0 1 .276 1.142c-2.246 1.616-26.555 6.068-58.705 10.126-34.907 4.373-59.768 5.791-64.89 3.703-.197-.078-.236-.157-.236-.157s1.3-2.01 3.152-3.31a.784.784 0 0 0 .327-.511.804.804 0 0 0-.13-.592.797.797 0 0 0-.82-.321.79.79 0 0 0-.283.124c-.946.67-4.019 2.955-3.822 4.807a1.895 1.895 0 0 0 1.221 1.418c1.852.749 5.634 1.064 10.48 1.064z" fill="#fff"/>
    <path d="M182.148 93.773c6.856 3.585 21.867 7.328 26.87 8.55a2.28 2.28 0 0 1 1.773 2.166c.158 4.256.237 14.854-2.088 15.405-6.107 1.537-66.702-22.26-66.702-22.26l20.054-12.726 20.093 8.865z" fill="#0F62FE"/>
    <path d="M133.885 95.191c14.262 0 33.646-4.964 34.631-5.2a.793.793 0 1 0-.394-1.537c-.276.079-28.446 7.289-41.684 4.531a.79.79 0 0 0-.906.63.712.712 0 0 0 .591.907c2.558.483 5.158.707 7.762.67zM204.448 115.285a.75.75 0 0 0 .749-.591c.945-3.861 1.536-12.135 1.536-12.49a.748.748 0 0 0-.709-.827.827.827 0 0 0-.867.748c0 .079-.591 8.471-1.497 12.175a.827.827 0 0 0 .591.985h.197z" fill="#121619"/>
</svg>
