<svg width="339" height="345" viewBox="0 0 339 345" fill="none" xmlns="http://www.w3.org/2000/svg">
    <path d="M174.875 183.305h-63.771a.93.93 0 0 1-.66-.274.93.93 0 0 1 0-1.321.933.933 0 0 1 .66-.274h63.771a.935.935 0 0 1 0 1.869zM110.73 187.416a.935.935 0 1 1 0-1.868l60.874-.234a.93.93 0 0 1 .66.274.93.93 0 0 1 0 1.321.935.935 0 0 1-.66.274l-60.874.233z" fill="#fff"/>
    <path d="M109.796 194.657 105.544 6.29a4.567 4.567 0 0 0-1.495-3.27 4.43 4.43 0 0 0-3.363-1.075L76.299 4.14a4.485 4.485 0 0 0-4.065 4.671l4.298 104.649h-1.868L70.366 8.812a6.353 6.353 0 0 1 5.793-6.587L100.499.03a6.305 6.305 0 0 1 6.914 6.214l4.251 188.368-1.868.046zM338.061 303.137a.936.936 0 0 1-.661-.273.936.936 0 0 1-.273-.661V6.617c.093-2.196-4.298-2.85-6.261-3.037l-22.097.374h-.047a4.481 4.481 0 0 0-4.457 2.613 4.493 4.493 0 0 0-.402 1.778l1.776 137.025 2.149 103.154a.935.935 0 0 1-1.869.046l-2.149-103.154-1.775-137.118a6.205 6.205 0 0 1 2.102-4.625 6.586 6.586 0 0 1 4.765-1.588l22.051-.374h.047c6.821.608 8.129 3.037 8.035 4.952v295.54a.875.875 0 0 1-.258.675.88.88 0 0 1-.676.259zM148.992 197.274a10.707 10.707 0 0 1-1.868-.094.933.933 0 0 1-.795-1.027.88.88 0 0 1 .667-.779.897.897 0 0 1 .361-.016c.187 0 12.801 1.308 23.873-9.577 6.354-6.213 10.979-15.137 13.876-26.583 3.55-14.342 4.298-32.656 2.242-54.426a.937.937 0 0 1 1.529-.82.937.937 0 0 1 .34.633c2.102 22.004 1.308 40.551-2.336 55.081-2.943 11.819-7.802 21.023-14.389 27.47-9.297 9.11-19.388 10.138-23.5 10.138z" fill="#fff"/>
    <path d="M154.131 231.471a.935.935 0 0 1 0-1.868c.187 0 19.762-.187 35.693-18.314 18.687-21.163 25.041-56.996 18.827-106.424l-.327-5.28.14-.233c9.718-16.958 2.757-25.32 2.71-25.414a.89.89 0 0 1 .047-1.309.98.98 0 0 1 1.355.094c.327.374 7.895 9.25-2.383 27.33l.28 4.672c3.457 27.283 3.037 50.783-1.261 69.89-3.457 15.651-9.531 28.405-17.987 38.029-16.491 18.594-36.159 18.827-37.094 18.827zM75.505 155.835h-.187c-.28-.047-6.868-1.495-8.877-5.233a5.042 5.042 0 0 1-.187-4.345c.795-1.962 1.963-3.13 3.458-3.41 3.083-.561 6.26 2.663 6.587 3.037a.979.979 0 0 1-.047 1.355.938.938 0 0 1-1.308-.047c-.748-.841-3.13-2.85-4.859-2.476-.84.14-1.541.887-2.055 2.196a3.267 3.267 0 0 0 .046 2.803c1.355 2.476 5.934 3.924 7.616 4.298a.895.895 0 0 1 .58.387.892.892 0 0 1 .12.687.885.885 0 0 1-.887.748zM85.284 136.909c.738-.121 1.184-1.148.997-2.293-.188-1.146-.939-1.977-1.677-1.856-.738.121-1.185 1.148-.997 2.293.188 1.146.938 1.977 1.677 1.856zM78.075 131.821a1.255 1.255 0 0 1-1.028-.607 1.214 1.214 0 0 1 .467-1.588l6.26-3.504a1.169 1.169 0 1 1 1.168 2.009l-6.307 3.55a1.11 1.11 0 0 1-.56.14zM90.781 157.797h-.233c-2.616-.701-5.093-4.392-5.373-4.812a.936.936 0 1 1 1.542-1.028c.654.981 2.663 3.597 4.298 4.064a.936.936 0 0 1-.234 1.822v-.046z" fill="#fff"/>
    <path d="M85.549 171.812a14.28 14.28 0 0 1-4.625-.841.935.935 0 0 1-.608-1.168 1.026 1.026 0 0 1 1.215-.607c3.597 1.168 6.54.888 8.736-.841 6.494-5.139 5.28-20.976 5.28-21.116v-.795l.747-.187c1.355-.327 2.99-.981 3.223-2.102.42-2.055-3.083-5.466-5.325-7.148l-.234-.187-.093-.233c-2.29-5.56-10.559-16.632-10.652-16.725a.934.934 0 0 1 1.495-1.122c.327.468 8.269 11.073 10.792 16.912 1.261.982 6.54 5.233 5.839 8.83-.327 1.542-1.588 2.71-3.83 3.364.186 3.41.42 16.865-6.027 21.957a9.34 9.34 0 0 1-5.933 2.009z" fill="#fff"/>
    <path d="M73.262 128.878s20.51-11.212 17.566-25.881c-2.943-14.67-9.764 5.045-17.566 3.83-7.802-1.214-29.106-4.438-26.303 9.811 0 0-18.266 9.437-4.812 29.526 10.419 15.557 15.651 24.107 17.473 27.19a1.961 1.961 0 0 0 2.29.888c4.39-1.262 16.865-5.139 17.379-8.596l-3.13-10.979s-10.512-.467-9.017-8.082c1.495-7.615 7.148-1.262 7.148-1.262s6.166-7.428-1.028-16.445z" fill="#fff"/>
    <path d="M62.377 194.377a.882.882 0 0 1-.56-.187.933.933 0 0 1-.188-1.308c5-6.681-.046-18.267-.093-18.407a.935.935 0 0 1 1.682-.747c.233.514 5.56 12.707-.094 20.275a.981.981 0 0 1-.747.374zM91.108 196.199a.976.976 0 0 1-.514-.187c-6.307-4.111-6.353-17.893-6.353-18.453a.934.934 0 0 1 .934-.935.893.893 0 0 1 .877.569.89.89 0 0 1 .057.366c0 .14.047 13.361 5.513 16.912a.932.932 0 0 1 .28 1.261.986.986 0 0 1-.794.467z" fill="#fff"/>
    <path d="M166.418 183.632a4.015 4.015 0 0 0-4.812-2.85c-14.155 3.411-63.583 15.231-63.77 14.483-.187-.747-2.43-5.7-3.13-7.241a.982.982 0 0 0-.748-.514c-4.485-.608-37.888-5.092-46.157-.421a.982.982 0 0 0-.42 1.215l3.27 6.961S.1 220.072.988 257.587c.888 37.515-2.616 41.392 0 43.775.56.561 10.558-.14 14.996 0a2.245 2.245 0 0 1 2.243 2.196l1.215 36.3a2.337 2.337 0 0 0 2.195 2.242l100.538 2.57a2.247 2.247 0 0 0 2.231-1.523 2.25 2.25 0 0 0 .105-.953c-1.215-13.829-6.447-79.047 5.653-85.074 11.352-5.7 37.935-22.471 46.251-27.751a3.968 3.968 0 0 0 1.682-4.485l-11.68-41.252z" fill="#0F62FE"/>
    <path d="m185.573 99.119-.374-.094c-.373-.14-9.39-4.017-11.352-11.866-1.168-4.719.42-9.764 4.812-15.09a.933.933 0 0 1 1.552.57.936.936 0 0 1-.151.645c-3.924 4.812-5.419 9.296-4.438 13.408 1.729 6.96 10.231 10.558 10.325 10.605a.937.937 0 0 1 .514 1.214 1.03 1.03 0 0 1-.888.607zM182.068 76.834a.98.98 0 0 1-.887-.654c-.234-.794-.935-21.584 2.382-26.723a2.668 2.668 0 0 1 1.869-1.401 2.194 2.194 0 0 1 1.729.56c3.784 3.177 4.672 23.5 4.765 25.835a.944.944 0 0 1-.24.675.94.94 0 0 1-.648.307.979.979 0 0 1-.981-.935c-.327-8.362-1.728-22.471-4.111-24.48l-.234-.093c-.14 0-.327.186-.513.42-2.85 4.018-2.476 23.966-2.243 25.321a.843.843 0 0 1-.607 1.121l-.281.047zM207.67 79.03h-.093a.933.933 0 0 1-.841-1.028c.841-8.362-.654-10.605-1.682-11.166-1.028-.56-3.27.561-3.27.561a.935.935 0 0 1-1.308-.187 1.027 1.027 0 0 1 .187-1.308c.14-.093 2.896-2.102 5.326-.7 2.429 1.4 3.363 5.699 2.616 12.987a.937.937 0 0 1-.935.84z" fill="#fff"/>
    <path d="M19.07 298.699a.937.937 0 0 1-.934-.794 230.85 230.85 0 0 1-2.15-33.684c.28-23.967 4.905-39.804 13.782-47.139a.935.935 0 0 1 1.308.14.894.894 0 0 1 .22.685.884.884 0 0 1-.36.623c-20.136 16.632-11.073 78.487-10.979 79.094a.934.934 0 0 1-.748 1.075h-.14zM111.29 261.231l-.373-.093c-12.147-5.326-18.36-16.399-18.08-32.049a71.424 71.424 0 0 1 4.158-22.004.888.888 0 0 1 1.168-.514.924.924 0 0 1 .536.489.934.934 0 0 1 .024.725 71.668 71.668 0 0 0-4.018 21.397c-.28 14.997 5.42 25.181 16.959 30.227a.98.98 0 0 1 .514 1.261 1.032 1.032 0 0 1-.888.561zM60.134 201.151a.885.885 0 0 1-.888-.701.982.982 0 0 1 .654-1.168c9.11-2.242 25.462-.093 26.163 0a.943.943 0 0 1 .461 1.678.943.943 0 0 1-.695.191c-.187-.047-16.725-2.242-25.461-.047l-.234.047zM47.66 141.866a1.026 1.026 0 0 1-.7-.28c-7.569-8.363-.14-18.734-.047-18.828a.984.984 0 0 1 1.308-.233.933.933 0 0 1 .187 1.308c-.28.42-6.587 9.297-.047 16.491a.935.935 0 0 1-.046 1.309.9.9 0 0 1-.654.233zM56.21 154.62a.986.986 0 0 1-.794-.42l-3.55-5.607a.98.98 0 0 1 .28-1.308.937.937 0 0 1 1.308.327l3.55 5.56a.98.98 0 0 1-.28 1.308.932.932 0 0 1-.514.14zM55.51 194.377a.837.837 0 0 1-.842-.607l-1.915-5.419a.934.934 0 0 1 1.728-.608l1.916 5.373a.936.936 0 0 1-.56 1.215l-.328.046zM62.377 195.545a.976.976 0 0 1-.934-.841l-.982-7.615a.933.933 0 0 1 1.822-.233l1.028 7.615a.98.98 0 0 1-.794 1.074h-.14zM69.852 195.545a.933.933 0 0 1-.935-.841l-.7-7.662a.98.98 0 0 1 .84-1.027.908.908 0 0 1 .362.053.92.92 0 0 1 .53.48.936.936 0 0 1 .09.354l.747 7.615a.938.938 0 0 1-.49.922.908.908 0 0 1-.351.106h-.093zM78.775 197.227h-.14a.879.879 0 0 1-.621-.341.884.884 0 0 1-.174-.687l1.168-9.297a.936.936 0 0 1 1.075-.794.879.879 0 0 1 .62.341.888.888 0 0 1 .174.687l-1.168 9.297a.98.98 0 0 1-.934.794zM88.866 198.488h-.187a.877.877 0 0 1-.6-.404.887.887 0 0 1-.1-.717l1.868-8.222a.981.981 0 0 1 1.121-.701.93.93 0 0 1 .583.415.93.93 0 0 1 .118.706l-1.869 8.223a.933.933 0 0 1-.934.7z" fill="#121619"/>
    <path d="M11.735 334.018a.887.887 0 0 1-.888-.794l-4.018-25.602a.934.934 0 1 1 1.822-.327l4.018 25.649a.931.931 0 0 1-.794 1.074h-.14zM107.881 54.596a.934.934 0 1 1 0-1.869l74.796-.98a.893.893 0 0 1 .658.242.886.886 0 0 1 .276.645 1.026 1.026 0 0 1-.934.981l-74.796.981zM107.881 59.315a.934.934 0 1 1 0-1.869l67.835-.747a.979.979 0 0 1 .981.934.935.935 0 0 1-.935.934l-67.881.748zM109.843 120.235a.935.935 0 1 1 0-1.868l78.393-1.028h.046a.895.895 0 0 1 .659.243.883.883 0 0 1 .276.645 1.031 1.031 0 0 1-.935.981l-78.393 1.027h-.046zM115.449 124.58a.934.934 0 0 1-.935-.887 1.029 1.029 0 0 1 .935-.981l73.207-.701c.248 0 .485.098.661.273a.936.936 0 0 1-.661 1.595l-73.161.701h-.046zM210.894 118.273a.935.935 0 1 1 0-1.869l93.39-1.261h.046a.936.936 0 0 1 0 1.869l-93.436 1.261zM217.294 122.338a.933.933 0 0 1-.66-1.595.93.93 0 0 1 .66-.274l85.635-.28a.932.932 0 0 1 .66 1.595.932.932 0 0 1-.66.273l-85.635.281zM302.929 53.615H188.283a.934.934 0 1 1 0-1.868h114.646a.936.936 0 0 1 .661 1.595.936.936 0 0 1-.661.273zM302.929 57.586H189.217a.934.934 0 1 1 0-1.868h113.712a.932.932 0 0 1 .934.934.931.931 0 0 1-.934.934zM207.39 182.791a.93.93 0 0 1-.66-.274.93.93 0 0 1-.274-.66.887.887 0 0 1 .887-.935l97.174-1.308h.047a.984.984 0 0 1 .934.935.934.934 0 0 1-.934.934l-97.174 1.308zM206.082 186.902a.935.935 0 1 1 0-1.868l98.482-.327a.935.935 0 0 1 0 1.868l-98.482.327z" fill="#fff"/>
    <path d="M202.298 34.554h-3.177a5.326 5.326 0 0 0-5.326 5.326v19.538a5.326 5.326 0 0 0 5.326 5.325h3.177a5.326 5.326 0 0 0 5.326-5.325V39.88a5.326 5.326 0 0 0-5.326-5.326zM164.736 35.675h-4.064a5.326 5.326 0 0 0-5.326 5.326V58.9a5.326 5.326 0 0 0 5.326 5.326h4.064a5.326 5.326 0 0 0 5.326-5.326V41a5.326 5.326 0 0 0-5.326-5.326zM148.338 35.675h-4.064a5.326 5.326 0 0 0-5.326 5.326V58.9a5.326 5.326 0 0 0 5.326 5.326h4.064a5.326 5.326 0 0 0 5.326-5.326V41a5.326 5.326 0 0 0-5.326-5.326z" fill="#A7F0BA"/>
    <path d="M235.094 35.395h-4.065a5.325 5.325 0 0 0-5.325 5.326v18.716a5.325 5.325 0 0 0 5.325 5.325h4.065a5.326 5.326 0 0 0 5.326-5.325V40.72a5.326 5.326 0 0 0-5.326-5.326z" fill="#fff"/>
    <path d="M218.649 34.928h-4.064a5.326 5.326 0 0 0-5.326 5.326V59.72a5.326 5.326 0 0 0 5.326 5.326h4.064a5.326 5.326 0 0 0 5.326-5.326V40.254a5.326 5.326 0 0 0-5.326-5.326z" fill="#A7F0BA"/>
    <path d="M143.013 54.643a.89.89 0 0 1-.877-.569.894.894 0 0 1-.058-.365V39.133a.893.893 0 0 1 .569-.877.89.89 0 0 1 .366-.058.936.936 0 0 1 .934.935v14.576a.935.935 0 0 1-.934.934zM212.669 60.856a.89.89 0 0 1-.877-.569.877.877 0 0 1-.058-.365V48.99a.936.936 0 0 1 1.595-.66.932.932 0 0 1 .274.66v10.932a.893.893 0 0 1-.259.676.89.89 0 0 1-.675.258z" fill="#121619"/>
    <path d="M232.104 100.146h-3.177a5.326 5.326 0 0 0-5.325 5.326v19.538a5.326 5.326 0 0 0 5.325 5.326h3.177a5.326 5.326 0 0 0 5.326-5.326v-19.538a5.326 5.326 0 0 0-5.326-5.326zM264.901 101.408h-4.065a5.326 5.326 0 0 0-5.326 5.326v18.355a5.326 5.326 0 0 0 5.326 5.326h4.065a5.325 5.325 0 0 0 5.325-5.326v-18.355a5.325 5.325 0 0 0-5.325-5.326zM248.455 100.988h-4.064a5.325 5.325 0 0 0-5.326 5.325v18.819a5.325 5.325 0 0 0 5.326 5.325h4.064a5.325 5.325 0 0 0 5.326-5.325v-18.819a5.325 5.325 0 0 0-5.326-5.325z" fill="#A7F0BA"/>
    <path d="M227.432 119.534a.934.934 0 0 1-.934-.934v-14.576a.933.933 0 0 1 .934-.934.88.88 0 0 1 .676.258.886.886 0 0 1 .259.676V118.6a.88.88 0 0 1-.259.676.882.882 0 0 1-.676.258zM258.92 123.88a.933.933 0 0 1-.934-.935v-16.211a.931.931 0 0 1 .934-.934.935.935 0 0 1 .935.934v16.211a.938.938 0 0 1-.935.935z" fill="#121619"/>
    <path d="M280.41 100.847h-3.176a5.326 5.326 0 0 0-5.326 5.326v18.949a5.326 5.326 0 0 0 5.326 5.326h3.176a5.326 5.326 0 0 0 5.326-5.326v-18.949a5.326 5.326 0 0 0-5.326-5.326z" fill="#fff"/>
    <path d="M289.334 167h-4.065a5.327 5.327 0 0 0-5.326 5.326v18.258a5.326 5.326 0 0 0 5.326 5.325h4.065a5.326 5.326 0 0 0 5.326-5.325v-18.258a5.327 5.327 0 0 0-5.326-5.326z" fill="#A7F0BA"/>
    <path d="M256.444 166.066h-3.177a5.326 5.326 0 0 0-5.326 5.326v19.537a5.326 5.326 0 0 0 5.326 5.326h3.177a5.325 5.325 0 0 0 5.326-5.326v-19.537a5.325 5.325 0 0 0-5.326-5.326zM272.842 166.3h-4.064a5.326 5.326 0 0 0-5.326 5.325v19.318a5.326 5.326 0 0 0 5.326 5.326h4.064a5.325 5.325 0 0 0 5.326-5.326v-19.318a5.325 5.325 0 0 0-5.326-5.325zM198.607 76.04a1.029 1.029 0 0 1-.934-.98c.14-4.86-.794-8.27-2.757-9.905a4.72 4.72 0 0 0-3.69-.981.983.983 0 0 1-1.122-.748.901.901 0 0 1 .372-.94.88.88 0 0 1 .329-.134 6.352 6.352 0 0 1 5.279 1.355c2.476 2.055 3.644 5.886 3.457 11.399a.933.933 0 0 1-.934.934z" fill="#fff"/>
    <path d="M267.19 185.921a.935.935 0 0 1-.935-.934v-13.455a.937.937 0 0 1 .935-.934.89.89 0 0 1 .877.569.89.89 0 0 1 .057.365v13.455a.89.89 0 0 1-.569.877.875.875 0 0 1-.365.057z" fill="#121619"/>
    <path d="M199.821 133.083c-6.774 0-10.558-1.775-10.791-1.916a.923.923 0 0 1-.474-.542.944.944 0 0 1 .053-.719.887.887 0 0 1 1.215-.42c.093.046 8.129 3.83 21.63.046a.894.894 0 0 1 .972.325.902.902 0 0 1 .15.329.934.934 0 0 1-.608 1.168 45.49 45.49 0 0 1-12.147 1.729zM200.849 138.923c-7.101 0-11.446-2.99-11.726-3.177a.937.937 0 0 1-.187-1.308.89.89 0 0 1 1.261-.234c.094.047 8.503 5.84 20.977.701a.977.977 0 0 1 1.214.514.932.932 0 0 1-.513 1.214 28.366 28.366 0 0 1-11.026 2.29z" fill="#fff"/>
    <path d="M201.037 140.464a6.073 6.073 0 1 0 0-12.146 6.073 6.073 0 0 0 0 12.146z" fill="#121619"/>
    <path d="M201.037 141.399a7.006 7.006 0 0 1-6.873-8.375 7.006 7.006 0 0 1 12.7-2.526 7.006 7.006 0 0 1-5.827 10.901zm0-12.1a5.138 5.138 0 0 0-3.617 8.789 5.136 5.136 0 0 0 5.616 1.084 5.141 5.141 0 0 0 3.14-4.781 5.09 5.09 0 0 0-5.139-5.092z" fill="#fff"/>
    <path d="M201.971 135.325h-4.251a.935.935 0 1 1 0-1.868h2.382v-2.617a.935.935 0 0 1 1.869 0v4.485z" fill="#0F62FE"/>
    <path d="M73.636 120.749a.884.884 0 0 1-.794-.467.885.885 0 0 1 .327-1.261c.047-.047 4.345-2.71 8.83-9.204a.98.98 0 0 1 1.308-.233.93.93 0 0 1 .382.972.931.931 0 0 1-.149.336c-4.718 6.821-9.25 9.624-9.437 9.717a.787.787 0 0 1-.467.14z" fill="#121619"/>
</svg>
