<svg width="529" height="426" viewBox="0 0 529 426" fill="none" xmlns="http://www.w3.org/2000/svg">
    <path d="M209.619 209.733h-.284c-5.752-.114-8.542-4.1-9.738-6.72-1.538 1.538-4.67 3.474-10.364 2.392-7.916-1.424-8.941-8.884-8.998-12.301-1.879.399-5.239.456-8.656-2.733-5.182-4.897-3.189-10.136-3.132-10.364a1.138 1.138 0 0 1 2.107.854c-.057.171-1.423 4.043 2.62 7.859 3.189 2.961 6.15 2.334 7.289 1.936a1.585 1.585 0 0 1 1.424.171 1.649 1.649 0 0 1 .626 1.366c-.114 2.221.114 9.681 7.118 10.991 5.524 1.025 7.916-1.082 8.884-2.449a1.536 1.536 0 0 1 1.481-.626 1.595 1.595 0 0 1 1.252.968c.684 1.879 2.848 6.321 8.144 6.378 5.296.057 6.662-2.847 7.232-4.613a1.424 1.424 0 0 1 1.196-1.025 1.597 1.597 0 0 1 1.537.57c1.595 2.164 6.093 6.833 12.073 3.872 5.068-2.449 4.897-5.922 3.872-8.428a1.599 1.599 0 0 1 .399-1.765 1.48 1.48 0 0 1 1.708-.228c2.734 1.31 9.169 2.847 11.162.854 1.993-1.993-.114-7.859-1.253-9.738a1.16 1.16 0 0 1 .398-1.594 1.16 1.16 0 0 1 1.595.398c.171.342 4.897 8.485.854 12.586-2.847 2.847-9.111 1.252-12.243.113.569 2.563.512 7.005-5.467 9.852-5.979 2.847-11.902-1.082-14.123-3.588-1.025 2.108-3.417 5.012-8.713 5.012zM336.951 49.087a1.085 1.085 0 0 1-.911-.512l-6.207-9.567a1.138 1.138 0 0 1 1.879-1.196l6.207 9.51a1.143 1.143 0 0 1-.342 1.594 1.136 1.136 0 0 1-.626.171zM325.675 61.217a1.192 1.192 0 0 1-1.025-.627 1.2 1.2 0 0 1 .57-1.537l8.599-4.214a1.141 1.141 0 0 1 1.263.16 1.137 1.137 0 0 1 .392.784c.011.15-.008.3-.056.443a1.129 1.129 0 0 1-.574.663l-8.656 4.214-.513.114zM346.404 67.31a1.141 1.141 0 0 1-1.025-.683l-4.385-8.998a1.088 1.088 0 0 1-.109-.418c-.009-.145.011-.29.059-.428a1.09 1.09 0 0 1 .563-.634 1.104 1.104 0 0 1 1.48.512l4.442 8.998a1.141 1.141 0 0 1-.513 1.537l-.512.114zM343.272 50.625a1.027 1.027 0 0 1-.968-.626 1.084 1.084 0 0 1 .455-1.538l7.631-4.157a1.14 1.14 0 0 1 1.082 1.993l-7.631 4.157a1.08 1.08 0 0 1-.569.171zM509.783 77.446a1.083 1.083 0 0 1-1.082-.91l-2.563-12.87a1.14 1.14 0 0 1 .911-1.31 1.025 1.025 0 0 1 1.31.854l2.563 12.87a1.2 1.2 0 0 1-.911 1.366h-.228zM492.528 85.59a1.142 1.142 0 0 1-.114-2.278l11.105-.797a1.142 1.142 0 0 1 .114 2.278l-11.048.797h-.057zM512.118 101.022a1.072 1.072 0 0 1-.802-.296 1.089 1.089 0 0 1-.337-.786l-.911-11.56a1.198 1.198 0 0 1 1.082-1.196 1.08 1.08 0 0 1 1.196 1.025l.911 11.56a1.253 1.253 0 0 1-1.082 1.253h-.057zM515.876 81.831a1.195 1.195 0 0 1-1.139-1.025 1.155 1.155 0 0 1 .252-.84 1.13 1.13 0 0 1 .773-.413l10.023-1.195a1.193 1.193 0 0 1 1.253.968 1.252 1.252 0 0 1-1.025 1.31l-9.966 1.138-.171.057z" fill="#fff"/>
    <path d="M240.541 151.989c-7.061 0-15.375-3.303-24.828-9.965a1.2 1.2 0 0 1-.285-1.595 1.132 1.132 0 0 1 .738-.475 1.14 1.14 0 0 1 .856.19c13.326 9.396 24.032 11.902 31.833 7.46 19.362-10.933 15.888-60.477 15.888-60.932a1.156 1.156 0 0 1 .252-.84 1.13 1.13 0 0 1 .773-.413 1.195 1.195 0 0 1 1.253 1.082c.114 2.05 3.531 51.422-17.027 63.096a18.95 18.95 0 0 1-9.453 2.392z" fill="#121619"/>
    <path d="M252.763 103.747c.181-1.752-.61-3.269-1.768-3.389-1.158-.119-2.243 1.204-2.424 2.956-.181 1.752.611 3.269 1.768 3.388 1.158.12 2.243-1.203 2.424-2.955zM229.54 102.15c.181-1.751-.61-3.269-1.768-3.388-1.157-.12-2.242 1.203-2.423 2.955-.181 1.752.61 3.269 1.768 3.389 1.157.12 2.242-1.204 2.423-2.956zM258.593 100.282l-.513-.114-10.25-3.872a1.534 1.534 0 0 1-.854-1.88 1.48 1.48 0 0 1 1.879-.797l10.25 3.873a1.422 1.422 0 0 1 .797 1.879 1.36 1.36 0 0 1-.508.666c-.235.164-.515.25-.801.245zM223.514 92.537a1.365 1.365 0 0 1-1.367-1.082 1.425 1.425 0 0 1 1.025-1.708l8.372-2.107a1.435 1.435 0 0 1 1.569 2.14c-.197.326-.516.56-.886.65l-8.371 2.107h-.342zM240.256 120.612h-.285a1.196 1.196 0 0 1-1.139-1.196c.008-.15.044-.297.108-.432a1.154 1.154 0 0 1 .648-.586c.141-.05.291-.072.44-.064 1.139.057 1.936-.171 2.164-.57.228-.398-1.025-3.815-2.278-5.467a1.077 1.077 0 0 1-.222-.389 1.091 1.091 0 0 1 .393-1.205 1.138 1.138 0 0 1 1.595.171c.683.854 3.929 5.182 2.562 7.858-.626 1.253-1.993 1.88-3.986 1.88zM238.491 135.133c-4.214-.057-12.472-2.164-13.44-9.681a1.088 1.088 0 0 1 .212-.837 1.084 1.084 0 0 1 .756-.416 1.092 1.092 0 0 1 .837.212 1.074 1.074 0 0 1 .416.756c1.025 7.46 11.105 7.688 11.219 7.688a1.138 1.138 0 0 1 .805 1.944 1.138 1.138 0 0 1-.805.334zM308.991 276.758a1.139 1.139 0 0 1-1.139-1.025c-5.98-50.91-46.07-82.344-68.791-92.936a10.997 10.997 0 0 1-6.264-8.371 71.542 71.542 0 0 1 .398-23.804 1.095 1.095 0 0 1 .473-.707 1.084 1.084 0 0 1 .837-.147 1.192 1.192 0 0 1 .911 1.367 68.96 68.96 0 0 0-.398 22.949 8.759 8.759 0 0 0 5.011 6.663c3.36 1.594 20.956 10.25 37.926 27.96 18.394 19.248 29.213 41.742 32.175 66.798a1.198 1.198 0 0 1-1.025 1.253h-.114z" fill="#121619"/>
    <path d="M200.28 117.594s-7.346-10.194-5.182-13.838c.968-1.481 3.758-4.1 8.257-.74 9.908 7.403 17.368-14.75 22.266-21.754 3.018-4.385 7.801-.626 9.168.399 8.2 6.32 22.949 3.758 31.548 4.897a4.046 4.046 0 0 0 4.556-3.986c-.057-7.46-4.271-20.5-11.503-28.36-10.934-11.844-42.197-24.77-66.058 6.948-17.995 24.032-10.535 41.742-5.865 48.917a11.9 11.9 0 0 0 5.922 4.783l6.891 2.734z" fill="#121619"/>
    <path d="M165.884 180.747a1.141 1.141 0 0 1-1.139-1.025 1.26 1.26 0 0 1 .305-.831c.199-.23.476-.38.777-.422 6.72-.512 24.886-3.417 28.36-10.364l7.517-49.031c-1.937-1.196-7.403-5.068-8.542-9.909a7.801 7.801 0 0 1 1.252-6.378c1.652-2.448 3.531-3.644 5.581-3.473 4.1.342 6.891 6.093 7.175 6.719a1.134 1.134 0 0 1-.116 1.329 1.15 1.15 0 0 1-.834.394 1.129 1.129 0 0 1-.463-.087 1.143 1.143 0 0 1-.637-.667c-.683-1.424-2.961-5.24-5.296-5.41-1.196-.114-2.334.74-3.53 2.448a5.517 5.517 0 0 0-.912 4.556c1.139 4.897 8.03 8.884 8.144 8.941l.683.341-7.801 50.91v.171c-4.556 9.681-29.328 11.731-30.353 11.788h-.171z" fill="#121619"/>
    <path d="M215.94 199.938c-22.721 0-42.425-19.704-43.222-20.558a1.074 1.074 0 0 1-.35-.797 1.08 1.08 0 0 1 .35-.797 1.138 1.138 0 0 1 1.594 0c.228.227 20.558 20.5 42.767 19.874 10.08-.342 19.134-4.954 26.879-13.781a1.137 1.137 0 0 1 1.708 1.48c-8.143 9.34-17.767 14.237-28.53 14.579h-1.196zM167.024 345.777c-19.248 0-34.852-8.2-47.437-24.828-13.553-17.825-14.179-37.642-12.87-56.377 1.709-25.227 10.422-45.842 29.043-68.905 11.56-14.351 29.213-17.084 29.954-17.198a1.158 1.158 0 0 1 1.31.968 1.151 1.151 0 0 1-.969 1.31c-.17 0-17.539 2.733-28.53 16.343-18.564 23.007-26.821 42.539-28.53 67.653-1.309 18.279-.683 37.641 12.415 54.839 13.097 17.198 29.042 23.974 45.614 23.974 21.81 0 45.158-10.933 66.854-21.07 19.305-8.997 37.528-17.539 51.195-16.002 9.795 1.082 12.073.228 12.528-.057-.797-1.594-9.168-5.808-19.646-8.029-8.485-1.765-14.635-1.31-16.572 1.196a1.14 1.14 0 0 1-1.594.228 1.254 1.254 0 0 1-.228-1.595c5.011-6.663 25.74-1.31 34.965 3.36 4.1 2.05 5.809 3.815 5.296 5.524-.512 1.708-2.619 3.018-15.034 1.651-12.414-1.367-30.978 6.948-49.942 15.831-18.963 8.884-39.634 18.508-59.622 20.729-2.724.29-5.461.442-8.2.455z" fill="#121619"/>
    <path d="M289.344 301.131a13.416 13.416 0 0 1-4.157-.797 1.143 1.143 0 0 1-.124-2.087c.266-.139.577-.166.864-.077 1.765.627 3.759.854 4.271.57.513-.285-.114-1.424-3.303-4.841-8.428-9.282-29.897-3.986-31.662-2.847a1.14 1.14 0 0 1-1.481.171 1.136 1.136 0 0 1-.475-.738 1.146 1.146 0 0 1 .191-.857c.911-1.367 7.744-2.847 13.268-3.246 7.005-.512 16.515.057 21.868 5.98 3.473 3.815 4.555 6.093 3.53 7.63-1.025 1.538-1.651 1.139-2.79 1.139zM187.752 307.339c-14.863 0-31.491-4.385-32.573-17.027a1.141 1.141 0 0 1 1.502-1.386 1.143 1.143 0 0 1 .719 1.215c.968 10.991 17.14 15.375 32.687 14.92 15.546-.456 32.459-6.207 32.63-14.92.455-19.533 25.227-21.469 25.512-21.469a1.074 1.074 0 0 1 .819.255 1.079 1.079 0 0 1 .377.77 1.195 1.195 0 0 1-1.082 1.253c-.911.057-22.95 1.765-23.348 19.248-.228 10.535-17.711 16.571-34.851 17.141h-2.392z" fill="#121619"/>
    <path d="M156.261 291.337a1.084 1.084 0 0 1-1.082-.968c-1.709-13.326 1.879-38.781 2.05-39.863a1.074 1.074 0 0 1 .812-.949c.144-.037.294-.043.441-.019a1.087 1.087 0 0 1 .968 1.253c0 .285-3.702 26.252-2.05 39.293a1.088 1.088 0 0 1-.547 1.124c-.13.071-.274.115-.422.129h-.17zM256.144 280.745c-1.082 0-1.765-1.253-2.164-2.051a4.912 4.912 0 0 0-.74-1.138l-.114-.114-14.294-20.444a3.759 3.759 0 0 1 .798-5.182l2.79-2.107a3.588 3.588 0 0 1 2.847-.683 3.647 3.647 0 0 1 2.506 1.537l19.703 27.277a1.148 1.148 0 0 1-.694 1.774 1.16 1.16 0 0 1-.863-.154 1.16 1.16 0 0 1-.322-.31l-19.646-27.277a1.548 1.548 0 0 0-1.011-.624 1.542 1.542 0 0 0-1.153.282l-2.734 2.107a1.483 1.483 0 0 0-.341 2.05l14.236 20.33a7.62 7.62 0 0 1 1.025 1.595c.13.277.283.544.456.797a1.019 1.019 0 0 1 .968.626 1.144 1.144 0 0 1-.57 1.538 1.545 1.545 0 0 1-.683.171z" fill="#121619"/>
    <path d="m249.14 253.638-8.03 5.068a1.651 1.651 0 0 1-2.334-.512l-1.538-2.506a4.781 4.781 0 0 1 1.367-6.492l2.448-1.708a4.896 4.896 0 0 1 6.606 1.082l1.879 2.563a1.766 1.766 0 0 1-.398 2.505z" fill="#fff"/>
    <path d="M295.608 325.675a6.145 6.145 0 0 1-3.417-1.025l-13.838-9.453a1.196 1.196 0 0 1-.285-1.594 1.153 1.153 0 0 1 .738-.476 1.145 1.145 0 0 1 .857.191l13.781 9.453a3.87 3.87 0 0 0 2.847.512l70.671-12.528a.394.394 0 0 0 .341-.341c0-.114.057-.342-.171-.456l-43.962-26.423a4.615 4.615 0 0 0-3.246-.57l-26.936 5.524a1.136 1.136 0 0 1-1.309-.911 1.027 1.027 0 0 1 .438-1.162c.126-.079.268-.129.416-.148l26.935-5.523a6.83 6.83 0 0 1 4.841.797l43.962 26.423a2.73 2.73 0 0 1 1.253 2.847 2.618 2.618 0 0 1-2.164 2.164l-70.67 12.585-1.082.114z" fill="#121619"/>
    <path d="M334.901 311.553a3.078 3.078 0 0 1-1.936-.684l-5.809-4.669a2.912 2.912 0 0 1-1.082-2.791 3.074 3.074 0 0 1 1.936-2.391l9.112-3.417a3.079 3.079 0 0 1 2.79.341l8.77 6.094a2.967 2.967 0 0 1 1.196 3.132 2.907 2.907 0 0 1-2.449 2.335l-12.073 1.993-.455.057zm3.246-11.845h-.228l-9.111 3.473a.739.739 0 0 0-.171 1.253l5.808 4.67a.513.513 0 0 0 .57.171l12.072-1.993a.8.8 0 0 0 .57-.57.736.736 0 0 0-.285-.797l-8.77-6.093a.62.62 0 0 0-.455-.114zM298.113 295.607a1.194 1.194 0 0 1-1.139-.911 1.198 1.198 0 0 1 .912-1.366l24.6-5.126a1.15 1.15 0 0 1 .861.144 1.149 1.149 0 0 1 .506.711 1.194 1.194 0 0 1-.911 1.366l-24.601 5.126-.228.056zM306.827 305.915a1.14 1.14 0 0 1-1.139-.911 1.136 1.136 0 0 1 .911-1.31l11.218-2.392a1.087 1.087 0 0 1 1.199.436c.085.126.142.269.168.418a1.194 1.194 0 0 1-.854 1.367l-11.276 2.392h-.227z" fill="#121619"/>
    <path d="M335.243 316.051a1.134 1.134 0 0 1-1.139-1.082l-1.025-14.065 19.76 8.314a1.131 1.131 0 0 1 .748.605 1.14 1.14 0 0 1-1.2 1.625 1.135 1.135 0 0 1-.459-.18l-16.287-6.834.74 10.365a1.191 1.191 0 0 1-1.081 1.252h-.057z" fill="#fff"/>
    <path d="M100.282 302.669H33.997a1.138 1.138 0 0 1-.805-1.944c.213-.214.503-.334.805-.334h66.285a1.14 1.14 0 0 1 0 2.278zM395.15 296.86h-49.088a1.14 1.14 0 0 1-1.139-1.138 1.138 1.138 0 0 1 1.139-1.139h49.088a1.14 1.14 0 1 1 0 2.277z" fill="#121619"/>
    <path d="M522.88 368.556a11.334 11.334 0 0 0 5.752-12.927c-3.018-11.788-8.485-34.111-13.382-58.769-6.037-30.295-14.863-65.716-26.765-68.62-18.849-4.612-36.503 5.638-58.142 12.187-31.036 9.396-56.434 14.578-55.865 27.96l18.622 70.955s-93.62 37.186-97.15 44.191c-3.531 7.004-5.183 12.756 2.334 13.951 7.517 1.196 108.198 31.378 115.772 27.904 6.264-2.904 83.483-43.507 108.824-56.832z" fill="#fff"/>
    <path d="M419.409 407.507a1.083 1.083 0 0 1-1.082-.854l-37.243-128.471a165.012 165.012 0 0 1-1.366-4.897 20.785 20.785 0 0 1 1.936-14.749l.74-1.367a1.14 1.14 0 0 1 1.538-.456 1.093 1.093 0 0 1 .568.668 1.09 1.09 0 0 1-.113.87l-.74 1.367a18.446 18.446 0 0 0-1.708 13.097c.455 1.766.911 3.474 1.309 4.841l.114.284 37.129 128.186a1.137 1.137 0 0 1-.74 1.424l-.342.057zM431.311 407.678l-1.31-.171a5.067 5.067 0 0 1-3.075-2.335 5.004 5.004 0 0 1-.512-3.815 5.062 5.062 0 0 1 2.391-3.132l12.813-7.403a5.124 5.124 0 0 1 3.873-.513 5.182 5.182 0 0 1 3.075 2.392 5.128 5.128 0 0 1-1.879 6.891l-12.813 7.459a5.686 5.686 0 0 1-2.563.627zm12.813-15.262c-.48.026-.948.163-1.367.399l-12.813 7.403a2.61 2.61 0 0 0-1.309 1.708 2.508 2.508 0 0 0 .284 2.107 2.904 2.904 0 0 0 1.652 1.31 3.184 3.184 0 0 0 2.164-.285l12.813-7.403a3.016 3.016 0 0 0 1.309-1.708 2.96 2.96 0 0 0-.284-2.107 3.02 3.02 0 0 0-1.709-1.31l-.74-.114zM504.145 371.517a5.114 5.114 0 0 1-4.384-2.563 5.066 5.066 0 0 1 1.879-6.89l12.813-7.403a5.066 5.066 0 0 1 7.367 2.741c.324.953.356 1.982.093 2.953a5.184 5.184 0 0 1-2.392 3.076l-12.813 7.403a5.244 5.244 0 0 1-2.563.683zm12.87-15.262a3.076 3.076 0 0 0-1.423.342L502.779 364a2.793 2.793 0 1 0 2.79 4.84l12.813-7.403a2.847 2.847 0 0 0 1.31-1.708 2.742 2.742 0 0 0-.285-2.107 2.674 2.674 0 0 0-2.392-1.367zM455.456 391.904a1.138 1.138 0 0 1-.512-2.164l37.812-18.622a1.147 1.147 0 0 1 1.025 2.05l-37.812 18.622-.513.114zM337.862 394.409a1.189 1.189 0 0 1-1.025-.626 1.138 1.138 0 0 1 .513-1.538l60.591-31.377a1.14 1.14 0 0 1 1.537.456 1.196 1.196 0 0 1-.455 1.537l-60.648 31.434-.513.114z" fill="#121619"/>
    <path d="M410.81 412.803h-.74l-108.767-26.936a1.195 1.195 0 0 1-.615-1.824 1.085 1.085 0 0 1 1.184-.397l108.71 26.936a.97.97 0 0 0 .911-.285.85.85 0 0 0 .171-.854l-19.874-68.62a1.141 1.141 0 0 1 .797-1.424 1.141 1.141 0 0 1 1.424.741l19.874 68.62a3.182 3.182 0 0 1-.797 3.075 3.071 3.071 0 0 1-2.278.968z" fill="#121619"/>
    <path d="M409.216 399.022h-.228l-56.092-12.016a1.192 1.192 0 0 1-.911-1.366 1.198 1.198 0 0 1 1.367-.855l56.092 12.016a1.08 1.08 0 0 1 .854 1.367 1.138 1.138 0 0 1-1.082.854z" fill="#121619"/>
    <path d="M356.484 399.022a1.137 1.137 0 0 1-.627-2.107l43.223-26.765-9.624-2.391a1.147 1.147 0 0 1 .569-2.221l10.706 2.676a1.767 1.767 0 0 1 1.367 1.481 1.707 1.707 0 0 1-.854 1.765l-44.191 27.391c-.17.109-.367.169-.569.171z" fill="#121619"/>
    <path d="M373.169 403.578a1.03 1.03 0 0 1-.968-.627 1.137 1.137 0 0 1 .398-1.537l28.758-15.945-32.573-6.777a1.195 1.195 0 0 1-.854-1.367 1.08 1.08 0 0 1 1.366-.854l34.909 7.232a1.48 1.48 0 0 1 1.081 1.139 1.417 1.417 0 0 1-.683 1.424l-30.865 17.141c-.17.109-.367.168-.569.171zM395.605 408.703a1.021 1.021 0 0 1-.911-.513 1.14 1.14 0 0 1 .285-1.594l12.87-8.599a1.145 1.145 0 1 1 1.31 1.879l-12.927 8.656a1.146 1.146 0 0 1-.627.171zM328.466 399.819h-.285l-6.093-1.651a1.083 1.083 0 0 1-.797-1.367 1.195 1.195 0 0 1 1.367-.854l6.093 1.594a1.196 1.196 0 0 1 .797 1.424 1.138 1.138 0 0 1-1.082.854zM385.811 414.455h-.285l-49.258-12.244a1.128 1.128 0 0 1-.711-.506 1.148 1.148 0 0 1-.143-.861 1.193 1.193 0 0 1 1.423-.854l49.259 12.244a1.123 1.123 0 0 1 .71.506 1.132 1.132 0 0 1 .144.86 1.198 1.198 0 0 1-1.139.855z" fill="#121619"/>
    <path d="M463.415 326.488c8.455-3.503 13.066-11.76 10.298-18.443-2.769-6.683-11.867-9.261-20.323-5.759-8.455 3.503-13.065 11.759-10.297 18.442 2.768 6.683 11.866 9.262 20.322 5.76z" fill="#0F62FE"/>
    <path d="M209.904 52.048s-20.956-8.77-14.806-35.819c6.15-27.05 42.311-16.571 49.258 4.385 4.158 12.415-4.783 27.904-10.876 31.434-6.094 3.531-23.576 0-23.576 0z" fill="#121619"/>
    <path d="M214.346 52.276c-6.321 0-9.225-1.765-9.453-1.936a1.086 1.086 0 0 1-.463-1.142 1.09 1.09 0 0 1 .178-.395 1.085 1.085 0 0 1 1.538-.342c.114.057 10.022 5.922 34.68-5.752a1.135 1.135 0 0 1 1.264.158c.114.099.207.22.273.355a1.194 1.194 0 0 1-.569 1.537c-12.585 5.98-21.526 7.517-27.448 7.517z" fill="#fff"/>
    <path d="M212.751 51.08s7.688-9.111 11.56-7.688c3.872 1.424-1.481 14.408-3.36 14.863-1.879.456-8.2-7.175-8.2-7.175zM212.524 50.966s-5.239-10.763-9.283-10.307c-4.043.456-2.164 14.294-.398 15.262 1.765.968 9.681-4.955 9.681-4.955z" fill="#fff"/>
    <path d="M202.615 33.655a1.137 1.137 0 0 1-1.139-1.139v-5.239a1.138 1.138 0 0 1 1.944-.805c.214.213.334.503.334.805v5.239a1.138 1.138 0 0 1-1.139 1.139z" fill="#0F62FE"/>
    <path d="M363.602 141.283c-11.788 0-21.925-4.157-27.164-11.332-5.239-7.175-5.182-14.806-1.309-23.633 3.132-7.289 8.257-12.642 15.204-15.888 10.991-5.125 24.032-3.53 34.054 4.214 8.77 6.72 12.187 16.059 9.51 25.626-3.132 10.991-13.325 19.533-24.828 20.728-1.88.171-3.702.285-5.467.285zm.171-51.536a29.049 29.049 0 0 0-12.472 2.79c-6.435 2.961-11.161 7.916-14.122 14.692-3.531 8.201-3.189 15.547 1.082 21.412 5.58 7.631 17.311 11.503 30.58 10.08 10.421-1.082 20.045-9.112 22.835-19.02 1.481-5.126 2.221-14.863-8.656-23.291a31.832 31.832 0 0 0-19.247-6.663zM398.928 217.858c-11.788 0-21.925-4.157-27.164-11.332-5.239-7.176-5.182-14.806-1.31-23.633 3.132-7.289 8.258-12.642 15.205-15.888 10.991-5.125 24.031-3.531 34.054 4.214 8.77 6.72 12.186 16.059 9.51 25.626-3.132 10.99-13.326 19.532-24.829 20.728-1.879.171-3.701.285-5.466.285zm.17-51.536a29.041 29.041 0 0 0-12.471 2.79c-6.435 2.961-11.161 7.916-14.123 14.692-3.53 8.2-3.189 15.547 1.082 21.412 5.581 7.631 17.312 11.503 30.581 10.079 10.421-1.082 20.045-9.111 22.835-19.02 1.481-5.125 2.221-14.863-8.656-23.291a31.832 31.832 0 0 0-19.248-6.662z" fill="#121619"/>
    <path d="M364.74 149.369a42.706 42.706 0 0 1-6.435-.569c-9.794-1.538-16.97-5.524-21.354-11.788-6.492-9.225-4.499-20.045-4.442-20.501a1.138 1.138 0 0 1 1.971-.36c.172.215.261.484.25.759 0 .114-1.88 10.364 4.1 18.849 4.043 5.695 10.706 9.339 19.817 10.82 9.111 1.481 17.141-.399 22.949-5.524 9.397-8.257 11.105-22.437 10.934-27.22 0-.302.12-.592.334-.805.213-.214.503-.334.805-.334a1.09 1.09 0 0 1 1.139 1.082c.228 7.289-2.677 21.07-11.674 28.986-4.954 4.385-11.105 6.605-18.394 6.605zM400.066 225.944a42.837 42.837 0 0 1-6.435-.569c-9.795-1.538-16.97-5.524-21.355-11.788-6.492-9.225-4.498-20.045-4.442-20.501a1.144 1.144 0 0 1 1.285-.768 1.143 1.143 0 0 1 .936 1.167c0 .114-1.879 10.364 4.101 18.849 4.043 5.695 10.705 9.339 19.817 10.82 9.111 1.481 17.141-.399 22.949-5.524 9.396-8.257 11.105-22.437 10.934-27.22 0-.302.12-.592.333-.806.214-.213.504-.333.806-.333a1.072 1.072 0 0 1 .802.296 1.074 1.074 0 0 1 .337.786c.227 7.289-2.677 21.07-11.674 28.986-4.955 4.384-11.105 6.605-18.394 6.605z" fill="#121619"/>
    <path d="M347.429 142.593a1.196 1.196 0 0 1-1.139-1.082l-.228-4.499a1.085 1.085 0 0 1 .64-1.104c.139-.061.29-.093.442-.092a1.154 1.154 0 0 1 .822.293 1.127 1.127 0 0 1 .374.789l.228 4.499a1.154 1.154 0 0 1-.293.822 1.127 1.127 0 0 1-.789.374h-.057zM382.754 219.168a1.196 1.196 0 0 1-1.138-1.082l-.228-4.499a1.085 1.085 0 0 1 .64-1.104c.139-.061.29-.093.442-.092.149-.008.299.014.44.065a1.126 1.126 0 0 1 .648.585c.064.136.1.282.108.432l.227 4.499a1.137 1.137 0 0 1-1.082 1.196h-.057zM356.882 146.921c-.302 0-.592-.12-.805-.334a1.136 1.136 0 0 1-.334-.805l.171-5.922a1.085 1.085 0 0 1 .707-1.017c.138-.051.285-.073.432-.065a1.14 1.14 0 0 1 1.139 1.139l-.171 5.922a1.086 1.086 0 0 1-1.139 1.082zM392.208 223.496a1.14 1.14 0 0 1-1.139-1.139l.171-5.922a1.067 1.067 0 0 1 .336-.786 1.078 1.078 0 0 1 .802-.296c.303 0 .592.12.806.333.213.214.333.504.333.806l-.17 5.922a1.086 1.086 0 0 1-1.139 1.082zM368.499 145.27a1.198 1.198 0 0 1-1.139-1.082l-.171-3.417a1.08 1.08 0 0 1 1.082-1.196 1.197 1.197 0 0 1 1.196 1.082l.171 3.36a1.2 1.2 0 0 1-1.082 1.253h-.057zM403.825 221.844a1.19 1.19 0 0 1-1.139-1.082l-.171-3.416a1.082 1.082 0 0 1 1.082-1.196 1.194 1.194 0 0 1 1.196 1.082l.171 3.36a1.196 1.196 0 0 1-1.082 1.252h-.057zM377.212 142.536a1.141 1.141 0 0 1-1.139-1.025l-.284-3.132a1.143 1.143 0 1 1 2.277-.228l.285 3.189a1.09 1.09 0 0 1-.254.819 1.073 1.073 0 0 1-.771.377h-.114zM412.538 219.111a1.141 1.141 0 0 1-1.139-1.025l-.285-3.132a1.147 1.147 0 0 1 1.025-1.253 1.147 1.147 0 0 1 1.253 1.025l.285 3.189a1.072 1.072 0 0 1-.254.819 1.082 1.082 0 0 1-.771.377h-.114zM366.734 133.937a40.44 40.44 0 0 1-15.376-3.018 16.747 16.747 0 0 1-10.421-13.154c-1.025-6.265 1.31-12.813 5.866-16.686 2.619-2.278 6.093-3.986 10.307-5.125a23.52 23.52 0 0 1 21.241 4.67 22.49 22.49 0 0 1 8.2 19.418c-.057.285-.057.57-.114.855a13.155 13.155 0 0 1-6.719 10.079c-3.588 2.107-8.201 2.961-12.984 2.961zm-3.474-36.502a20.62 20.62 0 0 0-5.581.74 23.802 23.802 0 0 0-9.396 4.613c-3.986 3.416-5.979 9.168-5.125 14.578a14.637 14.637 0 0 0 9.055 11.503c7.744 3.189 19.247 4.271 26.366.114 3.303-1.936 5.182-4.727 5.58-8.314.057-.285.057-.57.114-.797a20.388 20.388 0 0 0-7.346-17.54 21.64 21.64 0 0 0-13.667-4.897zM402.06 210.512a40.437 40.437 0 0 1-15.376-3.018 16.745 16.745 0 0 1-10.421-13.155c-1.025-6.264 1.31-12.812 5.865-16.685 2.62-2.278 6.094-3.986 10.308-5.125a23.515 23.515 0 0 1 21.241 4.67 22.49 22.49 0 0 1 8.2 19.418c-.057.285-.057.57-.114.855a13.153 13.153 0 0 1-6.72 10.079c-3.587 2.107-8.2 2.961-12.983 2.961zm-3.474-36.502a20.596 20.596 0 0 0-5.581.74 23.798 23.798 0 0 0-9.396 4.613c-3.986 3.416-5.979 9.168-5.125 14.578a14.635 14.635 0 0 0 9.054 11.503c7.745 3.189 19.248 4.271 26.366.114 3.303-1.936 5.183-4.727 5.581-8.314.057-.285.057-.57.114-.798a20.385 20.385 0 0 0-7.346-17.539 21.637 21.637 0 0 0-13.667-4.897z" fill="#121619"/>
    <path d="m365.481 125.737-.455-.114-.741-.342c-4.954-2.221-9.225-4.1-8.371-14.179.171-2.677 1.196-4.442 2.961-5.296 4.271-2.05 11.162 2.334 11.902 2.847a1.15 1.15 0 0 1 .342 1.594 1.153 1.153 0 0 1-1.595.342c-1.765-1.196-7.004-3.986-9.624-2.733-1.025.512-1.594 1.594-1.765 3.416-.683 8.485 2.221 9.795 7.061 11.959l.741.342a1.081 1.081 0 0 1 .569 1.48 1.023 1.023 0 0 1-1.025.684zM400.807 202.312l-.456-.114-.74-.342c-4.954-2.221-9.225-4.1-8.371-14.18.171-2.676 1.196-4.441 2.961-5.296 4.271-2.05 11.162 2.335 11.902 2.848a1.15 1.15 0 0 1 .342 1.594 1.155 1.155 0 0 1-1.595.342c-1.765-1.196-7.004-3.986-9.624-2.733-1.025.512-1.594 1.594-1.765 3.416-.684 8.485 2.221 9.795 7.061 11.959l.74.342a1.076 1.076 0 0 1 .679 1.052 1.075 1.075 0 0 1-.109.428 1.028 1.028 0 0 1-1.025.684zM464.112 154.609h-1.253c-13.212-.627-23.69-10.251-28.132-25.74-3.075-10.877-2.278-19.533 2.335-25.683 6.891-9.282 19.647-9.567 20.216-9.567h.114c13.667 1.253 23.063 5.866 28.017 13.724 7.119 11.503 2.791 27.05-.398 35.307-2.734 7.004-11.389 11.959-20.899 11.959zm-6.891-58.769c-.854.057-12.357.57-18.337 8.656-4.157 5.581-4.84 13.553-1.936 23.69 5.923 20.956 20.159 23.803 26.025 24.088 8.997.455 17.425-3.986 19.931-10.535 3.018-7.859 7.175-22.608.569-33.2-4.498-7.232-13.325-11.503-26.252-12.699z" fill="#121619"/>
    <path d="m469.408 136.386-.399-.114c-8.428-3.303-12.699-7.118-12.813-11.446-.171-6.948 10.991-12.016 11.503-12.187a1.146 1.146 0 0 1 1.317.643 1.143 1.143 0 0 1-.405 1.407c-2.848 1.253-10.251 5.581-10.137 10.08.057 3.246 3.986 6.492 11.389 9.396a1.137 1.137 0 0 1 .627 1.481 1.193 1.193 0 0 1-1.082.74z" fill="#121619"/>
    <path d="M454.09 127.274a1.143 1.143 0 1 1-.228-2.278l10.82-1.822a1.146 1.146 0 0 1 .937.106c.14.083.26.196.352.33a1.136 1.136 0 0 1-.891 1.785l-10.82 1.879h-.17z" fill="#121619"/>
    <path d="M457.165 156.146c-11.504 0-18.508-5.581-22.665-11.161-9.339-12.642-9.111-31.833-5.41-37.072 10.08-14.237 24.487-14.123 25.113-14.123a1.083 1.083 0 0 1 1.082 1.139 1.14 1.14 0 0 1-1.139 1.139c-.455 0-13.951.114-23.177 13.154-3.303 4.67-3.246 22.779 5.353 34.396 7.517 10.136 19.704 12.756 35.25 7.631a1.138 1.138 0 0 1 1.424.74 1.143 1.143 0 0 1-.741 1.424 47.43 47.43 0 0 1-15.09 2.733z" fill="#121619"/>
    <path d="M481.936 121.808a1.198 1.198 0 0 1-1.139-1.082c-.512-9.055-9.567-18.565-25.227-18.565h-.399c-3.929.057-7.004 1.31-9.168 3.702-4.556 5.182-3.531 14.122-3.531 14.236a1.075 1.075 0 0 1-.546 1.124 1.08 1.08 0 0 1-.422.129 1.135 1.135 0 0 1-1.252-1.025c-.057-.398-1.139-9.965 4.043-15.945 2.619-2.961 6.264-4.442 10.876-4.499h.399c17.084 0 26.936 10.592 27.505 20.672a1.195 1.195 0 0 1-1.082 1.253h-.057zM428.691 119.302a1.144 1.144 0 0 1-1.082-.797 1.14 1.14 0 0 1 .798-1.424l4.612-1.424a1.083 1.083 0 0 1 1.424.741 1.084 1.084 0 0 1-.339 1.222 1.068 1.068 0 0 1-.401.201l-4.67 1.424-.342.057zM431.937 128.186a1.2 1.2 0 0 1-1.082-.684 1.142 1.142 0 0 1 .57-1.48l3.246-1.481c.272-.116.579-.122.855-.015.277.106.501.316.625.585a1.118 1.118 0 0 1 .042.889 1.127 1.127 0 0 1-.611.648l-3.189 1.424-.456.114zM432.963 138.094a1.25 1.25 0 0 1-1.082-.683 1.198 1.198 0 0 1 .569-1.538l4.385-1.993a1.087 1.087 0 0 1 1.481.513 1.138 1.138 0 0 1-.513 1.537l-4.385 2.05-.455.114zM436.55 145.327a1.199 1.199 0 0 1-1.025-.627 1.192 1.192 0 0 1 .569-1.537l4.385-2.05a1.142 1.142 0 0 1 1.481.569 1.144 1.144 0 0 1-.57 1.538l-4.328 1.993a.85.85 0 0 1-.512.114zM284.162 291.337c-1.139 0-2.563-.74-3.702-1.481a1.134 1.134 0 0 1-.62-1.206 1.133 1.133 0 0 1 .521-.782 1.133 1.133 0 0 1 .932-.124c.155.047.298.126.42.233a9.072 9.072 0 0 0 1.822.911 29.567 29.567 0 0 0-2.163-3.644c-4.442-6.492-22.665-5.126-29.271-4.044a1.118 1.118 0 0 1-.858-.208 1.151 1.151 0 0 1-.303-.334 1.153 1.153 0 0 1-.149-.426 1.14 1.14 0 0 1 .912-1.309c1.025-.171 25.341-3.987 31.548 5.011 2.676 3.929 3.303 5.808 2.221 6.89a1.602 1.602 0 0 1-1.31.513zM282.454 276.36a1.14 1.14 0 0 1-1.139-.968c-1.651-15.717-11.275-30.694-11.389-30.808a1.15 1.15 0 0 1 .019-1.281 1.16 1.16 0 0 1 .741-.48 1.15 1.15 0 0 1 1.176.508c.399.626 9.966 15.546 11.731 31.776a1.138 1.138 0 0 1-1.025 1.253h-.114zM137.127 271.007a44.03 44.03 0 0 1-14.749-2.676 48.116 48.116 0 0 1-14.806-8.486 1.145 1.145 0 0 1-.086-1.622 1.149 1.149 0 0 1 1.623-.086 47.886 47.886 0 0 0 14.123 8.086c11.332 4.101 22.437 3.246 32.972-2.562a1.078 1.078 0 0 1 1.537.399 1.195 1.195 0 0 1-.455 1.594 41.458 41.458 0 0 1-20.159 5.353z" fill="#121619"/>
    <path d="M278.296 257.283a1.145 1.145 0 0 1-1.025-.684 1.192 1.192 0 0 1 .57-1.537c7.744-3.246 15.147-22.949 15.204-23.177a1.26 1.26 0 0 1 .614-.616c.272-.125.579-.149.867-.068a1.198 1.198 0 0 1 .683 1.481c-.341.854-7.801 20.842-16.457 24.487l-.456.114z" fill="#121619"/>
    <path d="M47.949 284.332v-7.972s-21.754 7.232-26.082-17.938c-4.328-25.171-2.562-39.92 6.492-32.232 7.973 6.834 7.005 27.961 15.49 28.815a3.363 3.363 0 0 0 3.587-3.873c-1.765-10.819-6.662-47.436 6.321-50.34 15.205-3.474 16.458 17.767 17.938 31.719 1.481 13.952-3.246 19.589 2.506 16.856 5.752-2.733-1.594-31.377 8.542-28.473s11.218 19.817 11.047 33.2c-.17 13.382-21.582 15.432-21.582 15.432l-.74 15.376-23.52-.57z" fill="#A7F0BA"/>
    <path d="m40.148 331.427-9.51-35.762a6.094 6.094 0 0 1 4.27-7.46c9.681-2.791 30.296-7.005 49.828-.228a6.038 6.038 0 0 1 3.873 7.289l-9.225 35.592a6.095 6.095 0 0 1-3.759 4.214c-5.239 1.936-16.856 4.954-31.377.626a6.205 6.205 0 0 1-4.1-4.271z" fill="#0F62FE"/>
    <path d="M59.281 339.058a54 54 0 0 1-15.318-2.278 7.294 7.294 0 0 1-4.898-5.068l-9.51-35.763a7.29 7.29 0 0 1 5.011-8.826c10.478-3.018 30.922-7.062 50.569-.228a7.29 7.29 0 0 1 4.555 8.656l-9.168 35.591a7.345 7.345 0 0 1-4.499 5.011 48.464 48.464 0 0 1-16.742 2.905zm-17.995-7.916a4.958 4.958 0 0 0 3.303 3.474c14.009 4.157 25.227 1.423 30.637-.627a5.01 5.01 0 0 0 3.075-3.416l9.225-35.592a5.01 5.01 0 0 0-3.132-5.922c-19.02-6.606-39.008-2.677-49.201.228a5.067 5.067 0 0 0-3.417 6.093l9.51 35.762z" fill="#121619"/>
    <path d="M63.438 312.749c-7.65-.056-15.29-.512-22.892-1.367a1.083 1.083 0 0 1-.968-1.253 1.138 1.138 0 0 1 1.253-1.025c.284.057 26.366 3.018 36.9.057a1.14 1.14 0 0 1 1.425.797 1.14 1.14 0 0 1-.798 1.367c-3.758 1.082-9.282 1.424-14.92 1.424zM21.868 246.52h-5.182a1.137 1.137 0 0 1-.806-1.944c.214-.214.504-.334.806-.334h5.182a1.138 1.138 0 0 1 .805 1.944 1.138 1.138 0 0 1-.805.334zM21.867 241.053a1.13 1.13 0 0 1-.854-.342l-5.182-5.41a1.25 1.25 0 0 1 .057-1.651 1.138 1.138 0 0 1 1.594.057l5.182 5.467a1.074 1.074 0 0 1 .323.81 1.081 1.081 0 0 1-.38.784 1.193 1.193 0 0 1-.74.285zM34.339 272.772h-.399a1.249 1.249 0 0 1-.683-1.48l1.367-3.759a1.25 1.25 0 0 1 1.48-.683 1.194 1.194 0 0 1 .684 1.48l-1.367 3.759a1.195 1.195 0 0 1-1.082.683zM19.59 265.825a1.194 1.194 0 0 1-1.14-.911 1.197 1.197 0 0 1 .912-1.367l5.808-1.196a1.137 1.137 0 0 1 1.324 1.299 1.143 1.143 0 0 1-.868.922l-5.809 1.196-.227.057zM25.398 270.893a.971.971 0 0 1-.57-.171 1.137 1.137 0 0 1-.455-1.537l1.082-1.88a1.145 1.145 0 0 1 1.168-.559c.151.024.296.079.426.161a1.138 1.138 0 0 1 .4 1.537l-1.083 1.879a1.194 1.194 0 0 1-.968.57zM34.338 244.925a1.193 1.193 0 0 1-.74-.285 1.136 1.136 0 0 1-.114-1.594l4.897-5.41a1.193 1.193 0 0 1 1.652-.057 1.141 1.141 0 0 1 .057 1.595l-4.898 5.41a1.13 1.13 0 0 1-.854.341zM49.031 211.954a1.256 1.256 0 0 1-.854-.342l-4.84-5.182a1.083 1.083 0 0 1 0-1.595 1.258 1.258 0 0 1 1.65.057l4.898 5.182a1.14 1.14 0 0 1-.057 1.595 1.078 1.078 0 0 1-.797.285zM63.154 206.828l-.513-.113a1.2 1.2 0 0 1-.57-1.538l3.873-8.143a1.197 1.197 0 0 1 1.538-.57 1.154 1.154 0 0 1 .577.662 1.14 1.14 0 0 1-.065.876l-3.815 8.143a1.25 1.25 0 0 1-1.025.683zM60.705 227.329a1.029 1.029 0 0 1-.912-.512 1.084 1.084 0 0 1 .285-1.538l4.328-2.904a1.195 1.195 0 0 1 1.595.342 1.13 1.13 0 0 1 .165.869 1.148 1.148 0 0 1-.507.725l-4.328 2.847a1.135 1.135 0 0 1-.626.171zM50.398 248.684h-.228l-6.207-1.082a1.196 1.196 0 0 1-.968-1.367 1.197 1.197 0 0 1 1.31-.911l6.264 1.082a1.253 1.253 0 0 1 .968 1.31 1.195 1.195 0 0 1-1.14.968zM85.477 250.335a1.08 1.08 0 0 1-.74-.285 1.13 1.13 0 0 1-.413-.801 1.14 1.14 0 0 1 .299-.85l3.302-3.759a1.132 1.132 0 0 1 .802-.412 1.133 1.133 0 0 1 .85.299 1.077 1.077 0 0 1 .303 1.223c-.055.139-.14.266-.246.371l-3.303 3.815c-.225.235-.53.377-.854.399zM80.863 223.115a1.138 1.138 0 0 1-1.139-1.139v-5.694a1.14 1.14 0 1 1 2.278 0v5.694a1.137 1.137 0 0 1-1.139 1.139zM85.476 224.482a1.254 1.254 0 0 1-1.082-.684 1.137 1.137 0 0 1 .627-1.48l3.36-1.424a1.142 1.142 0 0 1 1.29.216 1.131 1.131 0 0 1 .34.837 1.137 1.137 0 0 1-.776 1.054l-3.36 1.367a.57.57 0 0 1-.399.114zM83.825 269.925a1.025 1.025 0 0 1-.911-.456l-3.019-4.157a1.075 1.075 0 0 1-.186-.829 1.086 1.086 0 0 1 .471-.708 1.14 1.14 0 0 1 1.595.227l2.96 4.158a1.137 1.137 0 0 1-.227 1.594 1.534 1.534 0 0 1-.683.171zM31.776 302.669H1.139a1.138 1.138 0 0 1-.805-1.944c.213-.214.503-.334.805-.334h30.637a1.137 1.137 0 0 1 .805 1.944 1.137 1.137 0 0 1-.805.334z" fill="#121619"/>
    <path d="m33.256 305.288 7.233-8.257a1.363 1.363 0 0 1 1.067-.468 1.367 1.367 0 0 1 1.04.525l6.662 7.916a1.432 1.432 0 0 0 1.611.433 1.44 1.44 0 0 0 .496-.319l7.916-8.144a1.372 1.372 0 0 1 1.08-.44 1.366 1.366 0 0 1 1.027.554l6.15 7.802a1.423 1.423 0 0 0 2.164.057l5.98-6.663a1.365 1.365 0 0 1 1.645-.322c.18.091.337.22.461.379l7.688 9.054" fill="#0F62FE"/>
    <path d="M85.477 308.534a1.136 1.136 0 0 1-.912-.398l-7.63-9.055c-.114-.113-.171-.113-.228-.113-.057 0-.114 0-.171.113l-5.98 6.663a2.505 2.505 0 0 1-3.872-.114l-6.207-7.858-.17-.114-.229.114-7.915 8.143a2.455 2.455 0 0 1-1.936.74 2.38 2.38 0 0 1-1.822-.911l-6.663-7.915a.229.229 0 0 0-.228-.114c-.057 0-.114 0-.17.114l-7.233 8.257a1.193 1.193 0 0 1-1.651.057 1.093 1.093 0 0 1-.38-.785 1.085 1.085 0 0 1 .323-.81l7.232-8.257a2.56 2.56 0 0 1 1.879-.854h.057a2.396 2.396 0 0 1 1.88.911l6.719 7.972h.341l7.916-8.143a2.55 2.55 0 0 1 .916-.586 2.55 2.55 0 0 1 1.077-.154 2.38 2.38 0 0 1 1.013.252c.315.157.592.382.81.659l6.207 7.859.227.113.171-.113 5.98-6.663a2.452 2.452 0 0 1 1.936-.854 2.39 2.39 0 0 1 1.879.911l7.688 9.054a1.252 1.252 0 0 1-.114 1.652 1.248 1.248 0 0 1-.74.227z" fill="#121619"/>
    <path d="M202.615 20.899h-.114a1.132 1.132 0 0 1-.774-.413 1.143 1.143 0 0 1-.251-.84c.626-6.492 5.922-12.13 6.15-12.357a1.138 1.138 0 0 1 1.651 1.537c-.057.057-4.954 5.353-5.523 11.048a1.14 1.14 0 0 1-1.139 1.025zM193.219 83.141h-.171a1.08 1.08 0 0 1-.968-1.253c1.309-9.111 9.737-19.19 10.079-19.59a1.139 1.139 0 1 1 1.709 1.425c-.057.114-8.315 10.022-9.51 18.45a1.138 1.138 0 0 1-1.139.968zM258.194 78.87c-9.453 0-14.863-2.961-17.368-4.328l-.969-.512a1.087 1.087 0 0 1-.728-1.043 1.196 1.196 0 0 1 1.64-1.065l1.139.627c2.676 1.48 8.94 4.897 20.557 3.872a1.083 1.083 0 0 1 1.196 1.026 1.14 1.14 0 0 1-1.025 1.253l-4.442.17z" fill="#0F62FE"/>
</svg>
