<svg width="360" height="360" viewBox="0 0 360 360" fill="none" xmlns="http://www.w3.org/2000/svg">
    <path d="M189.78 115.744s12 3.346 19.154 6.269 27.309.846 33.963 1.269c6.654.423-2.885-15.731-2.885-15.731s-6.769 2.115-23.962-1.885c-17.193-4-21.078-.23-28.693-1.884" fill="#343A3F"/>
    <path d="M223.242 124.359c-5.885 0-11.423-.308-14.616-1.654-7-2.846-18.923-6.192-19.039-6.231l.423-1.461c.116 0 12.116 3.384 19.193 6.308 4.77 1.923 16.078 1.577 24.347 1.307 3.923-.154 7.308-.269 9.385-.115 1 .038 1.231-.346 1.308-.462 1.23-2.038-2.077-9.231-4.616-13.615-2 .423-9.192 1.346-23.77-2.039-10.269-2.346-15.731-1.961-20.116-1.615-2.884.23-5.423.423-8.538-.27l.346-1.5c2.884.654 5.192.462 8.077.231 4.5-.346 10.077-.769 20.577 1.693 16.809 3.884 23.501 1.884 23.578 1.884l.577-.192.308.538c1.192 2 7.038 12.193 4.884 15.655-.346.615-1.115 1.307-2.692 1.23-1.577-.076-5.385-.038-9.231.116s-6.923.192-10.385.192z" fill="#fff"/>
    <path d="M179.241 286.018 177.664 31.01a9.655 9.655 0 0 0-9.654-9.577h-53.002a9.615 9.615 0 0 0-9.616 9.616v256.315a11.583 11.583 0 0 0 7.343 10.74c1.433.563 2.964.835 4.504.799l50.771-1.308a11.5 11.5 0 0 0 11.231-11.577z" fill="#343A3F"/>
    <path d="M116.931 299.672c-1.618.005-3.22-.31-4.716-.926a12.283 12.283 0 0 1-6.665-6.666 12.263 12.263 0 0 1-.927-4.716V31.049a10.383 10.383 0 0 1 10.385-10.385h53.002a10.423 10.423 0 0 1 10.423 10.346l1.577 254.969a12.35 12.35 0 0 1-12 12.385l-50.771 1.308h-.308zm-1.923-277.47a8.846 8.846 0 0 0-8.847 8.847v256.315a10.71 10.71 0 0 0 3.231 7.693 10.973 10.973 0 0 0 7.808 3.077l50.771-1.27a10.844 10.844 0 0 0 10.5-10.846L176.894 31.01a8.883 8.883 0 0 0-8.884-8.808h-53.002z" fill="#fff"/>
    <path d="M114.816 65.665v77.349a.384.384 0 0 0 .731.192c.73-1.346 1.153-4.193 2.846-3.269 1.692.923.077 12.731 2.731 11.885 1.961-.693 2.269-6.385 2.307-9.155a2.466 2.466 0 0 1 1.77-2.346c.846-.231 1.692-.154 2 .885.615 2.192 3 16.808 4.269 15.539.654-.616 3.346-7.847 4.539-6.308a1.15 1.15 0 0 0 1.288.402 1.149 1.149 0 0 0 .789-1.094v-74.58l-23.27-9.5z" fill="#0F62FE"/>
    <path d="M229.511 153.36c-3 5.923-7.731 28.463-2.538 113.965a5.69 5.69 0 0 0 3.846 5.116c3.039 1.077 8.385 2 17.308 1.038a1.75 1.75 0 0 1 .749.095 1.722 1.722 0 0 1 1.136 1.79c-.231 2.692.385 7.231 6.385 9.154 6.962 2.269 31.078 3.808 38.963 0 7.884-3.808-19.693-124.081-19.693-124.081s-32.771-4.231-42.54-8.385a2.734 2.734 0 0 0-3.616 1.308z" fill="#fff"/>
    <path d="m250.781 287.172-16.231-.616v-14.692l.577-.116c1.269-.307 12.231-2.846 15.154.385.539.577 1.039 1.654.5 3.346v11.693zm-14.692-2.116 13.154.5v-10.461c.462-1.27 0-1.77-.154-1.962-1.654-1.808-8.616-1.038-13.039-.038l.039 11.961z" fill="#fff"/>
    <path d="M249.935 259.094a.805.805 0 0 1-.769-.731c0-.153-.577-14.385-1.731-28.693-2.231-27.116-4.423-29.385-4.846-29.578-5.039-1.346-7.577-22.269-8.039-26.423a.848.848 0 0 1 .692-.885.764.764 0 0 1 .568.17.759.759 0 0 1 .279.522c0 .077.692 6.193 1.923 12.385 2.192 10.885 4.192 12.539 4.961 12.731.77.193 3.539.924 5.962 30.655 1.154 14.424 1.769 28.886 1.769 29.04a.77.77 0 0 1-.73.807h-.039zM305.091 114.051l5.692 10.193a3.651 3.651 0 0 1-.807 4.577c-4.424 3.846-13.309 10.385-16.809 11.154-2.115.5-3.615.385-4.615.077a2.573 2.573 0 0 0-2.923 1.346c-1.193 2.385-4.731 10.116-5.308 14.424-.577 4.307-1.616 4.769-1.616 4.769l-21.154-1.077-24.578-5.962s-.307-1.577.308-4.307c1.423-6.116 5.116-17.039 10.616-22.424 0 0-5.654-18.655-3.347-21.77 2.308-3.116 21.578-6.346 28.347-7.577.731-.116 1.116.384.847 1.307-.731 2.308-3.077 5.731-1.731 10.885 2.115 7.962 20.923-11.538 20.923-11.538s10.924 6.5 16.155 15.923z" fill="#343A3F"/>
    <path d="m278.859 161.36-21.5-1.076-25.04-6.116-.115-.462c0-.077-.308-1.769.346-4.615 1.615-7.154 5.346-17.193 10.5-22.462-1.192-4-5.423-18.886-3.115-22.039 1.885-2.539 16.693-5.693 28.809-7.885a1.616 1.616 0 0 1 1.461.461c.231.231.577.808.269 1.808-.307 1-.423 1.115-.654 1.731-.923 2.231-2.038 4.961-1.076 8.731.269.961.73 1.192 1.076 1.308 3.424.884 13.193-7.616 18.54-13.155l.423-.423.538.308c.462.27 11.193 6.692 16.462 16.193l5.654 10.192a4.462 4.462 0 0 1-.923 5.539c-3.885 3.385-13.231 10.462-17.154 11.346-1.923.424-3.616.462-5 .077a1.808 1.808 0 0 0-2.077.923c-1.462 2.962-4.654 10.27-5.193 14.155-.538 3.884-1.615 5.192-2.077 5.385l-.154.076zm-21.193-2.615 20.732 1.038c.269-.307.807-1.346 1.154-4.077.615-4.423 4.154-12.231 5.384-14.654a3.312 3.312 0 0 1 3.847-1.731 8.804 8.804 0 0 0 4.231-.077c3.192-.73 11.885-7 16.462-11a2.963 2.963 0 0 0 .654-3.615l-5.693-10.193c-4.423-8-13.193-13.924-15.385-15.308-2.731 2.769-14.578 14.423-19.616 13.077-.769-.192-1.731-.769-2.154-2.346-1.154-4.308.154-7.423 1.115-9.731.231-.616.462-1.116.616-1.577.026-.1.038-.204.038-.308h-.038c-15.77 2.846-26.693 5.693-27.847 7.231-1.154 1.539 1.346 14.078 3.5 21.155l.115.423-.346.346c-5.423 5.269-9.077 16.347-10.385 22.039a12.7 12.7 0 0 0-.385 3.5l24.001 5.808z" fill="#fff"/>
    <path d="M246.551 151.86a.81.81 0 0 1-.77-.731c-.038-1.269.039-5.923 3.731-13.269l1.462-2.885c5.615-11.193 9.731-19.155 11.539-20.308 1.807-1.154 5.808-3.885 5.846-3.924a.806.806 0 0 1 1.077.231.769.769 0 0 1-.231 1.039c-.038.038-3.923 2.692-5.885 3.923-1.961 1.231-7.231 12.269-10.961 19.731l-1.462 2.885c-3.539 7-3.615 11.346-3.577 12.5a.728.728 0 0 1-.432.746.732.732 0 0 1-.299.062h-.038z" fill="#fff"/>
    <path d="M127.816 91.627h24.501l2.346-7.346a.077.077 0 0 0 .013-.032.081.081 0 0 0-.022-.065.075.075 0 0 0-.029-.018c-1.654 0-22.309-.116-24.732-.923l-2.5 7.77a.459.459 0 0 0 .055.414.458.458 0 0 0 .368.2z" fill="#343A3F"/>
    <path d="M152.894 92.397h-25.078a1.27 1.27 0 0 1-1-.5 1.152 1.152 0 0 1-.154-1.116l2.77-8.5.73.23c1.847.616 16.809.847 24.463.886a.85.85 0 0 1 .81.715.81.81 0 0 1-.041.4l-2.5 7.885zm-24.655-1.539h23.54l1.884-5.923c-4.846-.038-19.27-.192-23.231-.808l-2.193 6.731z" fill="#fff"/>
    <path d="m127.355 91.397-6.039-6.078a.542.542 0 0 1-.154-.461l2.231-8.193c6.462 1.654 22.731 1.193 24.924 1.154a.46.46 0 0 1 .423.154l5.885 5.808a.224.224 0 0 1 .055.114.227.227 0 0 1-.09.227.23.23 0 0 1-.119.043l-24.232-.846-2.846 7.731c-.077.154.077.424-.038.347z" fill="#343A3F"/>
    <path d="M127.393 92.166a.924.924 0 0 1-.577-.231l-6.039-6.039a1.315 1.315 0 0 1-.346-1.269l2.423-8.923.731.192c6.385 1.692 22.847 1.192 24.693 1.154a1.23 1.23 0 0 1 1 .385l5.924 5.807a1.08 1.08 0 0 1 .192 1.116 1 1 0 0 1-.962.577l-23.693-.808-2.577 7.077a.804.804 0 0 1-.423.885l-.346.077zm-5.423-7.27 5 5.039 2.731-7.385 23.424.808-4.885-4.77c-3.116.077-17.501.462-24.27-1l-2 7.308z" fill="#fff"/>
    <path d="M129.97 84.166c-2.077-.346-6-5.462-7.193-7.039l1.27-.923c2.192 2.962 5.192 6.27 6.154 6.423l-.231 1.539z" fill="#fff"/>
    <path d="M121.008 85.435s-7.038-6.039-6.192-19.77c.731-12.154 3.346-2.885 5.038-2.923 1.693-.038 2.308-4.346 3.539-3.346 1.231 1 2.962 3.384 3.808 3.346.846-.038.115-1.654.769-2.23.654-.578 1.346.384 1.5.73.615 1.154 1.269 2.154 2.039 2.27.769.115 1.115-1.386 2.153-1.424 1.039-.038 3.27 1.73 4.001 3.193 1.577 3.153 1.884 7.538 10.885 12.5h-14.386l-10.769-1.116-2.385 8.77zM259.359 323.981a.771.771 0 0 1-.731-.539c-1.769-5.577-7.924-4.538-8.154-4.5a.806.806 0 0 1-.923-.654.843.843 0 0 1 .653-.884c.077 0 7.732-1.269 9.885 5.577a.808.808 0 0 1-.5.961l-.23.039zM288.821 303.134h-.923c-.077 0-4.154-.039-8.154-.192-2.385-.077-4.269-.193-5.654-.347-2.192-.192-3.231-.423-3.231-1.346s-.846-10.115-1.423-16.346l-.077-.808 15.962-.231 3.5 19.27zm-16.462-2.308c1.577.385 8.269.693 14.616.769l-2.923-16.154-13.001.154c.308 3.154 1.193 12.885 1.308 15.231z" fill="#fff"/>
    <path d="M287.937 332.751h-.039l-34.309-.385c-4.462.231-7.192-2.192-7.962-4.731-.769-2.539-.038-5.462 3.77-7.654a8.269 8.269 0 0 1 3.192-1.077c6.885-.923 11.001-3.539 11.808-14.116a4.424 4.424 0 0 1 4.616-4.077l22.424 1.077a6.046 6.046 0 0 1 4.246 1.971 6.041 6.041 0 0 1 1.562 4.414l-.847 16.077a8.921 8.921 0 0 1-8.423 8.462l-.038.039zm-34.386-1.924 34.347.347a7.387 7.387 0 0 0 6.962-7.001l.846-16.077a4.457 4.457 0 0 0-1.14-3.301 4.46 4.46 0 0 0-3.168-1.469l-22.462-1.076a2.842 2.842 0 0 0-3 2.653c-.769 10.116-4.347 14.347-13.155 15.501a7.252 7.252 0 0 0-2.615.885c-2.539 1.461-3.692 3.731-3.039 5.923.654 2.192 2.539 3.846 6.385 3.615h.039z" fill="#fff"/>
    <path d="M275.244 328.673c-14.347 0-28.578-1.115-28.77-1.154l.115-1.538c.308.038 32.193 2.538 48.386.038l.231 1.5c-5.5.846-12.731 1.154-19.962 1.154zM265.205 322.635a.776.776 0 0 1-.731-.539c-1.769-5.577-7.885-4.577-8.154-4.5a.809.809 0 0 1-.885-.654.772.772 0 0 1 .616-.885c.077 0 7.731-1.307 9.885 5.578a.814.814 0 0 1-.065.577.815.815 0 0 1-.435.384l-.231.039z" fill="#fff"/>
    <path d="M286.475 320.442a3.731 3.731 0 1 0 0-7.462 3.731 3.731 0 0 0 0 7.462z" fill="#0F62FE"/>
    <path d="m249.205 317.057-34.348-.384c-4.461.269-7.192-2.154-7.961-4.693-.77-2.538-.039-5.5 3.769-7.692a8.954 8.954 0 0 1 3.192-1.077c6.885-.923 11.001-3.5 11.808-14.078a4.385 4.385 0 0 1 4.616-4.077l22.462 1.039a6.035 6.035 0 0 1 4.193 2 5.972 5.972 0 0 1 1.577 4.385l-.847 16.116a8.92 8.92 0 0 1-8.423 8.461h-.038zm-34.386-1.923h.038l34.309.385a7.388 7.388 0 0 0 6.962-7l.846-16.116a4.46 4.46 0 0 0-1.154-3.27 4.53 4.53 0 0 0-3.154-1.5l-22.462-1.038a2.847 2.847 0 0 0-3 2.654c-.769 10.116-4.308 14.308-13.154 15.5-.922.12-1.811.42-2.616.885-2.538 1.462-3.692 3.731-3.038 5.923.653 2.193 2.538 3.808 6.384 3.577h.039z" fill="#fff"/>
    <path d="M236.512 313.019c-14.347 0-28.539-1.154-28.77-1.154l.115-1.539c.346.039 32.232 2.539 48.386 0l.231 1.539c-5.5.846-12.731 1.154-19.962 1.154zM220.627 308.288a.726.726 0 0 1-.731-.539c-1.769-5.538-7.885-4.538-8.154-4.5a.768.768 0 0 1-.269-1.5c.077 0 7.731-1.307 9.884 5.539a.801.801 0 0 1-.049.6.803.803 0 0 1-.451.4h-.23zM226.473 306.942a.77.77 0 0 1-.731-.538c-1.769-5.578-7.885-4.539-8.154-4.501a.757.757 0 0 1-.633-.071.767.767 0 0 1-.205-1.142.786.786 0 0 1 .253-.205.792.792 0 0 1 .316-.082c.077-.038 7.731-1.307 9.885 5.539a.729.729 0 0 1-.5.962l-.231.038z" fill="#fff"/>
    <path d="M247.781 304.788a3.731 3.731 0 1 0 0-7.462 3.731 3.731 0 0 0 0 7.462z" fill="#0F62FE"/>
    <path d="M290.821 172.553c13.193-6.308 22.385-7.308 27.078-15.462 4.692-8.154-7.154-30.386-7.154-30.386l-14.001 11.539a19.197 19.197 0 0 1 5.424 7.539c2.961 7.539-7.501 12-12.616 14.808" fill="#343A3F"/>
    <path d="M290.821 173.322a.804.804 0 0 1-.731-.461.77.77 0 0 1 .385-1c3.885-1.846 7.462-3.27 10.616-4.5 7.538-2.962 12.962-5.116 16.154-10.655 4.039-7.077-4.654-24.77-6.731-28.77l-12.577 10.308a20.569 20.569 0 0 1 4.961 7.27c2.924 7.423-6 12.077-11.346 14.885l-1.616.846a.764.764 0 0 1-.898-.03.762.762 0 0 1-.297-.546.772.772 0 0 1 .465-.77l1.654-.885c5.192-2.692 13.038-6.808 10.615-12.923a18.214 18.214 0 0 0-5.231-7.231l-.73-.616 15.462-12.692.461.807c.5.923 12.116 22.424 7.116 31.117-3.423 6-9.077 8.231-16.885 11.308-3.154 1.231-6.693 2.615-10.539 4.461l-.308.077z" fill="#fff"/>
    <path d="M271.782 276.325c-17.847 0-19.808-3.654-20.001-4.423l1.462-.423c0 .039 2 3.885 22.655 3.308h.038a.765.765 0 0 1 .77.73.842.842 0 0 1-.77.808h-4.154zM237.781 265.979c-6.423 0-10.385-1.808-10.616-1.923a.773.773 0 0 1-.346-1.039.725.725 0 0 1 .717-.425.735.735 0 0 1 .283.079c.116.039 7.385 3.346 18.155.769a.776.776 0 0 1 .8.303c.058.083.1.176.123.274a.731.731 0 0 1-.539.923 36.508 36.508 0 0 1-8.577 1.039z" fill="#343A3F"/>
    <path d="M188.049 315.442s25.924 4.769 12.115 12.154c-13.808 7.385-39.693.577-38.308 4.77 1.384 4.192.846 5.577-8.924 6.846-9.769 1.269-63.31-3.231-62.886-9.231.423-6 21.539-6.923 24.193-10.846 2.654-3.924-7.424-8.27.115-9.27 7.539-1 60.733-2.808 73.695 5.577z" fill="#0F62FE"/>
    <path d="M140.355 266.979s1.154 45.809 2.077 51.271c.577 3.462 26.847 11.462 43.771 1.231 1.153-.693 1.73-2.039 1.807-3.385l2.116-48.155s-26.693 8.269-49.771-.962z" fill="#343A3F"/>
    <path d="M165.894 325.25c-8.769 0-16.693-2.077-20.577-3.846-3.885-1.769-3.577-2.654-3.616-3.039-.923-5.461-2.038-49.501-2.115-51.348v-1.192l1.077.423c22.5 9.039 48.963 1.039 49.232.962l1.039-.346-2.154 49.27c-.077 1.731-.885 3.231-2.193 4.001-6.308 3.807-13.731 5.115-20.693 5.115zm-24.731-57.117c.192 7.115 1.23 45.117 2.038 50.002.039.192.654.961 3 2 6.77 3 26.117 6.808 39.617-1.308.808-.5 1.346-1.539 1.423-2.731l2.039-47.117c-5.077 1.346-27.886 6.731-48.117-.846z" fill="#fff"/>
    <path d="M182.318 284.095c-2.616 0-4.731-2.654-4.731-5.923 0-3.27 2.115-5.962 4.731-5.962 2.615 0 4.769 2.654 4.769 5.962 0 3.307-2.154 5.923-4.769 5.923zm0-10.346c-1.77 0-3.193 1.961-3.193 4.423 0 2.461 1.423 4.384 3.193 4.384 1.769 0 3.231-1.961 3.231-4.384s-1.462-4.423-3.231-4.423z" fill="#fff"/>
    <path d="M191.126 307.288c-1.616.038-3-2.423-3.231-2.923a.734.734 0 0 1 .308-1.039.808.808 0 0 1 1.038.308c.577 1.154 1.538 2.192 1.923 2.115.385-.077.808-.192 1.231-4.077.923-8.808-9.654-23.77-9.77-23.923a.701.701 0 0 1-.161-.555.683.683 0 0 1 .105-.276.683.683 0 0 1 .21-.208.726.726 0 0 1 .859-.058.723.723 0 0 1 .218.212c.462.654 11.077 15.577 10.077 25.001-.384 3.5-1.153 5.154-2.5 5.423h-.307z" fill="#fff"/>
    <path d="M182.933 283.903c-2.346-1.077-3.731-2.539-4.154-4.424-.769-3.384 1.923-6.692 2.039-6.846l1.192 1s-2.346 2.846-1.731 5.5c.308 1.385 1.423 2.5 3.269 3.346l-.615 1.424zM165.433 322.865a51.692 51.692 0 0 1-8.962-.807c-8.616-1.539-14.347-4.654-14.578-4.808l.731-1.346a49.408 49.408 0 0 0 14.155 4.654c7.692 1.384 19.308 1.576 30.847-5.116l.769 1.346a45.383 45.383 0 0 1-22.962 6.077z" fill="#fff"/>
    <path d="M185.51 269.825c0 1-.423 1.693-1.461 1.924-6.385 1.577-5.847 3.077-7.385 8.384-1.539 5.308-5.731 3.924-8.808-.961s-3.769 1.231-3.5 8.5c.269 7.27-3.346 5.193-6.423.731s-1.693-9.962-4.616-10.077c-2.923-.116 1.808 21.231-3.077 23.039-4.885 1.808-4.039-12.693-3.077-19.27.962-6.577-.692-7.693-2.654-6.308-.808.616-1.885 2.231-2.846 3.885a.385.385 0 0 1-.731-.192c-.192-7.039-.308-12.193-.308-12.193 17.001 6.808 36.078 4.308 44.886 2.538z" fill="#0F62FE"/>
    <path d="M140.355 266.979s-2.115-2.654 13.693-3.615c15.808-.962 36.462-1.77 36.193 4.307-.269 6.077-49.155 5.308-49.886-.692z" fill="#343A3F"/>
    <path d="M167.702 271.941a132.076 132.076 0 0 1-16.308-.962c-6.924-.884-10.847-2.307-11.078-3.961a.696.696 0 0 1-.038-.654c.385-.847 2.692-2.385 13.77-3.077 15.346-.924 31.539-1.385 35.385 2.384a2.625 2.625 0 0 1 .847 2c-.077 1.193-1.847 2.154-5.27 2.885-3.423.731-7.269 1.116-12.231 1.27-1.654.076-3.385.115-5.077.115zm3.885-9.231c-5.424 0-11.539.307-17.539.692-11.039.692-13.309 2.154-13.655 3a.542.542 0 0 0 0 .539h.039c.192 1.615 4.077 3 10.962 3.923a141.324 141.324 0 0 0 21.385.846c10.808-.384 17.308-1.923 17.385-4.077a2.385 2.385 0 0 0-.808-1.923c-2.307-2.27-9.231-3-17.769-3z" fill="#fff"/>
    <path d="M187.318 269.902c-9.731 3.27-41.001 2.385-46.232-1.808 1.538-1.192 5.885-3 18.077-3 17.693-.038 26.347-2.077 28.155 4.808z" fill="#0F62FE"/>
    <path d="M167.971 272.633c-11.154 0-27.424-1.154-28.347-5.385a1.577 1.577 0 0 1 0-1.192c.308-.654 1.193-2.654 14.385-3.462 16.27-1.038 31.886-1.423 35.924 2.577a3.192 3.192 0 0 1 1.077 2.539c-.192 3.461-10 4.538-18.192 4.846-1.462.077-3.078.077-4.847.077zm-26.885-6v.231c.077.73 2.384 2.23 10.385 3.269a134.588 134.588 0 0 0 21.231.846c12.193-.423 16.654-2.269 16.731-3.385a1.91 1.91 0 0 0-.615-1.384c-4.116-4.039-25.578-2.693-34.77-2.154-11.116.731-12.731 2.231-12.962 2.577z" fill="#fff"/>
    <path d="M178.356 329.365h-.23a.72.72 0 0 1-.464-.369.729.729 0 0 1-.037-.592c.193-.577.27-.577 2.462-.577 3.5-.038 11.693-.077 14.424-1.692a.77.77 0 0 1 1.038.269.769.769 0 0 1-.269 1.077c-3.077 1.807-11.231 1.846-15.154 1.884h-1.77zM149.509 299.288h-.192a.77.77 0 0 1-.616-.885.771.771 0 0 1 .731-.654h.039c.153-.115 1.5-1.231.577-9.308a.844.844 0 0 1 .692-.884.766.766 0 0 1 .846.692c.654 5.769.308 9.346-1 10.577a1.62 1.62 0 0 1-1.077.462z" fill="#343A3F"/>
    <path d="M271.475 86.743c-2.334 0-4.295-.654-5.885-1.962-7.924-6.577-2.693-27.27-2.462-28.155a.767.767 0 0 1 .89-.412.768.768 0 0 1 .572.797c-.039.192-5.193 20.616 1.961 26.578 2.885 2.384 7.462 2.115 13.693-.77a.729.729 0 0 1 1 .347.769.769 0 0 1-.385 1.038c-3.577 1.693-6.731 2.539-9.384 2.539zM288.936 98.897a.766.766 0 0 1-.769-.577l-.884-3.923a20.505 20.505 0 0 1-.5-5.308l.384-14.616.5-.154c.846-.307 3.27-1.461 3.923-3a2.063 2.063 0 0 0-.038-1.73c-.231-.5-.577-1.116-1.077-1.154-.5-.039-1.962 1.153-2.385 1.769a.754.754 0 0 1-.498.32.768.768 0 0 1-.579-.128.77.77 0 0 1-.154-1.077c.154-.27 1.885-2.615 3.77-2.423 1 .077 1.769.808 2.346 2.077a3.778 3.778 0 0 1 .039 2.962c-.847 1.961-3.27 3.153-4.347 3.615l-.346 13.577a21.15 21.15 0 0 0 .462 4.924l.884 3.923a.77.77 0 0 1-.577.923h-.154z" fill="#fff"/>
    <path d="M269.792 65.185c.058-.762-.291-1.41-.778-1.447-.487-.037-.929.552-.986 1.314-.057.763.291 1.41.778 1.448.488.036.929-.552.986-1.315zM279.685 66.255c.057-.762-.291-1.41-.779-1.447-.487-.037-.928.552-.986 1.315-.057.762.291 1.41.779 1.447.487.036.928-.552.986-1.315zM271.397 63.088h-.115l-4.692-.615a.926.926 0 0 1-.797-.703.926.926 0 0 1-.011-.374.962.962 0 0 1 1.077-.808l4.654.577a.965.965 0 0 1-.116 1.923zM282.936 63.05l-.384-.077-4.27-1.923a1.002 1.002 0 0 1-.5-1.27.96.96 0 0 1 1.27-.5l4.307 1.923a.963.963 0 0 1 .462 1.27.927.927 0 0 1-.885.577zM272.244 73.396h-.116c-1.307-.192-1.73-.808-1.884-1.308-.385-1.384 1.23-2.961 1.769-3.423a.768.768 0 0 1 1.198.646.769.769 0 0 1-.198.508c-.769.692-1.346 1.577-1.269 1.846.077.27.154.154.615.193a.765.765 0 0 1 .642.58.78.78 0 0 1-.25.775.771.771 0 0 1-.507.183zM269.782 99.166h-.308a.74.74 0 0 1-.41-.416.723.723 0 0 1 .026-.584 29.715 29.715 0 0 0 2.423-11.385.77.77 0 0 1 .769-.77.729.729 0 0 1 .769.732 29.966 29.966 0 0 1-2.577 12 .688.688 0 0 1-.692.423z" fill="#fff"/>
    <path d="M269.167 55.78a.81.81 0 0 1-.77-.73.734.734 0 0 1 .693-.808l2.038-.193a.77.77 0 0 1 .818.993.772.772 0 0 1-.375.459.766.766 0 0 1-.289.087l-2.039.192h-.076z" fill="#343A3F"/>
    <path d="M242.55 156.629a.683.683 0 0 1-.384-.077.844.844 0 0 1-.269-1.077c1.153-1.884 1.423-4 .73-5.615-.692-1.616-1.884-2.308-3.731-2.693a2.273 2.273 0 0 0-2.077.424c-1.576 1.307-1.846 4.961-1.807 6.23a.768.768 0 0 1-1.3.577.767.767 0 0 1-.239-.538c0-.192-.115-5.385 2.346-7.462a3.747 3.747 0 0 1 1.603-.782 3.744 3.744 0 0 1 1.782.051c2.962.616 4.269 2.308 4.846 3.616.885 2.038.577 4.692-.807 7a.812.812 0 0 1-.693.346zM262.512 161.36a.812.812 0 0 1-.423-.153.789.789 0 0 1-.321-.499.787.787 0 0 1 .129-.578c1.5-2.116 1.923-4.193 1.192-5.962-.73-1.769-2.769-3.308-5.692-3.923-1.115-.231-2-.039-2.654.538-1.731 1.616-1.692 5.885-1.5 7.424a.78.78 0 0 1-.171.566.759.759 0 0 1-.521.28.787.787 0 0 1-.567-.171.767.767 0 0 1-.279-.522c-.039-.23-.693-6.231 2-8.692 1.038-.923 2.384-1.231 4-.923 3.461.731 5.884 2.461 6.846 4.846.962 2.385.385 4.885-1.423 7.423a.692.692 0 0 1-.616.346z" fill="#fff"/>
    <path d="M237.243 148.36a.921.921 0 0 1-.347-.808c2.424-18.77 23.732-47.424 25.155-49.232.962-1.23 3.308-2.039 4.731-2 .385.038 2.346.038 2.077.308-18.578 20.769-26.693 46.616-27.347 51.963a1.08 1.08 0 0 1-1.077.923 5.61 5.61 0 0 1-3.192-1.154zM262.166 152.437c1.924-4.769 15.655-37.924 35.117-47.079a1.427 1.427 0 0 0 .792-1.026 1.416 1.416 0 0 0-.369-1.243c-.885-.923-2.5-1.615-5.077-.192-4.616 2.615-29.386 23.424-34.578 47.694a.922.922 0 0 0 .577 1.038l2.769 1.154a.54.54 0 0 0 .66-.132.525.525 0 0 0 .109-.214z" fill="#0F62FE"/>
    <path d="M128.201 335.25c-10.27 0-27.578-4.846-28.309-5.077a.769.769 0 0 1 .423-1.461c.192.038 17.847 5 27.886 5a.767.767 0 0 1 .543 1.313.767.767 0 0 1-.543.225zM141.932 336.789a45.854 45.854 0 0 1-7.962-.808.767.767 0 0 1-.615-.884.809.809 0 0 1 .923-.616c.038 0 6.461 1.27 10.769.539a.773.773 0 0 1 .782.368.775.775 0 0 1-.041.863.796.796 0 0 1-.224.205.791.791 0 0 1-.286.102 23.124 23.124 0 0 1-3.346.231zM200.203 325.289a.768.768 0 0 1-.538-.231.805.805 0 0 1 0-1.116c.692-.653.615-.73.307-1.23a3.833 3.833 0 0 1-.346-.577.735.735 0 0 1 .346-1 .783.783 0 0 1 .292-.082.785.785 0 0 1 .562.188c.077.067.14.149.185.24l.231.385c.538.807.961 1.73-.5 3.192a.707.707 0 0 1-.539.231zM150.278 285.172a.772.772 0 0 1-.769-.769v-3.231a.77.77 0 1 1 1.539 0v3.231a.768.768 0 0 1-.77.769zM241.397 172.553a2.384 2.384 0 1 0 0-4.769 2.384 2.384 0 0 0 0 4.769zM259.205 164.053c-1.5 2-.846 4.192 1.731 5.577a1.15 1.15 0 0 1 .577 1.192c-.462 1.885-.808 3.693 3.038 5.269a.85.85 0 0 1 .539.77c.077.846-.385 1.5 1.269 2.731.885.615 1.962.5 2.423 1.769 1.116 3.077 3.847 4.731 9.308 2.731 5.462-2 9.154-3.539 10.539-7.808.923-2.731 1.423-9.424-3.539-15.116 0 0-7-1.692-17.077 1.885-3.692 1.346-7.577-.539-8.808 1z" fill="#343A3F"/>
    <path d="M273.167 184.361a4.03 4.03 0 0 1-2-.462 2.157 2.157 0 0 1-1.116-2 .768.768 0 0 1 1.539 0 .772.772 0 0 0 .346.693c1.538.884 6.808-.846 10.577-2.962 1.193-.654 3.116-3.038 3.731-3.885a.78.78 0 0 1 .507-.3.772.772 0 0 1 .854.953.751.751 0 0 1-.13.27c-.231.347-2.5 3.347-4.231 4.308-1.731.962-6.808 3.385-10.077 3.385zM269.32 180.13a4.458 4.458 0 0 1-2.5-.577 2.58 2.58 0 0 1-1.231-2.346.767.767 0 0 1 .77-.769.772.772 0 0 1 .769.769 1.078 1.078 0 0 0 .5 1.039c1.923 1.23 8.423-.962 12.077-2.654a.783.783 0 1 1 .654 1.423c-.846.384-6.962 3.115-11.039 3.115zM266.128 174.899c-1.346 0-2.462-.231-3.231-.884-.769-.654-1.231-1.539-.731-3.424a.747.747 0 0 1 .345-.47.74.74 0 0 1 .578-.068.754.754 0 0 1 .48.342.762.762 0 0 1 .097.581c-.346 1.346.116 1.769.27 1.885 1.807 1.577 9.038-.616 13.192-2.347a.773.773 0 0 1 1 .423.725.725 0 0 1 .011.595.73.73 0 0 1-.434.405c-.884.385-7.231 2.962-11.577 2.962zM263.974 168.86c-2.192 0-4.039-.346-4.808-1.384-.769-1.039-.538-2.077.346-3.5a.783.783 0 0 1 .479-.369.761.761 0 0 1 .597.09.767.767 0 0 1 .232 1.087c-.346.576-.731 1.346-.385 1.769 1.193 1.654 9.078.461 14.309-.885a.772.772 0 0 1 .797.572.774.774 0 0 1-.413.89c-1.5.384-6.962 1.73-11.154 1.73zM284.359 162.322h-.115a.758.758 0 0 1-.513-.305.76.76 0 0 1-.141-.58c0-.038.116-2.077-3.385-4.346a.766.766 0 0 1-.403-.49.784.784 0 0 1 .103-.627.773.773 0 0 1 .863-.31.788.788 0 0 1 .284.158c4.461 2.846 4.077 5.731 4.077 5.846a.809.809 0 0 1-.77.654z" fill="#fff"/>
    <path d="M166.433 109.936s4.5 10.462 9.538 0c0 0-2.73-5.27-1.846-7.424.616-1.423 4.923-.077 5.116.039.192.115 11.077 12.616 11.077 12.616s-2.231 9.231-3.885 10.692c-.73.654-13.615.269-17.846-2.269-5.27-3.154-4.962-9.923-2.154-13.654zM281.782 276.056a.806.806 0 0 1-.769-.692.767.767 0 0 1 .692-.846l8.193-.846a.76.76 0 0 1 .566.171.767.767 0 0 1 .251.821.752.752 0 0 1-.142.266.759.759 0 0 1-.521.28l-8.193.846h-.077z" fill="#343A3F"/>
    <path d="M268.244 118.897c.955 0 1.73-.912 1.73-2.038s-.775-2.039-1.73-2.039c-.956 0-1.731.913-1.731 2.039 0 1.126.775 2.038 1.731 2.038zM263.359 126.321c.956 0 1.731-.913 1.731-2.039 0-1.126-.775-2.038-1.731-2.038-.956 0-1.731.912-1.731 2.038s.775 2.039 1.731 2.039zM277.205 58.857c-36.886 5.5-26.347-16.5-12.962-12.577a.578.578 0 0 0 .77-.5c.115-2.423 1.153-9.116 9.808-4.193a.576.576 0 0 0 .653-.077c1.539-1.5 8.808-7.884 11.885 0a1.925 1.925 0 0 0 2.462 1.077c3.308-1.384 10.077-2.923 11.116 6.347 1.038 9.27-5.154 19.116-7.924 22.924-.307.423-.192-.77-.192-1.308a2.53 2.53 0 0 0-1.231-2.077c-6-3.692-6.154-7.039-6.346-9.27-.385-4.115-1.5-2.461-2.962-1.846l-5.077 1.5zM274.205 79.935a.732.732 0 0 1-.692-.385.768.768 0 0 1 .308-1.038l2.884-1.539a.77.77 0 0 1 1.039.308.81.81 0 0 1-.308 1.038l-2.885 1.539a.575.575 0 0 1-.346.077z" fill="#fff"/>
    <path d="M257.743 55.588h-.192c-.269-.116-2.846-1.116-3.039-2.885-.077-1.077.654-2.115 2.27-3.077a.574.574 0 0 1 .807.193.579.579 0 0 1-.192.77c-1.192.73-1.769 1.422-1.731 1.999.039.577 1.731 1.692 2.269 1.923a.543.543 0 0 1 .339.287.544.544 0 0 1 .008.444.58.58 0 0 1-.539.346zM265.705 56.78a10.456 10.456 0 0 1-1.654-.115h-.923a.656.656 0 0 1-.577-.615.579.579 0 0 1 .577-.539h.038l.962.077a15.27 15.27 0 0 0 5.577-.5.578.578 0 0 1 .269 1.115 16.842 16.842 0 0 1-4.269.577zM274.705 45.472a.424.424 0 0 1-.307-.115c-1.808-1.27-4.808-1.308-4.847-1.308a.577.577 0 1 1 0-1.154c.154 0 3.423.038 5.5 1.5a.613.613 0 0 1 .154.808.643.643 0 0 1-.5.27zM297.36 55.819h-.116a.577.577 0 0 1-.461-.654l.423-2.654a.57.57 0 0 1 .222-.387.57.57 0 0 1 .432-.113.538.538 0 0 1 .461.654l-.384 2.654a.615.615 0 0 1-.577.5z" fill="#343A3F"/>
    <path d="M175.164 109.089c-2.039 0-4.193-.461-5.424-1.5-1.23-1.038-1.346-2.231-.884-3.692a3.688 3.688 0 0 1 2-2.116c4.615-2.23 15.039.654 16.77 1.27a.73.73 0 0 1 .461.961.717.717 0 0 1-.381.439.72.72 0 0 1-.58.023c-3.001-1.077-12.039-3.039-15.578-1.308a2.155 2.155 0 0 0-1.231 1.231c-.269.846-.153 1.5.462 2.038 1.692 1.462 6.269 1.347 8.077.462a.773.773 0 1 1 .692 1.385c-1.39.569-2.883.844-4.384.807z" fill="#fff"/>
    <path d="M164.433 116.744a.73.73 0 0 1-.731-.616c-.039-.038-1.077-5.462 4.538-7.962 1.347-.577 3.231-1.269 4.27-.23 1.038 1.038.307 2.769.231 2.961a.728.728 0 0 1-.705.492.717.717 0 0 1-.295-.069.769.769 0 0 1-.424-1c.193-.461.27-1.115.116-1.307-.154-.193-.462-.385-2.539.577-4.461 2-3.731 6.077-3.692 6.23a.807.807 0 0 1-.616.924h-.153z" fill="#fff"/>
    <path d="M170.279 123.051a.81.81 0 0 1-.616-.307c-.153-.231-4.307-5.577-.807-9.885 1.923-2.385 3.423-3.346 4.885-3.193 1.461.154 2.23 1.039 3.115 2.808a.806.806 0 0 1-.308 1.039.776.776 0 0 1-.591.044.785.785 0 0 1-.447-.39c-.654-1.231-1.308-1.924-1.962-2.001-.654-.076-2 .808-3.5 2.654-2.731 3.385.808 7.924.846 8.001a.81.81 0 0 1-.154 1.077.655.655 0 0 1-.461.153z" fill="#fff"/>
    <path d="M175.241 122.821a.807.807 0 0 1-.731-.5c-.077-.308-2.462-7.039 1.769-9.193a2.624 2.624 0 0 1 2.5 0c1.231.577 5.039 3 2.346 8.577a.77.77 0 0 1-1.038.347.773.773 0 0 1-.346-1.039c1.846-3.808.115-5.654-1.654-6.5a1.275 1.275 0 0 0-1.116-.039c-3.038 1.577-1.038 7.27-1 7.308a.806.806 0 0 1-.461 1l-.269.039z" fill="#fff"/>
    <path d="M188.51 125.859a3.031 3.031 0 0 1-1.577-.5l-6.038-3.692a.807.807 0 0 1-.27-1.039.778.778 0 0 1 .482-.364.756.756 0 0 1 .595.095l6.039 3.693a1.265 1.265 0 0 0 1.423.076 5.763 5.763 0 0 0 2.923-4.923 2.026 2.026 0 0 0-.769-1.692l-11.231-6.5a.772.772 0 0 1-.269-1.039.73.73 0 0 1 1.038-.269l11.308 6.5a3.58 3.58 0 0 1 1.462 3.077 7.306 7.306 0 0 1-3.654 6.154 2.914 2.914 0 0 1-1.462.423z" fill="#fff"/>
    <path d="M188.51 123.551h-.269a.85.85 0 0 1-.416-.414.852.852 0 0 1-.045-.586c.115-.346 1.23-3.192 2.961-3.961a.812.812 0 0 1 1.039.384.811.811 0 0 1-.423 1.039c-.847.346-1.77 2.077-2.116 3.077a.81.81 0 0 1-.731.461zM165.741 110.628a.653.653 0 0 1-.462-.154l-9.846-7.654a.726.726 0 0 1-.297-.808.768.768 0 0 1 1.22-.384l9.846 7.615a.765.765 0 0 1 .3.507.778.778 0 0 1-.146.57.806.806 0 0 1-.615.308z" fill="#fff"/>
    <path d="m145.97 88.089 7.347 5.038-4.308 3.193-6.962-5.462 3.923-2.77z" fill="#343A3F"/>
    <path d="M169.394 103.705a.742.742 0 0 1-.423-.154c-9.039-6.116-24.001-15.962-25.616-16.27-.923-.077-2.115.808-2.462 1.616-.346.807-.038.653.039.73l11.154 8.847a.768.768 0 0 1 .115 1.077.77.77 0 0 1-1.076.115l-11.193-8.885a2.074 2.074 0 0 1-.462-2.5c.616-1.384 2.385-2.692 4.039-2.5 2.308.27 22.347 13.808 26.347 16.501a.806.806 0 0 1 .192 1.077.762.762 0 0 1-.654.346zM40.89 144.552a.765.765 0 0 1-.755-.55.767.767 0 0 1 .332-.873l46.694-30.885a.777.777 0 0 1 1.077.23.781.781 0 0 1-.23 1.077l-46.695 30.886a.762.762 0 0 1-.423.115zM40.89 169.514a.765.765 0 0 1-.755-.55.767.767 0 0 1 .332-.873l57.117-36.77a.768.768 0 0 1 1.152.504.732.732 0 0 1-.344.765l-57.079 36.809a.762.762 0 0 1-.423.115zM41.083 196.015a.8.8 0 0 1-.776-.622.775.775 0 0 1 .314-.801l57.117-39.463a.779.779 0 0 1 .579-.128.772.772 0 0 1 .498.321.765.765 0 0 1-.01.866.778.778 0 0 1-.22.211l-57.08 39.462a.566.566 0 0 1-.422.154zM41.083 220.439a.774.774 0 0 1-.654-.346.809.809 0 0 1 .23-1.077l57.272-36.886a.774.774 0 0 1 .913-.073.77.77 0 0 1-.067 1.343l-57.271 36.924a.884.884 0 0 1-.423.115zM40.89 246.017a.7.7 0 0 1-.615-.347.77.77 0 0 1 .192-1.077L98.123 205.4a.77.77 0 0 1 .846 1.269l-57.655 39.194a.585.585 0 0 1-.423.154zM41.198 268.94a.762.762 0 0 1-.654-.346.807.807 0 0 1 .23-1.077l57.157-36.847a.78.78 0 0 1 1.064 1.096.79.79 0 0 1-.218.212L41.62 268.825a.884.884 0 0 1-.423.115zM42.89 294.672a.812.812 0 0 1-.654-.307.78.78 0 0 1-.128-.579.765.765 0 0 1 .32-.498L97.93 254.21a.762.762 0 0 1 .579-.127.772.772 0 0 1 .306 1.396l-55.502 39.039a.566.566 0 0 1-.423.154zM71.468 299.595a.813.813 0 0 1-.615-.307.81.81 0 0 1 .154-1.077l27.077-20.309a.77.77 0 0 1 1.077.154.81.81 0 0 1-.154 1.077L71.93 299.441a.8.8 0 0 1-.462.154z" fill="#fff"/>
    <path d="M50.006 300.018a10.614 10.614 0 0 1-7.423-2.884 7.847 7.847 0 0 1-2.462-5.616V119.282c0-4 3.77-7.231 8.385-7.231h41.77c4.616 0 8.347 3.231 8.385 7.193l1.27 171.351c.038 4.616-4.27 8.462-9.616 8.577l-40.078.846h-.231zm-1.5-186.428c-3.77 0-6.846 2.538-6.846 5.692v172.236a6.465 6.465 0 0 0 2 4.539 8.962 8.962 0 0 0 6.538 2.423l40.078-.846c4.5-.077 8.155-3.231 8.116-7.039l-1.27-171.351c-.038-3.116-3.076-5.654-6.846-5.654h-41.77z" fill="#fff"/>
</svg>
