<svg width="398" height="398" viewBox="0 0 398 398" fill="none" xmlns="http://www.w3.org/2000/svg">
    <path d="M239.768 372.773c-20.067 0-63.371-6.65-65.6-6.963l-26.327-3.012c-2.777-.274-68.026-7.237-73.502-11.539-1.017-.783-3.677-2.856-5.32-75.889-.821-35.91-.978-71.781-.978-72.133-.352-10.21 1.956-18.62 6.767-24.918 3.834-5.046 9.193-8.762 16.352-11.383a.78.78 0 0 1 .982 1.07.821.821 0 0 1-.435.416c-15.451 5.633-22.688 17.016-22.101 34.776 0 .391.156 36.027.939 71.82 1.486 65.053 3.833 74.128 4.733 75.028 4.303 3.325 53.943 9.193 72.72 11.188l26.365 3.012c18.073 2.777 49.993 7.002 65.562 7.002 4.029 0 7.002-.274 8.332-.939 4.185-2.073 9.466-10.797 14.551-23.901a31.801 31.801 0 0 0 2.074-9.545l9.31-155.375a8.996 8.996 0 0 0-8.137-9.545l-8.41-.822c-7.706-.782-17.251-1.76-28.126-2.66a.774.774 0 0 1-.53-.284.796.796 0 0 1-.144-.271c-.03-.099-.04-.203-.03-.305a.78.78 0 0 1 .285-.531.772.772 0 0 1 .576-.173c10.835.938 20.419 1.877 28.125 2.66l8.372.821a10.525 10.525 0 0 1 9.583 11.188l-9.31 155.375a33.2 33.2 0 0 1-2.19 10.015c-3.051 7.901-9.115 21.671-15.334 24.761-1.487.743-4.773 1.056-9.154 1.056z" fill="#343A3F"/>
    <path d="m243.015 156.452.234 15.334a7.866 7.866 0 0 0 7.081 7.667l32.741.861c7.081.665 10.014-6.533 3.99-10.327a8.12 8.12 0 0 0-2.738-1.017c-7.511-1.291-10.992-4.694-11.383-14.552a3.407 3.407 0 0 0-3.482-3.325l-21.436.196a5.08 5.08 0 0 0-3.573 1.544 5.09 5.09 0 0 0-1.434 3.619z" fill="#343A3F"/>
    <path d="m243.015 156.452.234 15.334a7.866 7.866 0 0 0 7.081 7.667l32.741.861c7.081.665 10.014-6.533 3.99-10.327a8.12 8.12 0 0 0-2.738-1.017c-7.511-1.291-10.992-4.694-11.383-14.552a3.407 3.407 0 0 0-3.482-3.325l-21.436.196a5.08 5.08 0 0 0-3.573 1.544 5.09 5.09 0 0 0-1.434 3.619z" fill="#343A3F"/>
    <path d="M244.071 175.424c1.134 2.778 3.286 4.812 5.985 5.125h.078l32.781 1.056h.078c3.873.43 6.494-1.995 7.08-5.046l-.234-.235s-29.065 1.526-44.986-1.838a.7.7 0 0 0-.782.938z" fill="#8772A3"/>
    <path d="M253.185 168.774a3.678 3.678 0 1 0 0-7.355 3.678 3.678 0 0 0 0 7.355z" fill="#D5C0F0"/>
    <path d="M274.465 171.043h-.234a.732.732 0 0 1-.472-.376.749.749 0 0 1-.037-.602 7.2 7.2 0 0 1 6.963-5.085.743.743 0 0 1 .743.782.778.778 0 0 1-.782.782c-.196 0-4.146-.039-5.437 3.99a.786.786 0 0 1-.744.509zM279.355 173.625h-.195a.78.78 0 0 1-.548-.978c1.134-4.146 5.359-5.359 7.393-5.437a.753.753 0 0 1 .309.032.753.753 0 0 1 .45.407.756.756 0 0 1 .063.304.776.776 0 0 1-.202.565.784.784 0 0 1-.542.256c-.234 0-4.85.235-5.985 4.303a.701.701 0 0 1-.743.548zM285.849 132.278l13.104 7.94a7.823 7.823 0 0 0 10.249-1.877l18.151-27.304c4.342-5.633-.196-11.931-6.611-8.841a7.388 7.388 0 0 0-2.308 1.76c-5.086 5.672-9.819 6.807-18.386 1.878a3.48 3.48 0 0 0-4.694 1.213l-11.187 18.228a5.043 5.043 0 0 0 .21 5.661c.397.54.897.997 1.472 1.342z" fill="#343A3F"/>
    <path d="m285.849 132.278 13.104 7.94a7.823 7.823 0 0 0 10.249-1.877l18.151-27.304c4.342-5.633-.196-11.931-6.611-8.841a7.388 7.388 0 0 0-2.308 1.76c-5.086 5.672-9.819 6.807-18.386 1.878a3.48 3.48 0 0 0-4.694 1.213l-11.187 18.228a5.043 5.043 0 0 0 .21 5.661c.397.54.897.997 1.472 1.342z" fill="#343A3F"/>
    <path d="M302.474 141.47c2.973.509 5.789-.195 7.51-2.347h.079l18.307-27.226h.039c2.425-3.051 1.76-6.572-.509-8.684l-.313.078s-14.199 25.427-25.504 37.123a.66.66 0 0 0 .093.909.659.659 0 0 0 .298.147z" fill="#8772A3"/>
    <path d="M298.562 131.965a3.677 3.677 0 1 0 0-7.355 3.677 3.677 0 0 0 0 7.355z" fill="#D5C0F0"/>
    <path d="M314.248 113.775a.746.746 0 0 1-.587-.274 7.236 7.236 0 0 1-.586-8.606.728.728 0 0 1 .21-.211.725.725 0 0 1 .276-.112.73.73 0 0 1 .57.127.788.788 0 0 1 .352.809.81.81 0 0 1-.117.287 5.59 5.59 0 0 0 .508 6.689.82.82 0 0 1-.117 1.134.706.706 0 0 1-.509.157zM319.06 111.037a.747.747 0 0 1-.587-.274c-2.895-3.169-1.682-7.393-.626-9.154a.783.783 0 0 1 1.056-.313.824.824 0 0 1 .274 1.096c-.117.156-2.386 4.224.469 7.315a.86.86 0 0 1-.039 1.134.945.945 0 0 1-.547.196zM132.312 125.276a.43.43 0 0 1-.313-.079.779.779 0 0 1-.392-1.056c.665-1.33-.039-4.225-.821-6.846a10.582 10.582 0 0 0-.665-1.525l-6.376-11.657c-1.643.195-4.694.313-6.376-1.174a3.476 3.476 0 0 1-1.213-2.66c0-1.447.43-2.503 1.369-3.09 1.799-1.174 4.616.04 4.929.196a.782.782 0 1 1-.626 1.408c-.626-.274-2.543-.9-3.481-.313-.939.587-.626.9-.626 1.76-.006.287.051.572.165.836.115.263.286.498.5.69 1.33 1.173 4.303.899 5.163.782a1.607 1.607 0 0 1 1.604.822l6.337 11.657c.317.587.579 1.203.782 1.838 1.057 3.521 1.604 6.22.744 7.98a.752.752 0 0 1-.704.431zM128.936 91.938c.422-.262.432-1.01.022-1.67-.409-.662-1.084-.986-1.506-.724-.423.262-.433 1.01-.023 1.671s1.085.985 1.507.723zM133.955 83.38a.94.94 0 0 1-.939-.665.963.963 0 0 1 .049-.757.974.974 0 0 1 .577-.494l4.498-1.526a.99.99 0 0 1 .626 1.878l-4.499 1.525-.312.04zM122.571 89.991a.862.862 0 0 1-.587-.235.941.941 0 0 1-.156-1.369l2.934-3.755a.99.99 0 1 1 1.565 1.213l-2.973 3.755a1.018 1.018 0 0 1-.783.391zM137.201 94.255a.744.744 0 0 1-.665-.313.821.821 0 0 1 .196-1.095c.352-.274.469-.43.469-.509 0-.078-.978-.782-2.034-1.017a.781.781 0 0 1-.548-.939.75.75 0 0 1 .339-.503.742.742 0 0 1 .6-.083c.665.156 2.895.821 3.169 2.268.117.509 0 1.291-1.096 2.074a.78.78 0 0 1-.43.117zM152.105 115.339l-.274-.078c-3.794-1.447-8.527-8.293-8.723-8.606a.781.781 0 0 1 1.291-.86c.039.039 4.655 6.728 7.98 8.019a.792.792 0 0 1 .449.409.791.791 0 0 1 .02.608.818.818 0 0 1-.743.508z" fill="#343A3F"/>
    <path d="M134.815 107.985a.777.777 0 0 1-.782-.743.747.747 0 0 1 .439-.758.74.74 0 0 1 .304-.063c6.963-.313 11.227-2.23 12.674-5.712 3.677-8.762-10.523-24.761-10.679-24.918a.748.748 0 0 1-.148-.853.751.751 0 0 1 .187-.242.823.823 0 0 1 1.134.078c.587.665 15.022 16.9 10.953 26.522-1.721 4.108-6.454 6.337-14.082 6.689zM128.517 123.906l-19.011 12.87a2.037 2.037 0 0 0-.855 1.509 2.029 2.029 0 0 0 .62 1.62c3.755 3.443 11.501 11.697 11.031 21.046a1.337 1.337 0 0 0 .592 1.146 1.325 1.325 0 0 0 1.286.106c5.868-2.856 22.415-9.936 32.39-4.851 12.283 6.259 48.701 15.843 48.701 15.843s-8.293-30.395 9.819-49.719a1.215 1.215 0 0 0-.274-1.917l-23.197-12.948s-1.056-14.512-14.669-18.072c-.704-.196-2.621.47-3.169.939l-19.598 19.402a3.098 3.098 0 0 0-.665 2.699c1.174 5.125 3.286 21.241-21.045 10.171a2.027 2.027 0 0 0-1.956.156z" fill="#343A3F"/>
    <path d="M211.056 174.877a34.196 34.196 0 0 1-5.242-.391 4.973 4.973 0 0 1-4.068-3.756c-1.839-7.823-4.382-28.203 11.618-48.623.126-.126.231-.271.313-.43 2.073-3.834 20.81-37.475 35.831-39.666 13.574-1.995 38.61 19.598 45.964 26.248a4.891 4.891 0 0 1 1.447 4.851 35.676 35.676 0 0 1-5.437 12.087 4.967 4.967 0 0 1-6.181 1.604c-3.794-1.799-11.148-5.202-17.72-7.784-11.344-4.421-12.44-3.247-12.518-3.169-.078.078-5.007 37.279-25.153 52.574-5.659 4.303-11.944 6.455-18.854 6.455zm40.33-91.457c-.55-.002-1.099.037-1.643.117-14.278 2.112-32.663 35.128-34.697 38.883-.13.23-.274.452-.431.665-15.608 19.872-13.143 39.665-11.344 47.293a3.323 3.323 0 0 0 2.778 2.543c8.488 1.291 16.194-.626 22.923-5.75 19.598-14.904 24.526-51.166 24.565-51.518a1.495 1.495 0 0 1 .822-1.213c1.056-.587 3.716-.861 14.513 3.403 6.415 2.543 13.456 5.829 17.094 7.55a3.407 3.407 0 0 0 4.225-1.095 34.527 34.527 0 0 0 5.242-11.579 3.396 3.396 0 0 0-1.018-3.286c-14.121-12.83-32.467-26.013-43.029-26.013z" fill="#343A3F"/>
    <path d="M255.376 172.569a18.922 18.922 0 0 1-7.589-1.487l-.391-.195-1.173-27.852a.819.819 0 0 1 .743-.822.776.776 0 0 1 .565.202.784.784 0 0 1 .256.542l1.096 26.874c1.916.782 9.622 3.246 17.681-2.582l3.286-46.981a.772.772 0 0 1 .206-.641.779.779 0 0 1 .959-.141.78.78 0 0 1 .36.9l-3.286 47.684-.313.235c-4.459 3.325-8.879 4.264-12.4 4.264zM100.274 171.434c-4.146 0-7.902-1.564-11.188-4.694-13.143-12.517 8.802-58.911 9.74-60.867a.742.742 0 0 1 1.017-.352.743.743 0 0 1 .392 1.017c-.235.469-22.375 47.333-10.053 59.068 3.13 3.012 6.767 4.42 10.757 4.264 10.249-.47 19.833-11.305 19.911-11.384a.787.787 0 0 1 1.037-.01.784.784 0 0 1 .137 1.027c-.392.47-10.093 11.423-21.007 11.931h-.743z" fill="#343A3F"/>
    <path d="M101.917 143.974a.786.786 0 0 1-.54-.215.787.787 0 0 1-.242-.529c0-.195-.587-20.419 10.953-35.323a5.62 5.62 0 0 1 1.095-1.056c3.012-1.995 3.99-3.482 3.873-3.912a.78.78 0 0 1 .626-.9.716.716 0 0 1 .585.085.711.711 0 0 1 .314.502c.313 1.448-1.212 3.286-4.537 5.555a3.954 3.954 0 0 0-.744.665c-11.187 14.474-10.601 34.15-10.601 34.345a.734.734 0 0 1-.203.551.74.74 0 0 1-.54.232h-.039zM99.53 107.007a.782.782 0 0 1-.781-.704c-.04-.352-1.096-9.192 2.503-15.216a.745.745 0 0 1 1.056-.274.744.744 0 0 1 .274 1.056c-3.286 5.594-2.308 14.16-2.269 14.239a.794.794 0 0 1-.172.577.795.795 0 0 1-.532.283l-.078.039zM174.441 92.025a.788.788 0 0 1-.831-1.01.781.781 0 0 1 .381-.465.786.786 0 0 1 .294-.09 19.957 19.957 0 0 0 9.506-5.671c5.789-6.064 7.745-15.57 5.672-27.5l-.118-.47a1.91 1.91 0 0 0-1.173-1.29c-3.443-1.213-7.628-3.208-8.176-5.712-.156-.665-.117-1.682.939-2.699s2.112.04 3.168.939c1.057.9 1.839 1.604 2.739 1.604h.039a.783.783 0 0 1 .782.782.748.748 0 0 1-.449.723.745.745 0 0 1-.294.06h-.078c-1.448 0-2.739-1.096-3.795-1.995a9.341 9.341 0 0 0-1.134-.9 1.217 1.217 0 0 0-.391 1.134c.313 1.37 3.051 3.13 7.158 4.616a3.478 3.478 0 0 1 2.191 2.347l.117.548c2.777 15.803-1.799 24.488-6.141 28.986a21.988 21.988 0 0 1-10.249 6.063h-.157zM192.005 101.14a.82.82 0 0 1-.743-.509.861.861 0 0 1 .469-1.017c.039 0 3.325-1.369 6.259-7.745s5.711-17.642 4.225-39.313c-.039-.392-.196-3.717.587-5.36.195-.47.704-1.134 1.682-2.386 2.034-2.582 5.789-7.432 5.281-10.053a3.284 3.284 0 0 0-.431-1.213c-.234.118-.782.665-1.486 2.23a.78.78 0 0 1-1.272.211.773.773 0 0 1-.136-.876c1.017-2.23 1.995-3.286 3.051-3.169 1.056.118 1.682 1.917 1.799 2.504.665 3.325-3.09 8.136-5.554 11.305a21.36 21.36 0 0 0-1.526 2.112c-.509 1.056-.469 3.677-.43 4.616 2.894 42.717-10.914 48.389-11.501 48.624l-.274.039zM174.832 164.315h-.078c-17.72-1.174-41.034-2.23-53.082-1.878a.74.74 0 0 1-.735-.476.762.762 0 0 1-.048-.306.751.751 0 0 1 .204-.551.736.736 0 0 1 .539-.232c12.088-.352 35.441.705 53.24 1.878a.82.82 0 0 1 .743.822.824.824 0 0 1-.783.743z" fill="#343A3F"/>
    <path d="M85.488 206.21a5.944 5.944 0 0 1 5.945-5.907c27.07-.078 138.438.391 139.182 12.283.86 13.535 2.112 131.553-3.795 132.805-5.907 1.252-137.03-16.899-139.963-21.124-2.934-4.224-1.643-93.961-1.37-118.057z" fill="#8772A3"/>
    <path d="M221.187 309.559h-.039a.743.743 0 0 1-.743-.782c.039-.822 3.52-79.449-1.135-89.541-1.056-2.269-9.466-6.493-54.06-9.232-25.544-1.564-50.853-1.877-51.127-1.916a.744.744 0 0 1-.743-.783.782.782 0 0 1 .782-.782c.235.039 25.583.352 51.166 1.917 15.06.938 27.226 2.112 36.223 3.52 15.569 2.386 18.385 4.929 19.168 6.611 4.811 10.445 1.408 86.998 1.29 90.245a.819.819 0 0 1-.782.743zM180.035 331.543h-.078l-57.542-6.376a.822.822 0 0 1-.704-.86.77.77 0 0 1 .283-.532.779.779 0 0 1 .577-.173l57.542 6.377a.817.817 0 0 1 .704.86.777.777 0 0 1-.255.503.776.776 0 0 1-.527.201zM99.335 216.928c1.534 0 2.778-1.523 2.778-3.403 0-1.879-1.244-3.403-2.778-3.403s-2.777 1.524-2.777 3.403c0 1.88 1.243 3.403 2.777 3.403z" fill="#D5C0F0"/>
    <path d="M212.777 227.686a3.6 3.6 0 1 0-.002-7.2 3.6 3.6 0 0 0 .002 7.2zM101.721 316.405a3.208 3.208 0 1 0 0-6.417 3.208 3.208 0 0 0 0 6.417zM214.381 333.969c1.987 0 3.598-1.787 3.598-3.99 0-2.204-1.611-3.99-3.598-3.99-1.988 0-3.599 1.786-3.599 3.99 0 2.203 1.611 3.99 3.599 3.99z" fill="#D5C0F0"/>
    <path d="M247.005 339.954h-.039a.823.823 0 0 1-.744-.822c0-.352 1.565-34.775 1.956-69.942.626-58.599-2.229-74.167-4.733-76.906-.469-.547-3.951-2.073-25.426-4.381-12.792-1.369-30.199-2.816-51.792-4.381-36.771-2.621-73.385-4.577-73.737-4.577a.818.818 0 0 1-.743-.821.783.783 0 0 1 .82-.744c.392 0 36.967 1.956 73.777 4.577 74.715 5.359 77.375 8.293 78.275 9.271 3.911 4.264 5.633 30.512 5.124 77.962-.391 35.245-1.956 69.668-1.956 70.021a.787.787 0 0 1-.242.528.786.786 0 0 1-.54.215z" fill="#343A3F"/>
    <path d="M130.238 300.601A34.502 34.502 0 1 1 164.74 266.1a34.542 34.542 0 0 1-34.502 34.501zm0-67.439a32.941 32.941 0 0 0-30.43 20.333 32.936 32.936 0 1 0 63.367 12.605 32.973 32.973 0 0 0-32.937-32.938z" fill="#D5C0F0"/>
    <path d="M129.339 294.89c-14.396 0-26.092-12.635-26.092-28.204s11.696-28.204 26.092-28.204c14.395 0 26.091 12.674 26.091 28.204 0 15.53-11.696 28.204-26.091 28.204zm0-54.843c-13.535 0-24.527 11.97-24.527 26.639 0 14.669 10.992 26.639 24.527 26.639 13.534 0 24.526-11.931 24.526-26.639s-10.992-26.639-24.526-26.639z" fill="#D5C0F0"/>
    <path d="M124.996 248.457h-.039a.783.783 0 0 1-.743-.821l.235-7.315a.74.74 0 0 1 .513-.711.747.747 0 0 1 .308-.033.744.744 0 0 1 .744.783l-.235 7.354a.78.78 0 0 1-.783.743zM133.368 246.971h-.235a.824.824 0 0 1-.509-1.017l2.113-5.986a.788.788 0 0 1 .711-.52.782.782 0 0 1 .306.051.752.752 0 0 1 .519.68.74.74 0 0 1-.05.298l-2.112 5.985a.78.78 0 0 1-.743.509zM138.492 249.944a.774.774 0 0 1-.587-.235.822.822 0 0 1 0-1.095l4.812-4.773a.78.78 0 0 1 1.022.073.782.782 0 0 1 .073 1.023l-4.772 4.772a.785.785 0 0 1-.548.235zM142.952 254.129a.779.779 0 0 1-.744-.547.82.82 0 0 1 .548-.978l6.689-2.034a.789.789 0 0 1 .978.547.793.793 0 0 1-.548.978l-6.689 2.034h-.234zM145.377 260.74a.751.751 0 0 1-.551-.203.747.747 0 0 1-.231-.54.753.753 0 0 1 .187-.577.754.754 0 0 1 .556-.245l7.471-.312a.79.79 0 0 1 .579.214.8.8 0 0 1 .18.259.801.801 0 0 1 .063.309.744.744 0 0 1-.744.782l-7.471.313h-.039zM153.748 271.81h-.156l-8.724-2.112a.738.738 0 0 1-.574-.637.736.736 0 0 1 .027-.302.768.768 0 0 1 .348-.488.79.79 0 0 1 .591-.099l8.684 2.113a.768.768 0 0 1 .488.348.79.79 0 0 1 .098.591.817.817 0 0 1-.782.586zM151.949 279.008a.746.746 0 0 1-.392-.117l-5.711-3.599a.785.785 0 0 1-.234-1.056.777.777 0 0 1 1.056-.274l5.711 3.599a.825.825 0 0 1 .235 1.095.785.785 0 0 1-.665.352zM147.45 286.206a.783.783 0 0 1-.548-.235l-4.772-4.772a.82.82 0 0 1 0-1.135.822.822 0 0 1 1.095 0l4.812 4.812a.817.817 0 0 1 0 1.095.862.862 0 0 1-.587.235zM142.091 290.391a.809.809 0 0 1-.369-.078.807.807 0 0 1-.296-.235l-3.873-5.398a.78.78 0 0 1 .157-1.095.774.774 0 0 1 1.095.196l3.912 5.398a.735.735 0 0 1 .128.57.757.757 0 0 1-.324.486.575.575 0 0 1-.43.156zM135.48 293.99a.82.82 0 0 1-.743-.508l-2.699-7.198a.783.783 0 0 1 .469-.978.784.784 0 0 1 1.017.43l2.699 7.198a.783.783 0 0 1-.469 1.017l-.274.039zM124.684 293.99h-.04a.783.783 0 0 1-.743-.821l.313-7.472a.784.784 0 0 1 1.565.079l-.313 7.471a.743.743 0 0 1-.782.743zM114.787 289.492h-.313a.815.815 0 0 1-.405-.451.816.816 0 0 1 .014-.605l2.699-5.985a.767.767 0 0 1 .445-.42.797.797 0 0 1 1.013.458.78.78 0 0 1-.011.587l-2.699 6.025a.818.818 0 0 1-.743.391zM109.428 283.819a.82.82 0 0 1-.509-.195.74.74 0 0 1-.117-1.095l4.185-5.086a.826.826 0 0 1 1.135-.117.781.781 0 0 1 .078 1.095l-4.186 5.086a.817.817 0 0 1-.586.312zM107.315 278.108a.782.782 0 0 1-.547-.234.744.744 0 0 1 0-1.096l2.386-2.386a.781.781 0 1 1 1.095 1.095l-2.386 2.387a.782.782 0 0 1-.548.234zM119.285 248.144a.82.82 0 0 1-.743-.508l-1.486-4.499a.82.82 0 0 1 .508-1.017.82.82 0 0 1 .978.509l1.487 4.498a.756.756 0 0 1-.023.591.747.747 0 0 1-.447.387l-.274.039zM113.613 251.469a.815.815 0 0 1-.665-.391l-2.034-3.247a.815.815 0 0 1-.098-.593.816.816 0 0 1 .333-.502.79.79 0 0 1 .606-.096.767.767 0 0 1 .282.135.765.765 0 0 1 .207.235l2.034 3.247a.772.772 0 0 1 .097.606.78.78 0 0 1-.371.489.731.731 0 0 1-.391.117zM110.327 256.829a.743.743 0 0 1-.547-.196l-2.856-2.504a.855.855 0 0 1-.078-1.134.822.822 0 0 1 1.134-.039l2.856 2.503a.86.86 0 0 1 .078 1.135.86.86 0 0 1-.587.235zM107.902 262.852l-.313-.078-2.699-1.213a.78.78 0 0 1-.391-1.017.752.752 0 0 1 .723-.466c.102.005.202.03.294.075l2.699 1.174a.818.818 0 0 1 .43 1.056.859.859 0 0 1-.743.469zM104.655 269.776a.785.785 0 1 1-.117-1.564l3.833-.626a.751.751 0 0 1 .588.115.73.73 0 0 1 .312.511.778.778 0 0 1-.626.899l-3.872.626-.118.039zM123.041 277.835c-5.946 0-10.797-5.281-10.797-11.736 0-6.454 4.851-11.735 10.797-11.735 5.946 0 10.835 5.281 10.835 11.735 0 6.455-4.85 11.736-10.835 11.736zm0-21.906c-5.086 0-9.232 4.576-9.232 10.17s4.146 10.171 9.232 10.171c5.085 0 9.271-4.577 9.271-10.171 0-5.594-4.147-10.17-9.271-10.17z" fill="#D5C0F0"/>
    <path d="M119.755 274.04c3.716 0 6.728-3.152 6.728-7.041 0-3.889-3.012-7.041-6.728-7.041-3.716 0-6.728 3.152-6.728 7.041 0 3.889 3.012 7.041 6.728 7.041z" fill="#D5C0F0"/>
    <path d="M119.755 274.823c-4.147 0-7.511-3.521-7.511-7.824s3.364-7.823 7.511-7.823c4.146 0 7.51 3.52 7.51 7.823 0 4.303-3.364 7.824-7.51 7.824zm0-14.083c-3.286 0-5.946 2.817-5.946 6.259s2.66 6.259 5.946 6.259c3.286 0 5.946-2.817 5.946-6.259s-2.66-6.259-5.946-6.259z" fill="#D5C0F0"/>
    <path d="M191.497 48.487a.747.747 0 0 1-.9-.547.742.742 0 0 1 .548-.9c.626-.352.938-.704.978-1.134.039-.43-1.135-2.113-1.8-2.582-2.308-1.017-3.129-.078-4.107 1.056-.369.428-.789.81-1.252 1.134a2.11 2.11 0 0 1-1.604.352 2.462 2.462 0 0 1-1.486-1.212 3.403 3.403 0 0 1 .156-3.677 9.193 9.193 0 0 1 5.79-3.795c2.777-.547 5.672.196 8.606 2.191a.788.788 0 0 1 .348.498.77.77 0 0 1 .003.31.77.77 0 0 1-.117.287.77.77 0 0 1-.507.327.78.78 0 0 1-.588-.131c-2.621-1.76-5.124-2.425-7.432-1.956a7.745 7.745 0 0 0-4.812 3.13 1.917 1.917 0 0 0-.117 2.033c.116.206.294.37.508.47a.823.823 0 0 0 .431-.157c.338-.243.641-.533.899-.86 1.017-1.174 2.582-2.934 5.985-1.408l.157.078c.274.196 2.66 1.995 2.503 4.029-.039.665-.391 1.643-1.838 2.386a.587.587 0 0 1-.352.078z" fill="#343A3F"/>
    <path d="M194.9 39.725a.822.822 0 0 1-.743-.548c-.274-.939-1.174-2.151-2.034-3.325-1.448-1.956-2.934-3.95-2.66-5.711a3.049 3.049 0 0 1 1.29-1.917 2.59 2.59 0 0 1 2.504-.195c3.442 1.408 7.08 9.662 7.198 10.366a.786.786 0 0 1-.587.9.781.781 0 0 1-.939-.587c-.313-1.056-3.755-8.293-6.337-9.271a1.017 1.017 0 0 0-.939.078 1.252 1.252 0 0 0-.626.86c-.195 1.135 1.135 2.934 2.347 4.538 1.213 1.604 1.917 2.621 2.269 3.795a.736.736 0 0 1-.037.602.748.748 0 0 1-.471.376l-.235.039z" fill="#343A3F"/>
    <path d="m203.584 39.53-.352-.079a.826.826 0 0 1-.391-.978c.195-.978.156-9.545-1.526-11.54a.31.31 0 0 0-.352-.078.389.389 0 0 0-.156.391c.469 1.8.391 6.807-.665 9.74a.775.775 0 0 1-.41.45.783.783 0 0 1-.607.02.747.747 0 0 1-.52-.68.74.74 0 0 1 .05-.298c.939-2.582 1.056-7.276.626-8.84a1.917 1.917 0 0 1 .978-2.152 1.799 1.799 0 0 1 2.23.43c2.229 2.621 2.229 12.362 1.799 13.183a.741.741 0 0 1-.704.43zM99.727 150.545a4.392 4.392 0 0 1-1.252-.195.775.775 0 0 1-.45-.41.78.78 0 0 1-.02-.607.747.747 0 0 1 .68-.52.756.756 0 0 1 .298.05c2.817 1.017 8.176-4.459 10.914-8.136a.79.79 0 0 1 .515-.305.783.783 0 0 1 .58.148.862.862 0 0 1 .157 1.096c-.743.978-6.728 8.879-11.422 8.879zM208.982 155.983l-.352-.078a.786.786 0 0 1-.352-1.057c.078-.156 8.254-16.351 22.141-11.578a.734.734 0 0 1 .519.68.735.735 0 0 1-.05.297.782.782 0 0 1-.978.509c-12.596-4.342-20.145 10.64-20.224 10.797a.779.779 0 0 1-.704.43zM135.324 100.749c-1.8 0-4.029-1.448-4.264-1.643a.778.778 0 0 1-.352-.808.77.77 0 0 1 .117-.288.823.823 0 0 1 1.095-.195c.861.587 2.621 1.486 3.56 1.369a.746.746 0 0 1 .861.665.804.804 0 0 1-.012.309.804.804 0 0 1-.131.281.798.798 0 0 1-.522.31h-.352zM136.262 86.94a.588.588 0 0 1-.352-.078.783.783 0 0 1-.313-1.056 5.637 5.637 0 0 1 3.013-2.347.781.781 0 0 1 1.017.43.822.822 0 0 1-.47 1.017 4.414 4.414 0 0 0-2.19 1.643.784.784 0 0 1-.705.39zM189.384 108.768h-.195l-15.374-4.108a.784.784 0 0 1-.547-.978.778.778 0 0 1 .939-.547l15.373 4.068a.788.788 0 1 1-.196 1.565zM171.155 154.379c-4.185 0-11.578-5.555-15.725-8.919a2.504 2.504 0 0 1-.43-3.442l6.102-8.371a2.5 2.5 0 0 1 3.325-.704c2.425 1.369 8.489 5.007 12.479 8.253a6.144 6.144 0 0 1 2.151 6.846c-1.017 3.286-4.342 6.063-7.549 6.337h-.353zm-14.903-11.461a.978.978 0 0 0 .156 1.33c6.807 5.554 12.4 8.762 14.982 8.566 2.582-.195 5.359-2.542 6.181-5.241.43-1.409.508-3.443-1.643-5.164-3.912-3.169-9.897-6.728-12.322-8.136a.978.978 0 0 0-1.252.273l-6.102 8.372z" fill="#343A3F"/>
    <path d="M155.939 145.656a.785.785 0 0 1-.079-1.565l8.333-.939a1.56 1.56 0 0 0 1.134-.704 1.61 1.61 0 0 0 .117-1.33l-2.934-7.628a.794.794 0 0 1 .021-.607.782.782 0 0 1 .449-.41.74.74 0 0 1 .83.206.745.745 0 0 1 .148.263l2.934 7.589a3.099 3.099 0 0 1-.242 2.719 3.083 3.083 0 0 1-2.301 1.467l-8.332.939h-.078z" fill="#343A3F"/>
    <path d="M161.963 141.666a1.056 1.056 0 1 0 0-2.113 1.056 1.056 0 0 0 0 2.113zM128.752 159.777a.783.783 0 0 1-.783-.782c0-.118-.195-10.875-6.063-17.76a.778.778 0 0 1-.186-.909.787.787 0 0 1 .814-.447.776.776 0 0 1 .546.339c6.259 7.354 6.454 18.307 6.454 18.738a.783.783 0 0 1-.782.821zM113.887 82.872a.826.826 0 0 1-.743-.587c-.039-.235-1.643-5.946.9-10.21a13.676 13.676 0 0 1 2.268-2.816c1.174-1.213 1.448-1.526.118-3.99a.736.736 0 0 1-.078-.598.756.756 0 0 1 .391-.459.78.78 0 0 1 1.056.313c1.799 3.325 1.095 4.303-.391 5.829a12.91 12.91 0 0 0-2.034 2.543c-2.191 3.638-.744 8.918-.705 8.958a.788.788 0 0 1-.067.604.786.786 0 0 1-.48.374l-.235.039zM123.08 79.273a.821.821 0 0 1-.744-.587c-.039-.156-1.095-4.107 2.817-7.589a33.27 33.27 0 0 1 2.191-1.72c1.916-1.37 2.151-1.526.821-5.008-1.33-3.481-1.213-4.811-.117-5.946.223-.184.409-.41.547-.665a.788.788 0 0 1 1.409.704 4.48 4.48 0 0 1-.861 1.096c-.469.469-.821.86.469 4.263 1.682 4.343.978 5.164-1.33 6.807-.586.47-1.29.939-2.073 1.643-3.208 2.855-2.386 5.985-2.347 5.985a.817.817 0 0 1-.548.978l-.234.039zM130.942 74.853a.977.977 0 0 1-.469-.157.795.795 0 0 1-.305-.515.764.764 0 0 1 .017-.305c.025-.1.07-.193.132-.275 2.425-3.286 2.425-3.364 2.19-4.46a15.204 15.204 0 0 1-.235-1.251 3.636 3.636 0 0 1 .861-3.012c1.721-1.878 5.203-1.721 5.32-1.721a.743.743 0 0 1 .743.821.741.741 0 0 1-.782.743c-.822-.039-3.13.118-4.107 1.213a1.91 1.91 0 0 0-.47 1.76c.033.383.098.763.196 1.135.352 1.72.195 2.151-2.465 5.71a.815.815 0 0 1-.626.314zM135.871 77.082a1.093 1.093 0 0 1-.469-.156.78.78 0 0 1-.157-1.095c.47-.626 2.895-3.716 4.773-3.716h.078c.43 0 .743-.04.861-.196.117-.156.156-1.135.078-1.878-.078-.743-.274-2.503.587-3.364.86-.86 1.447-.86 2.699-.743a.783.783 0 0 1 .743.821.865.865 0 0 1-.861.744c-.743-.079-1.251.039-1.447.234-.196.196-.235 1.33-.157 2.152.079.821.274 2.308-.469 3.13a2.66 2.66 0 0 1-2.073.664h-.039c-.704 0-2.386 1.565-3.521 3.09a.824.824 0 0 1-.626.313zM112.127 93.238a3.366 3.366 0 0 1-1.252-.195c-1.408-.548-2.308-1.956-2.738-4.225-.626-3.443-.391-4.381-.235-5.046.157-.665.157-.665-.508-2.387-.313-.821-.626-1.486-.861-1.995-1.017-2.268-1.252-3.012.587-5.202a.781.781 0 0 1 1.095-.118.861.861 0 0 1 .117 1.135c-1.29 1.525-1.29 1.564-.391 3.52.274.548.548 1.213.9 2.074.782 1.995.782 2.503.587 3.325-.196.821-.313 1.33.274 4.42.195 1.134.665 2.62 1.721 3.012 1.056.391 2.542-.352 3.012-.704a.781.781 0 1 1 .939 1.252c-.079.039-1.565 1.134-3.247 1.134zM112.518 98.832c-1.095 0-5.946-.196-6.376-3.873-.196-1.604-2.386-2.66-4.499-3.677-2.112-1.017-3.286-1.604-4.146-2.738-.86-1.135-1.135-2.19-.743-3.286a7.432 7.432 0 0 0 .586-2.816.821.821 0 0 1 .822-.744.783.783 0 0 1 .743.822 9.193 9.193 0 0 1-.665 3.286c-.274.665-.274.743.509 1.8.782 1.055 2.112 1.564 3.559 2.268 2.386 1.134 5.086 2.464 5.398 4.89.313 2.425 4.929 2.503 4.968 2.503a.86.86 0 0 1 .822.782.748.748 0 0 1-.203.552.75.75 0 0 1-.54.23h-.235zM297.701 341.87c-28.712 0-32.35-4.029-32.702-4.537l1.291-.861h-.039c.195.196 4.342 4.42 37.983 3.795.665-1.213-2.386-9.076-7.198-16.039-2.855-4.107-5.907-7.393-8.606-9.27a.731.731 0 0 1-.211-.211.725.725 0 0 1-.106-.574.742.742 0 0 1 .122-.272.773.773 0 0 1 .507-.326.782.782 0 0 1 .588.131c2.817 1.917 6.024 5.359 8.997 9.623 3.912 5.672 8.606 15.138 7.276 17.681a1.407 1.407 0 0 1-1.291.821l-6.611.039z" fill="#343A3F"/>
    <path d="M297.662 324.541h-.156a.744.744 0 0 1-.587-.899c1.682-7.941 5.085-29.378.821-33.524a.827.827 0 0 1 .604-1.259.827.827 0 0 1 .531.124c5.594 5.555.195 31.959-.43 34.972a.78.78 0 0 1-.783.586z" fill="#343A3F"/>
    <path d="M295.315 295.477a.586.586 0 0 1-.352-.079.738.738 0 0 1-.352-1.017c.117-.313 3.794-7.98 6.885-10.601.821-.704 1.565-3.598 1.291-8.214-.665-10.249-6.025-24.253-19.09-32.742a1.24 1.24 0 0 1-.508-1.017 1.058 1.058 0 0 1 .508-.978c.782-.508 2.621-1.956 2.973-3.833.196-1.017-.078-2.034-.782-3.091a.778.778 0 0 1-.129-.588.784.784 0 0 1 1.198-.524.79.79 0 0 1 .222.213 5.552 5.552 0 0 1 1.056 4.303c-.391 2.073-2.034 3.598-3.208 4.498 13.222 8.841 18.62 23.158 19.324 33.641.274 4.734-.391 8.254-1.838 9.506-2.856 2.425-6.455 10.014-6.494 10.092a.826.826 0 0 1-.704.431z" fill="#343A3F"/>
    <path d="M289.565 258.745a.824.824 0 0 1-.743-.508c-.9-2.426-5.985-6.963-7.863-8.489a.782.782 0 0 1 .978-1.213c.274.235 7.119 5.829 8.371 9.154a.776.776 0 0 1-.02.607.792.792 0 0 1-.449.41l-.274.039zM283.502 261.757a.776.776 0 0 1-.665-.352c-2.269-3.677-6.611-15.569-6.689-16.586a.786.786 0 1 1 1.564-.156c.157.939 4.225 12.322 6.455 15.921a.782.782 0 0 1-.235 1.056.889.889 0 0 1-.43.117zM280.92 236.487a.78.78 0 0 1-.704-.469.78.78 0 0 1 .391-1.056c4.811-2.152 11.618-6.181 11.657-8.215 0-.117 0-.509-.861-.939-7.51-3.716-17.837-3.325-17.916-3.325a.747.747 0 0 1-.758-.439.743.743 0 0 1-.063-.304.786.786 0 0 1 .743-.822c.43 0 10.797-.391 18.698 3.482 1.448.743 1.722 1.682 1.722 2.386-.079 3.755-10.484 8.684-12.596 9.623l-.313.078zM285.77 311.515a.725.725 0 0 1-.324-.07.727.727 0 0 1-.262-.204.783.783 0 0 1 .078-1.095c1.565-1.33 6.728-5.633 9.075-4.538a.786.786 0 0 1 .435.76.785.785 0 0 1-.083.296.74.74 0 0 1-1.017.352c-.978-.43-4.577 1.878-7.354 4.303a.743.743 0 0 1-.548.196zM283.814 307.369a.744.744 0 0 1-.665-.392.79.79 0 0 1-.096-.606.767.767 0 0 1 .135-.282.803.803 0 0 1 .235-.207c1.096-.626 10.797-6.18 14.239-4.655a.815.815 0 0 1 .405.451.816.816 0 0 1-.014.605.824.824 0 0 1-1.056.392c-1.995-.9-8.919 2.307-12.791 4.576a.747.747 0 0 1-.392.118z" fill="#343A3F"/>
    <path d="M275.913 245.328a7.248 7.248 0 0 1-5.164-2.034.758.758 0 0 1-.241-.548.75.75 0 0 1 .241-.548.784.784 0 0 1 1.096-.039c4.263 4.147 11.735-1.251 11.813-1.33a.788.788 0 0 1 .875-.018.773.773 0 0 1 .22.214.782.782 0 0 1-.156 1.095c-.235.157-4.42 3.208-8.684 3.208z" fill="#343A3F"/>
</svg>
