<svg width="48" height="48" viewBox="0 0 48 48" fill="none" xmlns="http://www.w3.org/2000/svg">
    <circle cx="24" cy="24" r="24" fill="#4226A6"/>
    <path d="M34.421 17.368h-4.14a3.79 3.79 0 0 0-5.611-5.081 3.67 3.67 0 0 0-.67.972 3.672 3.672 0 0 0-.67-.972 3.79 3.79 0 0 0-5.61 5.081h-4.14a1.897 1.897 0 0 0-1.896 1.895v3.79a1.897 1.897 0 0 0 1.895 1.894v7.58a1.896 1.896 0 0 0 1.895 1.894h17.052a1.897 1.897 0 0 0 1.895-1.895v-7.579a1.897 1.897 0 0 0 1.895-1.894v-3.79a1.897 1.897 0 0 0-1.895-1.895zm-8.411-3.741a1.895 1.895 0 1 1 2.68 2.68c-.586.584-2.277.913-3.702 1.021.108-1.425.437-3.116 1.022-3.701zm-6.7 0a1.897 1.897 0 0 1 2.68 0c.586.585.914 2.276 1.022 3.701-1.425-.108-3.116-.437-3.701-1.022a1.897 1.897 0 0 1 0-2.68zm15.111 9.426h-9.473v8.526a.947.947 0 0 1-1.895 0v-8.526h-9.474v-3.79h9.474v3.79h1.895v-3.79h9.473l.001 3.79z" fill="#fff"/>
</svg>
