<?xml version="1.0" encoding="utf-8"?>
<!-- Generator: Adobe Illustrator 25.0.1, SVG Export Plug-In . SVG Version: 6.00 Build 0)  -->
<svg version="1.1" id="Layer_1" xmlns="http://www.w3.org/2000/svg" xmlns:xlink="http://www.w3.org/1999/xlink" x="0px" y="0px"
	 viewBox="0 0 80 23" style="enable-background:new 0 0 80 23;" xml:space="preserve">
<style type="text/css">
	<!-- .st0{fill:#FFFFFF;} -->
</style>
<g>
	<path class="st0" d="M3.9,4.7c1.3,0,2.5-1,2.7-2.4C6.8,1,5.9,0,4.5,0C3.2,0,2,1,1.8,2.4C1.6,3.7,2.5,4.7,3.9,4.7z"/>
	<path class="st0" d="M78.7,13.6L79.7,6h-3.9l-0.2,1.1c-0.7-0.9-1.8-1.4-3.2-1.4c-3.3,0-6.3,2.8-6.8,6.4c0,0.2,0,0.4-0.1,0.6
		c-0.4-1-1.5-1.7-3.3-2.1c-1.5-0.3-2-0.7-2-1.2C60.5,9,61,8.8,61.5,8.8c0.6,0,1,0.4,0.9,0.9h3.9c0.3-2.1-1.5-3.9-4.4-3.9
		c-2.5,0-5,1.4-5.4,4c-0.3,2,1,3.4,3.5,3.9c1.4,0.3,1.9,0.6,1.9,1.2c-0.1,0.5-0.7,0.8-1.3,0.8c-0.7,0-1.2-0.5-1.2-1.1h-3.4
		c-0.5-0.1-0.7-0.4-0.6-0.9l0.4-3.3c0.4-2.8-1.2-4.6-3.9-4.6c-1.4,0-2.7,0.5-3.7,1.5L48.4,6h-3.9L44,10.2c-0.5-2.7-2.6-4.4-5.7-4.4
		c-3.1,0-5.9,1.9-7,4.7c-0.3-2.8-2.2-4.7-5-4.7c-1.4,0-2.6,0.5-3.6,1.4L22.8,6h-3.9h0h-4.6l-2.5,3.3L10.2,6H5.6H5.5H1.7L0,18.3h3.7
		h0.2h4.5l2.6-3.4l0.2,0.3c1.1,2.3,2.5,3.1,4.9,3.1h1.2l-0.6,4.6h3.9l0.8-5.7c0.7,0.9,1.8,1.4,3.2,1.4c2.8,0,5.3-1.9,6.3-4.7
		c0.4,2.8,2.6,4.7,5.7,4.7c2.9,0,5.6-1.6,6.9-4l-0.5,3.7h3.9l0.9-6.6c0.2-1.3,1.2-2.2,2.5-2.2c1.2,0,1.9,0.8,1.7,2.1l-0.4,2.8
		c-0.4,2.5,0.8,3.8,3.4,3.8H56l0.2-1.5c0.7,1.1,2.2,1.8,4,1.8c2.6,0,5.1-1.4,5.6-3.9c0.5,2.4,2.3,3.9,4.9,3.9c1.6,0,3.1-0.7,4.2-1.9
		c0.4,1.1,1.5,1.7,3.3,1.7h1.1l0.6-3.8h-0.3C78.9,14.5,78.6,14.2,78.7,13.6z M3.9,18L5.6,6.2l3.1,5.9L3.9,18z M17,14.5
		c-1.1,0-1.8-0.4-2.3-1.2L14,12.1l4.9-6l-1.2,8.4H17z M27.2,12.2c-0.2,1.5-1.5,2.6-3,2.6s-2.4-1.1-2.3-2.6c0.2-1.5,1.5-2.6,3-2.6
		C26.4,9.5,27.4,10.7,27.2,12.2z M37.8,9.1c1.1,0,2,0.7,2.2,1.9h-4.9C35.6,9.8,36.7,9.1,37.8,9.1z M39.4,14.3
		c-0.5,0.5-1.4,0.9-2.4,0.9c-1.2,0-2.1-0.7-2.3-1.9h8.8l-0.1,1H39.4z M74.9,12.4c-0.3,1.4-1.5,2.4-3,2.4c-1.5,0-2.4-1.1-2.3-2.6
		c0.2-1.5,1.5-2.6,3-2.6c1.5,0,2.4,1,2.3,2.5L74.9,12.4z"/>
</g>
</svg>
